<?xml version="1.0" standalone="no"?>
<!DOCTYPE svg PUBLIC "-//W3C//DTD SVG 1.1//EN" "http://www.w3.org/Graphics/SVG/1.1/DTD/svg11.dtd" >
<svg>
<metadata>
Created by FontForge 20090914 at Thu Sep 10 14:44:44 2020
 By www-data
&#194;&#169;1991,1993 Tilde Ltd. AG Fonts collection.
</metadata>
<defs>
<font id="AGFriquer-Bold" horiz-adv-x="580" >
  <font-face 
    font-family="AGFriquer"
    font-weight="700"
    font-stretch="normal"
    units-per-em="1000"
    panose-1="0 0 0 0 0 0 0 0 0 0"
    ascent="800"
    descent="-200"
    x-height="460"
    cap-height="658"
    bbox="-50 -211 1155 878.003"
    underline-thickness="20"
    underline-position="-123"
    unicode-range="U+0020-U+2122"
  />
<missing-glyph horiz-adv-x="800" 
d="M50 0v800h700v-800h-700zM700 50v700h-600v-700h600z" />
    <glyph glyph-name=".notdef" horiz-adv-x="800" 
d="M50 0v800h700v-800h-700zM700 50v700h-600v-700h600z" />
    <glyph glyph-name="space" unicode=" " horiz-adv-x="300" 
 />
    <glyph glyph-name="exclam" unicode="!" horiz-adv-x="340" 
d="M247 209h-149l-25 449h200zM83 79c0 27.333 9.16797 50.499 27.501 69.499s41.166 28.5 68.499 28.5c26 0 48 -9 66 -27s27 -40.333 27 -67c0 -27.333 -9.5 -50.166 -28.5 -68.499s-42.167 -27.5 -69.5 -27.5c-24.667 0 -46 9 -64 27s-27 39.667 -27 65z" />
    <glyph glyph-name="quotedbl" unicode="&#x22;" horiz-adv-x="320" 
d="M50 658h82v-231h-82v231zM188 658h82v-231h-82v231z" />
    <glyph glyph-name="numbersign" unicode="#" horiz-adv-x="560" 
d="M494 208h-101l-31 -208h-88l31 208h-84l-31 -208h-87l31 208h-98v86h111l14 82h-98v87h110l29 195h85l-28 -195h84l29 195h88l-29 -195h88v-87h-101l-11 -82h87v-86zM246 376l-11 -82h82l14 82h-85z" />
    <glyph glyph-name="dollar" unicode="$" horiz-adv-x="560" 
d="M57 185c55.333 -44.667 117.667 -66.999 187 -66.999c26 0 46.667 3.66699 62 11c21.333 10.667 32 27.667 32 51c0 28 -23.333 53.667 -70 77c-77.333 38 -120.666 60.667 -129.999 68c-47.333 35.333 -71 81 -71 137c0 48.667 18.333 88.667 55 120
c33.333 28 75.666 44.333 126.999 49v78h78v-78c36.667 -3.33301 72.667 -11.333 108 -24v-103c-17.333 11.333 -37.5 21 -60.5 29s-44.5 12 -64.5 12c-19.333 0 -37 -4.83301 -53 -14.5s-24 -23.834 -24 -42.501c0 -16 7.33301 -29.667 22 -41
c7.33301 -5.33301 22 -13 44 -23l69 -33c42 -19.333 73.667 -41.333 95 -66c26 -30 39 -65.667 39 -107c0 -51.333 -16.333 -94 -49 -128s-74.667 -54.667 -126 -62v-96h-78v96c-56 0 -109.667 10 -161 30z" />
    <glyph glyph-name="percent" unicode="%" horiz-adv-x="820" 
d="M265 0h-88l376 658h90zM516 53c-13.333 18.667 -23.168 41 -29.501 67s-9.5 52.333 -9.5 79c0 53.333 12.667 99 38 137c29.333 44 70 66 122 66c50.667 0 90.334 -21.333 119.001 -64c24.667 -36.667 37 -81.667 37 -135c0 -27.333 -2.5 -52.333 -7.5 -75
s-14.167 -43.667 -27.5 -63c-14 -22.667 -32 -40.5 -54 -53.5s-46 -19.5 -72 -19.5c-22 0 -43.333 5.5 -64 16.5s-38 25.833 -52 44.5zM687.998 206c0 30.667 -2.33301 55.666 -7 74.999c-8 33.333 -22.667 50 -44 50c-17.333 0 -30.833 -12.167 -40.5 -36.5
s-14.5 -58.5 -14.5 -102.5c0 -31.333 2.33301 -56.666 7 -75.999c8.66699 -35.333 23.667 -53 45 -53c20.667 0 35.667 19.667 45 59c6 26 9 54 9 84zM61.998 315.999c-13.333 18.667 -23.167 40.999 -29.5 66.999s-9.5 52.333 -9.5 79c0 54 12.667 100 38 138
c29.333 44 70 66 122 66c51.333 0 91 -21.333 119 -64c24.667 -37.333 37 -82.666 37 -135.999c0 -26.667 -2.5 -51.5 -7.5 -74.5s-13.833 -44.167 -26.5 -63.5c-14.667 -22 -33 -39.5 -55 -52.5s-46 -19.5 -72 -19.5c-22 0 -43.5 5.5 -64.5 16.5s-38.167 25.5 -51.5 43.5z
M233.997 470.998c0 30 -2.33301 54.666 -7 73.999c-8 33.333 -22.667 50 -44 50c-17.333 0 -30.833 -12.167 -40.5 -36.5s-14.5 -58.5 -14.5 -102.5c0 -31.333 2.33301 -56.666 7 -75.999c8.66699 -35.333 23.667 -53 45 -53c16 0 29 13 39 39s15 61 15 105z" />
    <glyph glyph-name="ampersand" unicode="&#x26;" horiz-adv-x="820" 
d="M474 293c60.667 -60 118.998 -112 174.998 -156c66.667 -52 132.334 -94 197.001 -126l-170 -16c-45.333 0 -84.333 5.33301 -117 16s-64 30.334 -94 59.001c-26 -30.667 -56.667 -52.667 -92 -66c-30.667 -11.333 -68.667 -17 -114 -17c-29.333 0 -57 3.16699 -83 9.5
s-51 17.5 -75 33.5s-43.167 36.667 -57.5 62s-21.5 52.666 -21.5 81.999c0 30.667 9.33301 60.667 28 90c23.333 36 62.333 73 117 111c-30 34 -50.667 62.667 -62 86s-17 44.666 -17 63.999c0 48.667 20.333 86 61 112c34.667 22 77.667 33 129 33
c24 0 44.5 -1.83301 61.5 -5.5s34.833 -11.334 53.5 -23.001s33.834 -27 45.501 -46s17.5 -39.833 17.5 -62.5c0 -23.333 -4.33301 -43.666 -13 -60.999c-10.667 -21.333 -33.667 -47.666 -69 -78.999zM244.998 293c-14 -11.333 -24.332 -24.5 -30.999 -39.5
s-10 -32.167 -10 -51.5c0 -32.667 9.66699 -59.667 29 -81s45 -32 77 -32c18.667 0 35.167 3.83301 49.5 11.5s27.166 19.5 38.499 35.5zM332.999 526c0 12.667 -4.33105 23.334 -12.998 32.001s-19.334 13 -32.001 13c-10 0 -18.667 -3 -26 -9s-11 -14.333 -11 -25
c0 -10 5.33301 -22 16 -36c1.33301 -2 11 -13 29 -33c11.333 9.33301 19.666 17.666 24.999 24.999c8 10.667 12 21.667 12 33z" />
    <glyph glyph-name="quotesingle" unicode="'" horiz-adv-x="200" 
d="M59 427v231h82v-231h-82z" />
    <glyph glyph-name="parenleft" unicode="(" horiz-adv-x="280" 
d="M191 -121c-43.333 55.333 -76.5 117.336 -99.5 186.003s-34.5 139 -34.5 211c0 69.333 11.833 139.666 35.5 210.999s56.5 133.666 98.5 186.999h81c-32 -58.667 -56.333 -121.834 -73 -189.501s-25 -135.5 -25 -203.5c0 -143.333 32.667 -277.333 98 -402h-81z" />
    <glyph glyph-name="parenright" unicode=")" horiz-adv-x="280" 
d="M93 674c42 -53.333 74.833 -115.5 98.5 -186.5s35.5 -141.5 35.5 -211.5c0 -72 -11.5 -142.333 -34.5 -211s-56.167 -130.667 -99.5 -186h-81c65.333 124.667 98 258.667 98 402c0 69.333 -8.16699 137.333 -24.5 204s-40.833 129.667 -73.5 189h81z" />
    <glyph glyph-name="asterisk" unicode="*" horiz-adv-x="420" 
d="M167 510l-1 7c-19.333 6 -39.333 9 -60 9c-10.667 0 -23.334 -1.66699 -38.001 -5l33 93c8.66699 -10.667 19.834 -20 33.501 -28s28.5 -14.667 44.5 -20l6 3c0 18 -1.83301 33.833 -5.5 47.5s-10.5 27.5 -20.5 41.5h100c-8 -10.667 -13.833 -24 -17.5 -40
s-5.5 -31.667 -5.5 -47l4 -5c24.667 8 42.334 15.833 53.001 23.5s19 17.167 25 28.5l33 -91l-27 2c-10 0 -20.167 -1.16699 -30.5 -3.5s-23.5 -5.83301 -39.5 -10.5l12 -15c11.333 -13.333 20.666 -22.666 27.999 -27.999c10 -8 22 -14.333 36 -19l-80 -58
c-1.33301 15.333 -5 29.666 -11 42.999s-14.333 27.333 -25 42l-6 2c-9.33301 -13.333 -17 -27 -23 -41s-10.333 -29 -13 -45l-79 57c14.667 5.33301 26.167 10.833 34.5 16.5s17.5 14.167 27.5 25.5z" />
    <glyph glyph-name="plus" unicode="+" horiz-adv-x="600" 
d="M257 277v191h85v-191h191v-86h-191v-191h-85v191h-191v86h191z" />
    <glyph glyph-name="comma" unicode="," horiz-adv-x="280" 
d="M40 -122c23.333 21.333 41.333 40.001 54 56.001c17.333 22 29.333 43.667 36 65c-23.333 0 -43.333 8.33301 -60 25s-25 36.667 -25 60c0 26 9.33301 48 28 66s41 27 67 27c27.333 0 49.833 -9.83301 67.5 -29.5s26.5 -43.5 26.5 -71.5
c0 -24.667 -7.33301 -52.334 -22 -83.001c-12 -24.667 -27.667 -49 -47 -73c-12 -15.333 -20.333 -25 -25 -29c-12 -10.667 -30 -16 -54 -16z" />
    <glyph glyph-name="hyphen" unicode="-" horiz-adv-x="440" 
d="M160 301h-14c-10 0 -17 -1.33301 -21 -4s-9.83301 -9.5 -17.5 -20.5l-16.5 -23.5l-51 -73c36.667 10 77 15 121 15h119h14c10 0 17 1.33301 21 4s9.83301 9.5 17.5 20.5l16.5 23.5l51 73c-36.667 -10 -77 -15 -121 -15h-119z" />
    <glyph glyph-name="period" unicode="." horiz-adv-x="280" 
d="M45 79c0 27.333 9.16797 50.499 27.501 69.499s41.166 28.5 68.499 28.5c26 0 48 -9 66 -27s27 -40.333 27 -67c0 -27.333 -9.5 -50.166 -28.5 -68.499s-42.167 -27.5 -69.5 -27.5c-24.667 0 -46 9 -64 27s-27 39.667 -27 65z" />
    <glyph glyph-name="slash" unicode="/" horiz-adv-x="440" 
d="M319 670h117l-313 -796h-120z" />
    <glyph glyph-name="zero" unicode="0" horiz-adv-x="560" 
d="M79 95c-20.667 30.667 -36.1699 67 -46.5029 109s-15.5 83.333 -15.5 124c0 40 4.5 79.333 13.5 118s23.167 74.667 42.5 108c22.667 36.667 52.667 65.834 90 87.501s77.333 32.5 120 32.5c80.667 0 145.334 -33.667 194.001 -101c24 -33.333 41 -69.5 51 -108.5
s15 -82.167 15 -129.5c0 -44 -4.66699 -85.333 -14 -124s-24.666 -74.334 -45.999 -107.001c-23.333 -35.333 -52.666 -63.666 -87.999 -84.999s-73.333 -32 -114 -32c-40 0 -78 9.66699 -114 29s-65.333 45.666 -88 78.999zM366.997 348
c0 52.667 -3.66797 94.334 -11.001 125.001c-13.333 56 -38 84 -74 84c-16 0 -31 -8 -45 -24c-11.333 -12.667 -20.666 -29 -27.999 -49s-12.166 -44.333 -14.499 -73s-3.5 -60 -3.5 -94c0 -48.667 4.33301 -90.334 13 -125.001c14 -56.667 38.333 -85 73 -85
c35.333 0 60.666 33 75.999 99c9.33301 40.667 14 88 14 142z" />
    <glyph glyph-name="one" unicode="1" horiz-adv-x="560" 
d="M375 138c0 -37.333 1.66699 -62.667 5 -76c6.66699 -27.333 22 -47 46 -59l-287 -3c26.667 18 44 39 52 63c5.33301 16 8 42.667 8 80v342l-99 26c62 20 112 40.667 150 62c49.333 27.333 90 61 122 101z" />
    <glyph glyph-name="two" unicode="2" horiz-adv-x="560" 
d="M101 641c54 22 112.668 33.001 176.001 33.001c54 0 101 -13.667 141 -41c45.333 -31.333 68 -73 68 -125c0 -30.667 -8.66699 -65.334 -26 -104.001c-6 -13.333 -23.333 -45.666 -52 -96.999l-117 -184l-12 -18c10.667 -2.66699 23.167 -4.66699 37.5 -6
s28.166 -2 41.499 -2c32.667 0 61.5 3.66699 86.5 11s55.5 19.666 91.5 36.999l-46 -145h-473l153 251l77 140c12 21.333 21 39.333 27 54c10 23.333 15 43 15 59c0 20 -6.66699 36 -20 48s-30.333 18 -51 18s-43.5 -4.5 -68.5 -13.5s-55.167 -26.5 -90.5 -52.5z" />
    <glyph glyph-name="three" unicode="3" horiz-adv-x="560" 
d="M129 407l20.999 -0.00195312c41.333 0 72.666 5 93.999 15c30.667 14.667 46 40.334 46 77.001c0 26.667 -9.33301 46.667 -28 60s-41.667 20 -69 20c-20 0 -43.333 -4.33301 -70 -13c-20.667 -6.66699 -42.667 -16 -66 -28l33 112c29.333 8 56.833 14 82.5 18
s52.834 6 81.501 6c27.333 0 52.5 -2.5 75.5 -7.5s46 -13.833 69 -26.5s42 -29.5 57 -50.5s22.5 -44.5 22.5 -70.5c0 -32.667 -10.5 -61.5 -31.5 -86.5s-47.5 -41.833 -79.5 -50.5c44.667 -10 81 -30.5 109 -61.5s42 -68.833 42 -113.5c0 -72.667 -33 -129 -99 -169
c-55.333 -34 -121.666 -51 -198.999 -51c-24 0 -48.833 1.66699 -74.5 5s-51.5 8 -77.5 14l-28 121c50.667 -28 102.334 -42 155.001 -42c36.667 0 67.667 11.333 93 34s38 52.334 38 89.001c0 35.333 -13.333 63.333 -40 84c-15.333 10.667 -31.333 17.667 -48 21
s-37.334 5 -62.001 5h-33h-14v89z" />
    <glyph glyph-name="four" unicode="4" 
d="M-25 142l277 516h208v-428c23.333 0 44 2.5 62 7.5s35 14.167 51 27.5l-37 -123h-77v-10c0 -35.333 1.83301 -60.5 5.5 -75.5s15.167 -32.833 34.5 -53.5l-263 -3c16 12 27.833 25.833 35.5 41.5s11.5 43.167 11.5 82.5v18h-308zM283 535l-163 -305h163v305z" />
    <glyph glyph-name="five" unicode="5" horiz-adv-x="560" 
d="M43 124c24 -13.333 50 -24.168 78 -32.501s55 -12.5 81 -12.5c40 0 72.833 11.833 98.5 35.5s38.5 55.5 38.5 95.5c0 45.333 -13.833 79.166 -41.5 101.499s-65.167 33.5 -112.5 33.5c-19.333 0 -39.5 -1.66699 -60.5 -5s-41.167 -7.66602 -60.5 -12.999l17 331h397v-131
c-18.667 14 -42.334 23.333 -71.001 28s-59 7 -91 7c-12 0 -27.667 -0.833008 -47 -2.5s-31 -2.5 -35 -2.5l-6 -126c18 5.33301 38.333 8 61 8c68.667 0 125.667 -19 171 -57c48.667 -41.333 73 -95.666 73 -162.999c0 -32.667 -7.83301 -64.5 -23.5 -95.5
s-36.667 -56.667 -63 -77s-56.166 -35.333 -89.499 -45s-68 -14.5 -104 -14.5c-34.667 0 -71.667 3 -111 9c-9.33301 1.33301 -31.333 5.33301 -66 12z" />
    <glyph glyph-name="six" unicode="6" horiz-adv-x="560" 
d="M457 591c-172.667 -46.667 -258.998 -158 -258.998 -334c0 -42.667 5.66699 -78.334 17 -107.001c16.667 -42.667 42.667 -64 78 -64c28.667 0 49.667 15 63 45c10 22.667 15 50.334 15 83.001c0 35.333 -6.33301 65 -19 89c-16.667 30.667 -41.334 46 -74.001 46
c-15.333 0 -29 -3.33301 -41 -10l70 99l34 2c61.333 0 110.666 -20.333 147.999 -61s56 -92 56 -154c0 -72 -24.167 -129.667 -72.5 -173s-109.166 -65 -182.499 -65c-84 0 -149.833 25.667 -197.5 77s-71.5 119 -71.5 203c0 59.333 12.167 113.5 36.5 162.5
s60.166 92.833 107.499 131.5c43.333 36 93 63.833 149 83.5s116.333 29.5 181 29.5z" />
    <glyph glyph-name="seven" unicode="7" horiz-adv-x="560" 
d="M548 658l-195.001 -514.998l-16.5 -44c-5.66699 -15.333 -8.5 -29 -8.5 -41c0 -10.667 2.83301 -20.834 8.5 -30.501s13.167 -17.834 22.5 -24.501l-259 -3l226 551c-17.333 4 -37.166 7 -59.499 9s-42.833 3 -61.5 3c-38 0 -70.667 -3.16699 -98 -9.5
s-55 -18.5 -83 -36.5l48 141h476z" />
    <glyph glyph-name="eight" unicode="8" horiz-adv-x="560" 
d="M130 334c-31.333 18 -55.333 39.3379 -72 64.0049c-18.667 27.333 -28 58.333 -28 93c0 30.667 7.33301 58.667 22 84s34.667 45.166 60 59.499s52.5 24.5 81.5 30.5s59.5 9 91.5 9c27.333 0 54.333 -2.5 81 -7.5s50.334 -13.167 71.001 -24.5
c26.667 -14.667 48.167 -34.5 64.5 -59.5s24.5 -52.5 24.5 -82.5c0 -30.667 -8.83301 -57.334 -26.5 -80.001s-41.5 -39.334 -71.5 -50.001c40 -19.333 70 -42 90 -68c22.667 -30 34 -66 34 -108c0 -70 -27.667 -123.333 -83 -160c-47.333 -31.333 -108 -47 -182 -47
c-34.667 0 -66.5 2.83301 -95.5 8.5s-58 16.167 -87 31.5s-52 36.166 -69 62.499s-25.5 56.166 -25.5 89.499c0 38 10.667 70.167 32 96.5s50.666 45.833 87.999 58.5zM201 289.005c-34 -20 -51 -50.667 -51 -92c0 -33.333 11.333 -61 34 -83s51 -33 85 -33
c26 0 49.167 7 69.5 21s30.5 33.667 30.5 59c0 24 -12.333 45 -37 63c-10.667 8 -33.667 20.333 -69 37zM352 410.005c10 7.33301 17.833 17.501 23.5 30.501s8.5 26.167 8.5 39.5c0 29.333 -9.16699 54.166 -27.5 74.499s-42.5 30.5 -72.5 30.5
c-20 0 -37.5 -5.33301 -52.5 -16s-22.5 -26 -22.5 -46c0 -24 14.333 -45.667 43 -65c10 -6.66699 35.333 -19 76 -37z" />
    <glyph glyph-name="nine" unicode="9" horiz-adv-x="560" 
d="M102 63c172.667 46.667 258.995 159.001 258.995 337.001c0 43.333 -5.66699 80 -17 110c-16 42.667 -41.667 64 -77 64c-29.333 0 -50.666 -15 -63.999 -45c-10 -22.667 -15 -50.667 -15 -84c0 -36 6.33301 -66 19 -90c16.667 -31.333 41.334 -47 74.001 -47
c15.333 0 29 3.33301 41 10l-70 -100l-22 -2c-30 0 -57 3.66699 -81 11s-46 20.333 -66 39c-23.333 20.667 -40.666 45.5 -51.999 74.5s-17 59.833 -17 92.5c0 72.667 24.333 131 73 175s109.334 66 182.001 66c83.333 0 149 -26 197 -78s72 -120.333 72 -205
c0 -60 -12.167 -114.833 -36.5 -164.5s-60.166 -93.834 -107.499 -132.501c-43.333 -36.667 -92 -65 -146 -85s-109.333 -30 -166 -30l-18 1z" />
    <glyph glyph-name="colon" unicode=":" horiz-adv-x="280" 
d="M46 342c0 27.333 9.16797 50.499 27.501 69.499s41.166 28.5 68.499 28.5c26 0 48 -9 66 -27s27 -40.333 27 -67c0 -27.333 -9.5 -50.166 -28.5 -68.499s-42.167 -27.5 -69.5 -27.5c-24.667 0 -46 9 -64 27s-27 39.667 -27 65zM46.001 78.999
c0 27.333 9.16797 50.499 27.501 69.499s41.166 28.5 68.499 28.5c26 0 48 -9 66 -27s27 -40.333 27 -67c0 -27.333 -9.5 -50.166 -28.5 -68.499s-42.167 -27.5 -69.5 -27.5c-24.667 0 -46 9 -64 27s-27 39.667 -27 65z" />
    <glyph glyph-name="semicolon" unicode=";" horiz-adv-x="280" 
d="M36 -122c23.333 21.333 41.333 40.001 54 56.001c17.333 22 29.333 43.667 36 65c-23.333 0 -43.333 8.33301 -60 25s-25 36.667 -25 60c0 26 9.33301 48 28 66s41 27 67 27c27.333 0 49.833 -9.83301 67.5 -29.5s26.5 -43.5 26.5 -71.5
c0 -24.667 -7.33301 -52.334 -22 -83.001c-12 -24.667 -27.667 -49 -47 -73c-12 -15.333 -20.333 -25 -25 -29c-12 -10.667 -30 -16 -54 -16zM41 342.001c0 27.333 9.16797 50.499 27.501 69.499s41.166 28.5 68.499 28.5c26 0 48 -9 66 -27s27 -40.333 27 -67
c0 -27.333 -9.5 -50.166 -28.5 -68.499s-42.167 -27.5 -69.5 -27.5c-24.667 0 -46 9 -64 27s-27 39.667 -27 65z" />
    <glyph glyph-name="less" unicode="&#x3c;" horiz-adv-x="600" 
d="M549 0l-498 199v71l498 200v-74l-414 -162l414 -160v-74z" />
    <glyph glyph-name="equal" unicode="=" horiz-adv-x="600" 
d="M533 349v-86h-467v86h467zM533 205v-86h-467v86h467z" />
    <glyph glyph-name="greater" unicode="&#x3e;" horiz-adv-x="600" 
d="M465 234l-414 162v74l498 -200v-71l-498 -199v74z" />
    <glyph glyph-name="question" unicode="?" horiz-adv-x="460" 
d="M117 209l-2.99805 36.002c0 34.667 13 67 39 97c56.667 65.333 85 108.666 85 129.999c0 28 -10.5 50 -31.5 66s-46.5 24 -76.5 24c-16.667 0 -33.834 -3 -51.501 -9s-34.834 -14 -51.501 -24l41 123c18.667 8.66699 37.667 14.5 57 17.5s42 4.5 68 4.5
c32 0 60.667 -3.33301 86 -10s49.333 -18.334 72 -35.001c48 -36.667 72 -83 72 -139c0 -58.667 -29.667 -110.667 -89 -156s-89 -79 -89 -101l4 -24h-132zM97.002 79.002c0 27.333 9.16797 50.499 27.501 69.499s41.166 28.5 68.499 28.5c26 0 48 -9 66 -27
s27 -40.333 27 -67c0 -27.333 -9.5 -50.166 -28.5 -68.499s-42.167 -27.5 -69.5 -27.5c-24.667 0 -46 9 -64 27s-27 39.667 -27 65z" />
    <glyph glyph-name="at" unicode="@" horiz-adv-x="780" 
d="M506 286c-2.66699 -4.66699 -5.83398 -12.1689 -9.50098 -22.502s-5.5 -18.166 -5.5 -23.499s2.16699 -9.5 6.5 -12.5s9.83301 -4.5 16.5 -4.5c17.333 0 35.666 6 54.999 18c14.667 9.33301 29.334 22 44.001 38c32 37.333 48 78 48 122
c0 63.333 -25.667 112.666 -77 147.999c-24 18 -51.833 32 -83.5 42s-63.167 15 -94.5 15c-81.333 0 -150.833 -27.167 -208.5 -81.5s-86.5 -119.166 -86.5 -194.499c0 -79.333 29 -144.833 87 -196.5s129.667 -77.5 215 -77.5c54 0 103.667 10.333 149 31
s81.666 51.334 108.999 92.001h66c-23.333 -62.667 -66.333 -111 -129 -145c-57.333 -31.333 -123.333 -47 -198 -47c-50 0 -96.667 7.33301 -140 22s-83.166 37.834 -119.499 69.501s-64.833 69.667 -85.5 114s-31 90.166 -31 137.499c0 46 9.33301 89.833 28 131.5
s45.667 79.167 81 112.5s75.833 58.333 121.5 75s94.5 25 146.5 25c41.333 0 80.833 -5.5 118.5 -16.5s72.334 -28.5 104.001 -52.5s57 -53.667 76 -89s28.5 -72.333 28.5 -111c0 -68 -24 -127 -72 -177c-50 -52.667 -111 -79 -183 -79c-18.667 0 -34.834 4 -48.501 12
s-20.5 20.333 -20.5 37c-17.333 -13.333 -35.166 -24.333 -53.499 -33s-37.5 -13 -57.5 -13c-34.667 0 -61.167 10.833 -79.5 32.5s-27.5 49.167 -27.5 82.5c0 57.333 19.333 112 58 164c42.667 57.333 93.667 86 153 86c14 0 26.667 -2.16699 38 -6.5
s22.333 -11.5 33 -21.5l6 13h111zM443 426.998c0 10.667 -5 16 -15 16c-24 0 -50 -27.667 -78 -83c-25.333 -50 -38 -88.667 -38 -116c0 -14 6 -21 18 -21c18.667 0 42.667 29.667 72 89c27.333 56 41 94.333 41 115z" />
    <glyph glyph-name="A" unicode="A" horiz-adv-x="720" 
d="M217 199l-24.001 -68.001l-11.5 -38c-4.33301 -14.667 -6.5 -26 -6.5 -34c0 -10 1.83301 -18.5 5.5 -25.5s13.834 -17.167 30.501 -30.5l-205 -3c18 18 32 36 42 54c8 14 17 35.333 27 64l138 399c6 16.667 10.333 29.667 13 39c6 19.333 9 33 9 41
c0 12.667 -3.33301 23.5 -10 32.5s-16 17.5 -28 25.5l245 3l189 -515c14 -36.667 21.333 -56 22 -58c12 -26 33.333 -53.333 64 -82v-3h-302c13.333 10.667 23.5 20.334 30.5 29.001s10.5 20.334 10.5 35.001c0 9.33301 -0.333008 15.666 -1 18.999l-7 19l-33 97h-198z
M312.999 488.999l-67 -197h136z" />
    <glyph glyph-name="B" unicode="B" 
d="M317 658c33.333 0 60.001 -1.83008 80.001 -5.49707s39.667 -12.834 59 -27.501c22 -17.333 38.667 -36 50 -56s17 -42.667 17 -68c0 -32 -9.5 -58.5 -28.5 -79.5s-44.833 -36.833 -77.5 -47.5c42.667 -6 77.334 -25 104.001 -57s40 -70 40 -114
c0 -62 -23.667 -113.667 -71 -155c-24 -20.667 -51.333 -34.334 -82 -41.001c-22 -4.66699 -54 -7 -96 -7h-293c17.333 12 28.666 27 33.999 45s8 39.667 8 65v33v373v33c0 33.333 -3.33301 57.166 -10 71.499s-17.334 25.833 -32.001 34.5zM246.001 406.003
c9.33301 -2.66699 15.668 -4 19.001 -4c22 0 39.667 8.66699 53 26s20 37.333 20 60c0 21.333 -5.33301 39.5 -16 54.5s-26.334 22.5 -47.001 22.5c-9.33301 0 -19 -2 -29 -6v-153zM246.003 106.003c12 -8 26.667 -12 44 -12c30.667 0 54 11.333 70 34c14 20 21 46 21 78
c0 73.333 -37 110 -111 110h-24v-210z" />
    <glyph glyph-name="C" unicode="C" horiz-adv-x="660" 
d="M565 521c-51.333 34.667 -107 51.999 -167 51.999c-63.333 0 -109.666 -23.333 -138.999 -70c-24.667 -39.333 -37 -93 -37 -161c0 -73.333 17.333 -132.333 52 -177c38 -48.667 92.667 -73 164 -73c36 0 73.333 6.33301 112 19c31.333 10 66 25.333 104 46l-50 -146
c-32 -8.66699 -63.5 -14.834 -94.5 -18.501s-65.833 -5.5 -104.5 -5.5c-55.333 0 -102.666 5.66699 -141.999 17c-46 13.333 -88.167 36.333 -126.5 69s-67.5 71.334 -87.5 116.001s-30 93 -30 145c0 47.333 9.5 93.333 28.5 138s46.167 82.334 81.5 113.001
s77.166 53.167 125.499 67.5s99.166 21.5 152.499 21.5l151 -13z" />
    <glyph glyph-name="D" unicode="D" horiz-adv-x="680" 
d="M58 450l0.00195312 33.999v16v15v13v12c0 13.333 -0.333008 25.666 -1 36.999s-2 20.333 -4 27c-4.66699 24 -17 41 -37 51l212 3c78.667 0 130.667 -1.66699 156 -5c55.333 -7.33301 103 -25 143 -53c44 -30.667 77.5 -70.167 100.5 -118.5s34.5 -100.166 34.5 -155.499
c0 -49.333 -10.333 -97.166 -31 -143.499s-50.334 -85 -89.001 -116s-85.667 -50.833 -141 -59.5c-30 -4.66699 -83.333 -7 -160 -7h-225c17.333 12 28.666 27 33.999 45s8 39.667 8 65v33v307zM243.002 106.999c7.33301 -2.66699 16 -4.66699 26 -6s19.333 -2 28 -2
c32 0 58.5 5.5 79.5 16.5s39.833 30.167 56.5 57.5c12 20.667 20.833 44.667 26.5 72s8.5 54.333 8.5 81c0 62 -11 112.667 -33 152c-27.333 49.333 -69.333 74 -126 74c-9.33301 0 -19.333 -0.5 -30 -1.5s-22.667 -2.83301 -36 -5.5v-438z" />
    <glyph glyph-name="E" unicode="E" horiz-adv-x="500" 
d="M240 111c14 -5.33301 30.001 -9.16699 48.001 -11.5s37 -3.5 57 -3.5c32.667 0 59.334 3.33301 80.001 10c26 8.66699 48 23.667 66 45h5l-40 -151h-443c16.667 12 28.334 28.333 35.001 49c4.66699 15.333 7 35.333 7 60v33v374v33c0 33.333 -3.33301 57.166 -10 71.499
s-17.334 25.833 -32.001 34.5l350 3h11c14 0 24.333 1.66699 31 5l3 -145c-11.333 18 -25.833 29.5 -43.5 34.5s-40.834 7.5 -69.501 7.5h-23h-32v-162h93c17.333 0 29.666 1.66699 36.999 5h5v-140h-5c-4 12.667 -11.5 21.834 -22.5 27.501s-31.167 8.5 -60.5 8.5h-14h-33
v-188z" />
    <glyph glyph-name="F" unicode="F" horiz-adv-x="420" 
d="M242 146c0 -38 1.66992 -63.998 5.00293 -77.998c6 -24.667 19 -46.334 39 -65.001l-271 -3c17.333 12 28.666 27 33.999 45s8 39.667 8 65v33v373v33c0 33.333 -3.33301 57.166 -10 71.499s-17.334 25.833 -32.001 34.5l350 3c7.33301 0 14.666 0.166992 21.999 0.5
s14 2.16602 20 5.49902l3 -145c-10.667 17.333 -24.667 28.5 -42 33.5s-39.333 7.5 -66 7.5h-28h-32v-162h73c17.333 0 29.666 1.66699 36.999 5h5v-140h-5c-5.33301 16.667 -15.166 26.834 -29.499 30.501s-34.5 5.5 -60.5 5.5l-20 1v-154z" />
    <glyph glyph-name="G" unicode="G" horiz-adv-x="620" 
d="M607 18c-37.333 -10 -72.8359 -17.665 -106.503 -22.998s-69.167 -8 -106.5 -8c-109.333 0 -198 28.667 -266 86c-73.333 61.333 -110 146 -110 254c0 105.333 35.333 189.5 106 252.5s159.334 94.5 266.001 94.5c30 0 56.333 -1.33301 79 -4s48 -8 76 -16v-139h-5
c-16 15.333 -38.167 28 -66.5 38s-55.166 15 -80.499 15c-62.667 0 -110 -20 -142 -60c-29.333 -36.667 -44 -87.334 -44 -152.001c0 -73.333 13 -133 39 -179c32.667 -57.333 82.334 -86 149.001 -86c18 0 31.333 1 40 3v148c0 26.667 -2 46.167 -6 58.5
s-14.667 25.166 -32 38.499l210 3v-324z" />
    <glyph glyph-name="H" unicode="H" horiz-adv-x="660" 
d="M239 143v-33c0 -33.333 3.5 -57.166 10.5 -71.499s17.5 -26.166 31.5 -35.499l-269 -3c17.333 12 28.666 27 33.999 45s8 39.667 8 65v33v372v33c0 33.333 -3.5 57.166 -10.5 71.499s-17.5 26.166 -31.5 35.499l269 3c-17.333 -12 -28.666 -26.167 -33.999 -42.5
s-8 -36.833 -8 -61.5v-39v-114h179v114v33c0 33.333 -3.5 57.166 -10.5 71.499s-17.5 26.166 -31.5 35.499l269 3c-17.333 -12 -28.666 -27 -33.999 -45s-8 -39.667 -8 -65v-33v-372v-33c0 -33.333 3.5 -57.166 10.5 -71.499s17.5 -26.166 31.5 -35.499l-269 -3
c17.333 12 28.666 27 33.999 45s8 39.667 8 65v33v157h-179v-157z" />
    <glyph glyph-name="I" unicode="I" horiz-adv-x="300" 
d="M242 142l-0.00292969 -32.998c0 -33.333 3.33301 -57 10 -71s17.334 -25.667 32.001 -35l-269 -3c16.667 12 28.334 28.333 35.001 49c4.66699 15.333 7 35.333 7 60v33v373v33c0 33.333 -3.5 57.166 -10.5 71.499s-17.5 26.166 -31.5 35.499l269 3
c-17.333 -12 -28.666 -27 -33.999 -45s-8 -39.667 -8 -65v-33v-373z" />
    <glyph glyph-name="J" unicode="J" horiz-adv-x="300" 
d="M59 515l-0.00195312 33.0029c0 33.333 -3.5 57.166 -10.5 71.499s-17.5 26.166 -31.5 35.499l269 3c-17.333 -12 -28.666 -27 -33.999 -45s-8 -39.667 -8 -65v-33v-488c0 -45.333 -4.66699 -78.333 -14 -99c-11.333 -26 -35.333 -50.333 -72 -73
c-30.667 -19.333 -59 -34 -85 -44c-33.333 -13.333 -64.333 -20 -93 -20c22.667 30 41.334 63 56.001 99c11.333 28 18 54.667 20 80s3 61.666 3 108.999v436z" />
    <glyph glyph-name="K" unicode="K" horiz-adv-x="660" 
d="M607 70c8.66699 -14.667 17.332 -27.166 25.999 -37.499s19.334 -20.166 32.001 -29.499c-15.333 0 -30 -0.166992 -44 -0.5s-27.333 -0.5 -40 -0.5c-74.667 0 -124 6.16699 -148 18.5s-50.667 43.5 -80 93.5l-104 179v-150v-33c0 -33.333 3.5 -57.166 10.5 -71.499
s17.5 -26.166 31.5 -35.499l-269 -3v3c17.333 10.667 28.666 25 33.999 43s8 39.333 8 64v33v372v33c0 33.333 -3.5 57.166 -10.5 71.499s-17.5 26.166 -31.5 35.499l269 3c-17.333 -12 -28.666 -27 -33.999 -45s-8 -39.667 -8 -65v-33v-153l125 159
c16 19.333 25.667 31.666 29 36.999c11.333 16.667 17 31 17 43c0 11.333 -4 21.666 -12 30.999s-17.333 17 -28 23l245 3l-221 -267z" />
    <glyph glyph-name="L" unicode="L" horiz-adv-x="500" 
d="M243 113c14.667 -6.66699 30.665 -11.165 47.998 -13.498s36.333 -3.5 57 -3.5c29.333 0 54.833 3.16699 76.5 9.5s43.5 17.833 65.5 34.5l-38 -140h-436c16.667 12 28.334 28.333 35.001 49c4.66699 15.333 7 35.333 7 60v33v373v33c0 33.333 -3.5 57.166 -10.5 71.499
s-17.5 26.166 -31.5 35.499l269 3c-17.333 -12 -28.666 -27 -33.999 -45s-8 -40 -8 -66v-33v-401z" />
    <glyph glyph-name="M" unicode="M" horiz-adv-x="880" 
d="M561 655l238.999 3.00098c-16 -16.667 -24.667 -26 -26 -28c-6.66699 -9.33301 -10 -20 -10 -32c0.666992 -4.66699 1 -8.33398 1 -11.001l47 -433c4 -39.333 8.33301 -66.666 13 -81.999c8 -28.667 22 -51.667 42 -69l-264 -3c10 11.333 18.167 23.5 24.5 36.5
s8.83301 25.5 7.5 37.5l-36 351l-133 -436c-14.667 3.33301 -30.167 9.16602 -46.5 17.499s-32.5 17.833 -48.5 28.5c-20 13.333 -36.333 31.333 -49 54c-6 11.333 -15.667 34.666 -29 69.999l-98 266l-37 -345c-1.33301 -16.667 1.83398 -31.667 9.50098 -45
s19.167 -24 34.5 -32l-197 -3c18.667 16.667 32 38.667 40 66c4 13.333 8 39 12 77l48 420c0.666992 5.33301 1 9.33301 1 12c0 30.667 -13 57.334 -39 80.001l230 3l148 -386z" />
    <glyph glyph-name="N" unicode="N" horiz-adv-x="700" 
d="M633 -21c-16.667 0 -37.333 4.66699 -62 14c-16 6 -36 15 -60 27s-44.667 25.667 -62 41c-14 12 -40 43 -78 93l-192 256l-3 -264c0 -38 2.16699 -66.5 6.5 -85.5s16.833 -38.167 37.5 -57.5l-193 -3c20 20 33 42.333 39 67c4 16 6 42.333 6 79v345c0 42 -3 72.5 -9 91.5
s-22.333 43.167 -49 72.5l208 3l307 -405v259c0 38 -1.66699 64 -5 78c-5.33301 24 -18.333 45.667 -39 65l192 3c-19.333 -20 -31.5 -40.333 -36.5 -61s-7.5 -49 -7.5 -85v-533z" />
    <glyph glyph-name="O" unicode="O" horiz-adv-x="780" 
d="M401 674c108.667 0 195.667 -29.334 261 -88.001c68.667 -61.333 103 -146 103 -254c0 -105.333 -37.333 -190 -112 -254c-70.667 -60.667 -158.667 -91 -264 -91c-104.667 0 -191 31 -259 93c-70 64 -105 147.667 -105 251c0 102.667 37.333 186.334 112 251.001
c71.333 61.333 159.333 92 264 92zM266 172.999c15.333 -26 34.668 -46.834 58.001 -62.501s49 -23.5 77 -23.5c26 0 50.667 6.33301 74 19s43 29.667 59 51c14 18.667 23.667 39.334 29 62.001s8 48.667 8 78c0 70 -13 130.333 -39 181c-32.667 64 -80.334 96 -143.001 96
c-54.667 0 -97.667 -23 -129 -69c-27.333 -40.667 -41 -89.667 -41 -147c0 -28.667 4.33301 -60.5 13 -95.5s20 -64.833 34 -89.5z" />
    <glyph glyph-name="P" unicode="P" horiz-adv-x="520" 
d="M233 145c0 -37.333 1.66797 -62.9971 5.00098 -76.9971c6 -24.667 19 -46.334 39 -65.001l-267 -3c17.333 12 28.666 27 33.999 45s8 39.667 8 65v33v372v33c0 33.333 -3.5 57.166 -10.5 71.499s-17.5 26.166 -31.5 35.499l236 3c46 0 81.667 -1.16699 107 -3.5
s49.333 -9.16602 72 -20.499c63.333 -31.333 95 -83.333 95 -156c0 -66.667 -25 -117.334 -75 -152.001c-43.333 -30 -100 -45 -170 -45h-13h-11c-5.33301 1.33301 -9.33301 2 -12 2c31.333 13.333 55.333 32.5 72 57.5s25 54.5 25 88.5c0 39.333 -7.33301 70 -22 92
c-17.333 25.333 -44.333 38 -81 38v-414z" />
    <glyph glyph-name="Q" unicode="Q" horiz-adv-x="720" 
d="M353 -13c-95.333 0 -173.834 33.8311 -235.501 101.498s-92.5 149.167 -92.5 244.5c0 101.333 33.167 183.5 99.5 246.5s150.833 94.5 253.5 94.5c46.667 0 89.834 -7.16699 129.501 -21.5s75.167 -37.166 106.5 -68.499s55.833 -69.333 73.5 -114
s26.5 -89.667 26.5 -135c0 -52.667 -10.167 -103.167 -30.5 -151.5s-49.833 -88.833 -88.5 -121.5c55.333 -54 94.333 -89 117 -105c48.667 -34.667 96.667 -52 144 -52c-22 -19.333 -48.667 -35.166 -80 -47.499s-61.333 -18.5 -90 -18.5c-42 0 -90 18 -144 54
c-23.333 15.333 -65 48.333 -125 99zM528.999 284.998c0 31.333 -2.66699 61.999 -8 91.999s-14 59.333 -26 88c-14.667 35.333 -31 61.333 -49 78c-22.667 21.333 -51 32 -85 32c-52.667 0 -91.667 -21 -117 -63c-20.667 -34 -31 -79.333 -31 -136
c0 -70.667 11.667 -132 35 -184c31.333 -70.667 78 -106 140 -106c50.667 0 88 21.667 112 65c19.333 34.667 29 79.334 29 134.001z" />
    <glyph glyph-name="R" unicode="R" horiz-adv-x="620" 
d="M240 143v-33c0 -33.333 3.5 -57.166 10.5 -71.499s17.5 -26.166 31.5 -35.499l-269 -3c17.333 12 28.666 27 33.999 45s8 39.667 8 65v33v372v33c0 33.333 -3.5 57.166 -10.5 71.499s-17.5 26.166 -31.5 35.499l296 3c34.667 0 60.5 -1 77.5 -3s35.833 -8.66699 56.5 -20
c59.333 -32 89 -82.667 89 -152c0 -36.667 -10.833 -68.334 -32.5 -95.001s-50.5 -47.667 -86.5 -63l119 -199c14 -24 28.833 -46.167 44.5 -66.5s32.834 -38.166 51.501 -53.499l-138 -9c-30 0 -50.667 1.33301 -62 4c-28 6.66699 -52 27.667 -72 63l-116 218v-139z
M240 561l-0.000976562 -226c30.667 5.33301 56.334 20 77.001 44s31 51.667 31 83c0 17.333 -3.16699 33.333 -9.5 48s-16.5 27 -30.5 37c-7.33301 4.66699 -16.333 8.16699 -27 10.5s-21 3.5 -31 3.5h-10z" />
    <glyph glyph-name="S" unicode="S" horiz-adv-x="520" 
d="M10 167c28 -22.667 61.1699 -41.332 99.5029 -55.999s75.166 -22 110.499 -22c28 0 51.333 4.66699 70 14c24 12 36 31 36 57c0 31.333 -26.333 60.333 -79 87c-87.333 44 -136.333 70 -147 78c-52.667 40 -79 92 -79 156c0 61.333 24.667 109.666 74 144.999
c23.333 16.667 50.166 28.834 80.499 36.501s61.5 11.5 93.5 11.5c60 0 116 -10 168 -30v-117c-23.333 15.333 -46.333 27 -69 35s-46.667 12 -72 12c-22.667 0 -42.834 -5.16699 -60.501 -15.5s-26.5 -26.5 -26.5 -48.5c0 -20.667 11 -38.334 33 -53.001
c8.66699 -6 29.167 -16 61.5 -30s55.5 -24.667 69.5 -32c24.667 -12.667 46 -27 64 -43c25.333 -22 44 -44.833 56 -68.5s18 -51.167 18 -82.5c0 -68.667 -26.667 -122.667 -80 -162c-27.333 -20 -56.5 -33.667 -87.5 -41s-66.5 -11 -106.5 -11c-67.333 0 -132 12 -194 36z
" />
    <glyph glyph-name="T" unicode="T" horiz-adv-x="500" 
d="M336 145c0 -37.333 1.66797 -62.998 5.00098 -76.998c6 -24.667 19 -46.334 39 -65.001l-271 -3c17.333 12 28.666 27 33.999 45s8 39.667 8 65v33v402c-6 1.33301 -14.167 2.33301 -24.5 3s-18.833 1 -25.5 1c-39.333 0 -77 -12.333 -113 -37l-7 -5l39 154l19 -3h464
l-34 -151c-7.33301 16 -17.833 27.333 -31.5 34s-30.5 10 -50.5 10c-10.667 0 -19.667 -0.333008 -27 -1s-15.333 -2.33398 -24 -5.00098v-400z" />
    <glyph glyph-name="U" unicode="U" horiz-adv-x="680" 
d="M427 81c-19.333 -28.667 -44.167 -51.498 -74.5 -68.498s-63.5 -25.5 -99.5 -25.5c-29.333 0 -56.166 4.5 -80.499 13.5s-46.333 23.667 -66 44s-32.334 42 -38.001 65s-8.5 53.167 -8.5 90.5v315v33c0 33.333 -3.5 57.166 -10.5 71.499s-17.5 26.166 -31.5 35.499l266 3
c-17.333 -12 -28.666 -27 -33.999 -45s-8 -39.667 -8 -65v-33v-273c0 -28 1 -49.667 3 -65s8.33301 -30.333 19 -45c7.33301 -10 16.666 -17.667 27.999 -23s23.666 -8 36.999 -8c40 0 67.667 20.667 83 62c10 26.667 15 64 15 112v240v33
c0 33.333 -3.5 57.166 -10.5 71.499s-17.5 26.166 -31.5 35.499l267 3c-17.333 -12 -28.666 -27 -33.999 -45s-8 -39.667 -8 -65v-33v-372v-33c0 -33.333 3.5 -57.166 10.5 -71.499s17.5 -26.166 31.5 -35.499l-225 -3v81z" />
    <glyph glyph-name="V" unicode="V" horiz-adv-x="640" 
d="M497 531c4.66699 14 8.16602 25.001 10.499 33.001s3.5 16.333 3.5 25c0 16 -3.5 28.667 -10.5 38s-18.167 18.666 -33.5 27.999l179 3l-231 -679l-65 21c-22 8 -42.333 17.667 -61 29c-26 15.333 -44.833 31.333 -56.5 48s-23.5 40.667 -35.5 72l-152 419
c-7.33301 20.667 -13.666 36.334 -18.999 47.001c-8 14.667 -18 28 -30 40l226 3l-1 -8c0 -13.333 5.66699 -37.333 17 -72c7.33301 -20.667 12 -34.334 14 -41.001l127 -368z" />
    <glyph glyph-name="W" unicode="W" horiz-adv-x="960" 
d="M381 -11c-16.667 2 -34.167 6.49805 -52.5 13.498s-35.833 15.5 -52.5 25.5c-30 17.333 -51.667 37.333 -65 60c-9.33301 15.333 -20 43.333 -32 84l-109 374c-7.33301 26 -15 46 -23 60c-10 18 -24 34.333 -42 49l217 3l122 -456l73 274l9.5 41
c3.66699 16 5.5 27.667 5.5 35c0 16 -4.5 34.833 -13.5 56.5s-19.5 37.167 -31.5 46.5l210 3c-2.66699 -9.33301 -4 -16 -4 -20c0 -13.333 1.16699 -25.666 3.5 -36.999s8.83301 -35 19.5 -71l96 -328l87 298c6 19.333 9.66699 32.333 11 39c4 16 6 29.667 6 41
c0 14 -3.16699 27.333 -9.5 40s-14.5 24.334 -24.5 35.001l169 3l-205 -671c-17.333 4 -34 9.33301 -50 16s-33.667 15.334 -53 26.001c-23.333 12.667 -41.666 28.667 -54.999 48c-10.667 15.333 -20.334 37.666 -29.001 66.999l-74 242z" />
    <glyph glyph-name="X" unicode="X" horiz-adv-x="660" 
d="M557 146c30 -49.333 50.333 -81 61 -95c14 -18.667 29.667 -34.667 47 -48v-3h-235l-143 256l-82 -128c-5.33301 -9.33301 -10.5 -19 -15.5 -29s-7.5 -19.667 -7.5 -29c0 -13.333 2.66699 -26.166 8 -38.499s13 -21.833 23 -28.5l-221 -3l237 344l-125 216
c-18 31.333 -32.167 52.666 -42.5 63.999s-22.833 21.666 -37.5 30.999l235 3l115 -212l50 77c8 12 15.5 25.5 22.5 40.5s10.5 27.833 10.5 38.5s-3.66699 21.334 -11 32.001s-16 17.667 -26 21l219 3l-209 -302z" />
    <glyph glyph-name="Y" unicode="Y" horiz-adv-x="560" 
d="M389 146c0 -38 2.16504 -66.5 6.49805 -85.5s16.833 -38.167 37.5 -57.5l-271 -3c16.667 12 28.334 28.667 35.001 50c4.66699 16 7 36.333 7 61v33v154l-149 280c-7.33301 13.333 -13.666 24.333 -18.999 33c-12 19.333 -26.667 34 -44 44l232 3l116 -239l56 114
c6.66699 14 12.167 26.5 16.5 37.5s6.5 21.5 6.5 31.5c0 23.333 -10.333 41 -31 53l180 3l-179 -360v-152z" />
    <glyph glyph-name="Z" unicode="Z" horiz-adv-x="600" 
d="M259 105l120.999 -8.99902c44.667 0 81.167 4.16699 109.5 12.5s62.5 24.833 102.5 49.5l-56 -158h-538l298 559l-79 5c-32 0 -61.167 -3.83301 -87.5 -11.5s-55.166 -19.834 -86.499 -36.501l53 142h459z" />
    <glyph glyph-name="bracketleft" unicode="[" horiz-adv-x="300" 
d="M194 -55l72 0.00292969v-66h-220c13.333 11.333 22.333 25.166 27 41.499s7 35.166 7 56.499v21v559v16c0 24 -1.66699 42.333 -5 55c-5.33301 19.333 -15 34.666 -29 45.999h220v-66h-72v-663z" />
    <glyph glyph-name="backslash" unicode="\" 
d="M75 670h92l281 -670h-93z" />
    <glyph glyph-name="bracketright" unicode="]" horiz-adv-x="300" 
d="M102 608h-72v66h220c-15.333 -12.667 -24.833 -28 -28.5 -46s-5.5 -41.667 -5.5 -71v-559c0 -32 1.5 -56.333 4.5 -73s12.833 -32 29.5 -46h-220v66h72v663z" />
    <glyph glyph-name="asciicircum" unicode="^" horiz-adv-x="600" 
d="M31 160l226 498h82l230 -498h-83l-189 408l-183 -408h-83z" />
    <glyph glyph-name="underscore" unicode="_" horiz-adv-x="740" 
d="M740 -74v-56h-740v56h740z" />
    <glyph glyph-name="grave" unicode="`" horiz-adv-x="420" 
d="M358 542l-58 -35l-234 87l50 86z" />
    <glyph glyph-name="a" unicode="a" horiz-adv-x="520" 
d="M491 -10l-39.999 -3c-28.667 0 -53.667 3.16699 -75 9.5s-41.5 18.333 -60.5 36s-31 35.667 -36 54s-7.5 42.833 -7.5 73.5v22v33l-32 -15c-18 -8.66699 -30.667 -16 -38 -22c-12.667 -10.667 -19 -23.334 -19 -38.001c0 -18 5.66699 -33.333 17 -46s26 -19 44 -19l20 2
l-43 -87l-51 -3c-19.333 0 -38.5 1.83301 -57.5 5.5s-35.5 9.83398 -49.5 18.501c-20 12 -36 28.667 -48 50s-18 43.666 -18 66.999c0 52.667 23.667 91.667 71 117c17.333 9.33301 61.666 23 132.999 41c47.333 12 71 28.667 71 50c0 14 -6.83301 24.5 -20.5 31.5
s-28.167 10.5 -43.5 10.5c-20.667 0 -41.834 -3 -63.501 -9s-42.5 -14 -62.5 -24l47 114c18.667 4.66699 38.5 8.16699 59.5 10.5s43.167 3.5 66.5 3.5c26 0 51.167 -3 75.5 -9s45.5 -15.667 63.5 -29c22.667 -17.333 38 -40.333 46 -69c6 -21.333 9 -49.666 9 -84.999v-80
c0 -44.667 3 -73.667 9 -87c10.667 -24.667 35.334 -37 74.001 -37z" />
    <glyph glyph-name="b" unicode="b" horiz-adv-x="600" 
d="M227 84c6.66699 -2 11.6699 -3.33105 15.0029 -3.99805s8.33301 -1 15 -1c41.333 0 72 14.333 92 43c18 25.333 27 59.666 27 102.999c0 46 -9.33301 82.667 -28 110c-22 32 -54.333 48 -97 48l47 85c8 2.66699 15.167 4.33398 21.5 5.00098s14.5 1 24.5 1
c27.333 0 54.833 -5.83301 82.5 -17.5s51.5 -27.5 71.5 -47.5s35.333 -44.167 46 -72.5s16 -57.833 16 -88.5c0 -82 -30.333 -148 -91 -198c-28.667 -23.333 -61.834 -39.666 -99.501 -48.999s-78.5 -14 -122.5 -14c-36 0 -71 2.16699 -105 6.5s-71.333 11.166 -112 20.499
c11.333 11.333 18.166 22.166 20.499 32.499s3.5 25.5 3.5 45.5v456v16c0 28.667 -2.5 48.167 -7.5 58.5s-13.833 21.166 -26.5 32.499l132 3c17.333 0 31.166 0.833008 41.499 2.5s20.5 6.16699 30.5 13.5z" />
    <glyph glyph-name="c" unicode="c" horiz-adv-x="500" 
d="M429 348c-18 11.333 -35.001 19.6689 -51.001 25.002s-34 8 -54 8c-32.667 0 -58 -11.667 -76 -35c-10 -12.667 -16.833 -27.334 -20.5 -44.001s-5.5 -35 -5.5 -55c0 -22.667 3.5 -45.334 10.5 -68.001s17.5 -41.667 31.5 -57c10 -12 23.167 -20.833 39.5 -26.5
s33.5 -8.5 51.5 -8.5c22.667 0 45.834 4.33301 69.501 13s44.5 20 62.5 34l-29 -109c-26.667 -13.333 -54 -23 -82 -29s-58 -9 -90 -9c-71.333 0 -131.333 21 -180 63c-51.333 44.667 -77 102.334 -77 173.001c0 79.333 27.667 141.666 83 186.999
c51.333 42 117.666 63 198.999 63c12.667 0 27.334 -1 44.001 -3c39.333 -4.66699 64 -7 74 -7v-115z" />
    <glyph glyph-name="d" unicode="d" horiz-adv-x="600" 
d="M360 281c0 15.333 -0.49707 27 -1.49707 35s-4.5 16.667 -10.5 26c-12 19.333 -30 29 -54 29c-31.333 0 -54 -15.667 -68 -47c-10 -22.667 -15 -52.334 -15 -89.001c0 -23.333 2.33301 -44.5 7 -63.5s13 -35.833 25 -50.5c20 -24.667 45.667 -37 77 -37h14l-47 -85
c-5.33301 -2 -11.333 -3.5 -18 -4.5s-14.334 -1.5 -23.001 -1.5c-63.333 0 -115.833 23.167 -157.5 69.5s-62.5 101.5 -62.5 165.5c0 67.333 19.667 124.333 59 171c42 50 96 75 162 75c38 0 75.667 -11.333 113 -34v108c0 28.667 -1.33301 48.334 -4 59.001
c-4.66699 18 -15.334 34 -32.001 48l121 3h12c17.333 0 30.666 0.833008 39.999 2.5s20.333 6.16699 33 13.5l3 -528c0 -38 1.66699 -64 5 -78c6 -25.333 19 -47 39 -65l-217 -3v281z" />
    <glyph glyph-name="e" unicode="e" horiz-adv-x="540" 
d="M476 18c-22.667 -10 -47.833 -17.667 -75.5 -23s-54.834 -8 -81.501 -8c-40 0 -74.667 3 -104 9c-38 8 -70 21.333 -96 40c-30 21.333 -52.667 49.5 -68 84.5s-23 72.167 -23 111.5c0 70 23.333 127.667 70 173s105 68 175 68c78.667 0 137.834 -21.167 177.501 -63.5
s59.5 -102.833 59.5 -181.5h-310c0 -43.333 13.5 -78.833 40.5 -106.5s62.5 -41.5 106.5 -41.5c27.333 0 54.333 4.5 81 13.5s55.667 21.5 87 37.5zM340.001 313c0 21.333 -5.33398 38.833 -16.001 52.5s-27.667 20.5 -51 20.5c-21.333 0 -38.166 -6.66699 -50.499 -20
s-19.833 -31 -22.5 -53h140z" />
    <glyph glyph-name="f" unicode="f" horiz-adv-x="340" 
d="M235 111c0 -28.667 1.83203 -50.3359 5.49902 -65.0029s13.5 -29 29.5 -43l-242 -3c14 12.667 23.167 25.834 27.5 39.501s6.5 30.5 6.5 50.5v21v256h-67l67 96v13c0 36.667 3 64.334 9 83.001c8.66699 26 24.334 48.333 47.001 67s46.5 31.334 71.5 38.001
s53.5 10 85.5 10c30 0 53.333 -0.833008 70 -2.5s33.667 -5.5 51 -11.5l-67 -102c-6.66699 5.33301 -13.334 9.5 -20.001 12.5s-13.667 4.5 -21 4.5c-22.667 0 -37.167 -6.33301 -43.5 -19s-9.5 -30.667 -9.5 -54v-18v-21h113v-116
c-9.33301 8.66699 -18.166 14.167 -26.499 16.5s-19.5 3.5 -33.5 3.5h-25h-28v-256z" />
    <glyph glyph-name="g" unicode="g" horiz-adv-x="520" 
d="M488 375l-46.002 -0.000976562c11.333 -10.667 20.333 -23.667 27 -39s10 -31.333 10 -48c0 -23.333 -5.5 -44.333 -16.5 -63s-26.333 -35.5 -46 -50.5s-42.834 -26.333 -69.501 -34s-53 -11.5 -79 -11.5c-12.667 0 -24.167 -1.5 -34.5 -4.5s-15.5 -8.83301 -15.5 -17.5
c0 -8 5.33301 -12 16 -12l17 1l86 5c22 0 44.5 -2.16699 67.5 -6.5s42.833 -11.166 59.5 -20.499c22 -12.667 39.5 -29.334 52.5 -50.001s19.5 -43.667 19.5 -69c0 -30.667 -9.33301 -57.667 -28 -81s-43 -41.333 -73 -54c-24.667 -10 -52.5 -17 -83.5 -21
s-64.167 -6 -99.5 -6c-26 0 -51.333 1.16699 -76 3.5s-47.667 6.16602 -69 11.499c-26.667 7.33301 -48.667 18.333 -66 33c-21.333 18 -32 39.333 -32 64c0 26 10.333 47 31 63s44.667 24 72 24c30 0 55 -5.66699 75 -17c-25.333 -4.66699 -38 -18.667 -38 -42
c0 -21.333 10.667 -36.666 32 -45.999c15.333 -6.66699 35.666 -10 60.999 -10c28.667 0 52.334 4.33301 71.001 13c24.667 11.333 37 29 37 53v8c-0.666992 7.33301 -2.66699 14.833 -6 22.5s-9.5 16.5 -18.5 26.5s-19.333 16.5 -31 19.5s-25.5 4.5 -41.5 4.5
c-11.333 0 -26.666 -0.833008 -45.999 -2.5s-31 -2.5 -35 -2.5c-24 0 -43 9.33301 -57 28c-6 6.66699 -12.333 16.5 -19 29.5s-10 23.167 -10 30.5c0 6.66699 5 12.667 15 18c2.66699 1.33301 10.334 4.33301 23.001 9l28 11c-36 13.333 -64.333 32 -85 56
c-22.667 26.667 -34 58.667 -34 96c0 54.667 21.667 98.334 65 131.001c40 30 88.333 45 145 45c12.667 0 24.834 -0.833008 36.501 -2.5s25.5 -4.5 41.5 -8.5l212 6zM252.998 217.999c20 0 34.833 6.99902 44.5 20.999s14.5 31 14.5 51c0 24.667 -4 45 -12 61
c-10.667 22 -27 33 -49 33c-20 0 -34.667 -7.5 -44 -22.5s-14 -33.167 -14 -54.5c0 -23.333 4 -42.666 12 -57.999c10.667 -20.667 26.667 -31 48 -31z" />
    <glyph glyph-name="h" unicode="h" 
d="M228 431c15.333 15.333 33.999 26.1621 55.999 32.4951s45 9.5 69 9.5c28.667 0 54.834 -4.5 78.501 -13.5s44.5 -23.833 62.5 -44.5c12 -13.333 19.667 -27.666 23 -42.999s5 -35.333 5 -60v-37v-165v-46c2.66699 -23.333 14.334 -43.666 35.001 -60.999l-243 -3
c17.333 15.333 28 32 32 50c2 8.66699 3 28.667 3 60v157v18c0 12 -0.5 22.167 -1.5 30.5s-3.16699 15.833 -6.5 22.5c-10.667 20.667 -28.334 31 -53.001 31c-30 0 -48.667 -13.333 -56 -40c-1.33301 -4.66699 -2.33301 -11.834 -3 -21.501s-1 -17.167 -1 -22.5v-27v-148
c0 -37.333 2.16699 -61.666 6.5 -72.999s13.5 -22.666 27.5 -33.999l-241 -3c14 12.667 23.167 25.834 27.5 39.501s6.5 30.167 6.5 49.5v21v438v17c0 28 -2.5 47.333 -7.5 58s-13.833 21.334 -26.5 32.001l133 3c14.667 0 27.5 1.16699 38.5 3.5s21.833 6.5 32.5 12.5z" />
    <glyph glyph-name="i" unicode="i" horiz-adv-x="280" 
d="M155 460c14 0 26.5 0.998047 37.5 2.99805s21.167 6 30.5 12l3 -365c0 -30.667 1.5 -52.5 4.5 -65.5s13.167 -26.833 30.5 -41.5l-243 -3c17.333 16 28 33 32 51c2 8.66699 3 28.334 3 59.001v240v17c0 28 -2.5 47.333 -7.5 58s-13.833 21.334 -26.5 32.001zM39 571.998
c0 27.333 9 50.667 27 70s40.667 29 68 29c25.333 0 47.333 -9.33301 66 -28s28 -40.667 28 -66c0 -27.333 -9.33301 -50.333 -28 -69s-42 -28 -70 -28c-24.667 0 -46 9.33301 -64 28s-27 40 -27 64z" />
    <glyph glyph-name="j" unicode="j" horiz-adv-x="260" 
d="M144 460c18.667 0 33.168 0.833984 43.501 2.50098s20.833 5.83398 31.5 12.501l3 -451v-30c0 -36.667 -2.66699 -64 -8 -82c-8 -27.333 -24.667 -49.333 -50 -66s-55.5 -30.334 -90.5 -41.001s-68.167 -16 -99.5 -16l5 5c34 36 54.667 66 62 90
c5.33301 17.333 8 53.666 8 108.999v325v33c0 33.333 -3.33301 57 -10 71s-17.334 25.667 -32.001 35zM35.001 572.001c0 27.333 9 50.667 27 70s40.667 29 68 29c25.333 0 47.333 -9.33301 66 -28s28 -40.667 28 -66c0 -27.333 -9.33301 -50.333 -28 -69s-42 -28 -70 -28
c-24.667 0 -46 9.33301 -64 28s-27 40 -27 64z" />
    <glyph glyph-name="k" unicode="k" horiz-adv-x="560" 
d="M225 262l79.998 92.001l21 24c6.66699 9.33301 10 18.666 10 27.999c0 11.333 -3.5 21.5 -10.5 30.5s-15.833 15.833 -26.5 20.5l231 3l-155 -175l132 -206c14 -22 23.667 -36.333 29 -43c11.333 -13.333 24 -24.333 38 -33
c-21.333 -1.33301 -42.666 -2.33301 -63.999 -3c-57.333 -3.33301 -93.333 -5 -108 -5c-25.333 0 -45.666 9.33301 -60.999 28c-4 4.66699 -12 17.334 -24 38.001l-92 152v-102c0 -30.667 1.5 -52.667 4.5 -66s13.167 -27.333 30.5 -42l-243 -3c17.333 16 28 33 32 51
c2 8.66699 3 28.667 3 60v437v16c0 27.333 -2.66699 46.666 -8 57.999s-14.333 22.333 -27 33l139 3c24.667 0 46.667 5.33301 66 16z" />
    <glyph glyph-name="l" unicode="l" horiz-adv-x="280" 
d="M130 658c32.667 0 62.667 5.33203 90 15.999l3 -564c0 -30.667 1.5 -52.5 4.5 -65.5s12.833 -26.833 29.5 -41.5l-241 -3c13.333 13.333 22.333 26.833 27 40.5s7 30.167 7 49.5v20v437v18c0 22 -1.66699 38.833 -5 50.5s-12.333 24.834 -27 39.501z" />
    <glyph glyph-name="m" unicode="m" horiz-adv-x="840" 
d="M224 415c28.667 38.667 69 58.0049 121 58.0049c48.667 0 88.667 -19.333 120 -58c18.667 20 40 34.667 64 44s51.333 14 82 14c24 0 46 -2.83301 66 -8.5s39.167 -15.834 57.5 -30.501s31.166 -32 38.499 -52s11 -43.667 11 -71v-201c0 -30.667 1.5 -52.5 4.5 -65.5
s13.167 -26.833 30.5 -41.5l-242 -3c14 13.333 23.167 26.666 27.5 39.999s6.5 29.666 6.5 48.999v21v165v16c0 24.667 -2.33301 42.334 -7 53.001c-7.33301 16.667 -22.333 25 -45 25c-25.333 0 -41.666 -10.667 -48.999 -32c-4 -11.333 -6 -32 -6 -62v-165
c0 -30.667 1.5 -52.5 4.5 -65.5s13.167 -26.833 30.5 -41.5l-242 -3c14 13.333 23.167 26.666 27.5 39.999s6.5 29.666 6.5 48.999v21v150v21c0 28 -2.33301 47.667 -7 59c-8 19.333 -23.667 29 -47 29c-22 0 -37 -8.66699 -45 -26c-5.33301 -12 -8 -30.667 -8 -56v-27v-150
c0 -30.667 1.5 -52.5 4.5 -65.5s13.167 -26.833 30.5 -41.5l-242 -3c14 13.333 23.167 26.666 27.5 39.999s6.5 29.666 6.5 48.999v21v240v17c0 28 -2.5 47.333 -7.5 58s-13.833 21.334 -26.5 32.001l139 3c23.333 0 45 5 65 15z" />
    <glyph glyph-name="n" unicode="n" 
d="M225 420c14 17.333 31.498 30.5 52.498 39.5s44.5 13.5 70.5 13.5c29.333 0 55.666 -4.33301 78.999 -13s44 -23.334 62 -44.001c13.333 -16 22.333 -33.333 27 -52s7 -40.334 7 -65.001v-24v-165v-46c2.66699 -23.333 14.334 -43.666 35.001 -60.999l-243 -3
c17.333 15.333 28 32 32 50c2 8.66699 3 28.667 3 60v169c0 17.333 -0.666992 30 -2 38s-5.33301 16.667 -12 26c-11.333 18.667 -28.666 28 -51.999 28c-19.333 0 -34.333 -7.66699 -45 -23c-6 -7.33301 -9.83301 -17.166 -11.5 -29.499s-2.5 -25.5 -2.5 -39.5v-169v-46
c2.66699 -23.333 14.334 -43.666 35.001 -60.999l-243 -3c17.333 15.333 28 32 32 50c2 8.66699 3 28.667 3 60v240v16c0 27.333 -2.66699 46.666 -8 57.999s-14.333 22.333 -27 33l134 3c13.333 0 25 1 35 3s22 6 36 12z" />
    <glyph glyph-name="o" unicode="o" 
d="M29 226c0 76 23.999 136.166 71.999 180.499s110.667 66.5 188 66.5c35.333 0 67.333 -4.33301 96 -13s55.5 -23.5 80.5 -44.5s44.833 -47.5 59.5 -79.5s22 -65.333 22 -100c0 -77.333 -24.833 -138.166 -74.5 -182.499s-113.5 -66.5 -191.5 -66.5
c-73.333 0 -133.666 21.667 -180.999 65s-71 101.333 -71 174zM378.999 214.999c0 56 -9.33301 98 -28 126c-16 24 -38 36 -66 36c-32 0 -55.333 -13.333 -70 -40c-12 -22 -18 -50.333 -18 -85c0 -47.333 5 -84.333 15 -111c15.333 -40.667 42.333 -61 81 -61
c33.333 0 57 15 71 45c10 22 15 52 15 90z" />
    <glyph glyph-name="p" unicode="p" horiz-adv-x="600" 
d="M224 412c14 20 32.3311 35.165 54.998 45.498s47 15.5 73 15.5c66 0 118.333 -22.667 157 -68c36.667 -43.333 55 -99 55 -167c0 -32.667 -4.83301 -64.334 -14.5 -95.001s-24.5 -58 -44.5 -82c-22 -27.333 -47.833 -46.666 -77.5 -57.999s-63.834 -17 -102.501 -17
l-43 4l-36 93c4.66699 -1.33301 9.33398 -2.33301 14.001 -3s10.334 -1 17.001 -1c38.667 0 66 15 82 45c12 22.667 18 55.667 18 99c0 37.333 -4.66699 68.333 -14 93c-14 36 -36.667 54 -68 54s-52 -13 -62 -39c-6 -15.333 -9 -41.666 -9 -78.999v-350v-46
c2.66699 -23.333 14.334 -43.666 35.001 -60.999l-242 -3c14 12.667 23.167 25.834 27.5 39.501s6.5 30.167 6.5 49.5v21v448v16c0 28.667 -2.5 48.167 -7.5 58.5s-13.833 21.166 -26.5 32.499l136 3c13.333 0 25.5 1 36.5 3s21.5 6 31.5 12z" />
    <glyph glyph-name="q" unicode="q" horiz-adv-x="600" 
d="M368 357c-6 3.33301 -13.832 5.66797 -23.499 7.00098s-19.167 2 -28.5 2c-34.667 0 -60.834 -13.5 -78.501 -40.5s-26.5 -58.5 -26.5 -94.5c0 -40.667 8.66699 -75.334 26 -104.001c20.667 -34 49.667 -51 87 -51c5.33301 0.666992 9.33301 1 12 1l-46 -84
c-14 -4 -28.667 -6 -44 -6c-66 0 -118.833 21.833 -158.5 65.5s-59.5 98.834 -59.5 165.501c0 78 30 141 90 189c26 22 53.5 36.333 82.5 43s64.167 10 105.5 10h269c-14 -12.667 -23.167 -25.834 -27.5 -39.501s-6.5 -30.167 -6.5 -49.5v-21v-448
c0 -30.667 1.5 -52.5 4.5 -65.5s12.833 -26.833 29.5 -41.5l-241 -3c13.333 13.333 22.333 26.833 27 40.5s7 30.167 7 49.5v20v455z" />
    <glyph glyph-name="r" unicode="r" horiz-adv-x="360" 
d="M228 402c7.33301 23.333 20.501 40.998 39.501 52.998s41.833 18 68.5 18l37 -3v-122c-8.66699 2 -15 3.33301 -19 4c-12.667 2.66699 -23.667 4 -33 4c-32 0 -58.333 -11.333 -79 -34c-6 -6.66699 -9.83301 -13.167 -11.5 -19.5s-2.5 -14.5 -2.5 -24.5v-17v-151
c0 -30.667 1.5 -52.667 4.5 -66s12.833 -27 29.5 -41l-241 -3c14 12.667 23.167 25.834 27.5 39.501s6.5 30.167 6.5 49.5v21v240v17c0 28 -2.5 47.333 -7.5 58s-13.833 21.334 -26.5 32.001l140 3c25.333 0 46.666 5 63.999 15z" />
    <glyph glyph-name="s" unicode="s" horiz-adv-x="480" 
d="M16 125c27.333 -16.667 56.167 -29.999 86.5 -39.999s60.5 -15 90.5 -15c18.667 0 34 2.66699 46 8c16.667 7.33301 25 19.333 25 36c0 17.333 -20.667 35 -62 53c-66 29.333 -104.333 47.333 -115 54c-41.333 26.667 -62 59.667 -62 99c0 26.667 6.16699 50 18.5 70
s29.833 36.5 52.5 49.5s46.5 21.833 71.5 26.5s52.833 7 83.5 7c24.667 0 49.834 -1.5 75.501 -4.5s52.167 -7.83301 79.5 -14.5v-104c-39.333 26 -82 39 -128 39c-15.333 0 -29 -2.16699 -41 -6.5s-18 -12.833 -18 -25.5c0 -13.333 6.33301 -24 19 -32
c6 -4 18.5 -8.83301 37.5 -14.5l56.5 -16.5c19.333 -6.66699 37 -15.334 53 -26.001c23.333 -15.333 41.833 -32.5 55.5 -51.5s20.5 -40.833 20.5 -65.5c0 -60 -29 -104 -87 -132c-44 -21.333 -100 -32 -168 -32c-24.667 0 -50.334 2 -77.001 6s-57 9.66699 -91 17z" />
    <glyph glyph-name="t" unicode="t" horiz-adv-x="320" 
d="M38 368l-59.9971 -0.000976562v69c42 0 78.833 16.667 110.5 50s49.5 72 53.5 116h69v-143h111v-122c-12 12.667 -22.833 20.667 -32.5 24s-22.5 5 -38.5 5h-15h-25v-187c0 -24 1.5 -41.333 4.5 -52s11.833 -21 26.5 -31c10.667 -7.33301 22.5 -12.166 35.5 -14.499
s27.833 -3.5 44.5 -3.5l-44 -85c-8.66699 0 -22.334 -1.16699 -41.001 -3.5s-31.334 -3.5 -38.001 -3.5c-22.667 0 -45.334 3.16699 -68.001 9.5s-42 16.5 -58 30.5s-25.833 30.5 -29.5 49.5s-5.5 45.167 -5.5 78.5v213z" />
    <glyph glyph-name="u" unicode="u" 
d="M230 218c-0.666992 -14 -0.999023 -25.0049 -0.999023 -33.0049c0 -37.333 4.83301 -62.5 14.5 -75.5s23.834 -19.5 42.501 -19.5c21.333 0 37 7.33301 47 22c6 8.66699 9.83301 17.5 11.5 26.5s2.5 20.5 2.5 34.5v15v162v17c0 27.333 -2.83301 46.5 -8.5 57.5
s-14.5 21.833 -26.5 32.5l137 3c13.333 0 25.666 1 36.999 3s21.666 6 30.999 12l3 -365c0 -37.333 2.16699 -61.666 6.5 -72.999s13.5 -22.666 27.5 -33.999l-207 -3v53c-32 -44 -77.667 -66 -137 -66c-22 0 -42.333 2.83301 -61 8.5s-36.5 15.834 -53.5 30.501
s-27.667 31.834 -32 51.501s-6.5 45.834 -6.5 78.501v194v17c0 27.333 -2.83301 46.5 -8.5 57.5s-14.5 21.833 -26.5 32.5l138 3c14 0 26.333 1 37 3s20.667 6 30 12z" />
    <glyph glyph-name="v" unicode="v" horiz-adv-x="460" 
d="M319 343l12.001 31.0039c4 12.667 6 24 6 34c0 19.333 -7.66699 35.666 -23 48.999l143 3l-185 -484c-9.33301 0.666992 -17 2.16699 -23 4.5s-17.333 8.16602 -34 17.499c-36 19.333 -60.167 36.666 -72.5 51.999s-26.166 43.666 -41.499 84.999l-83 222
c-10.667 28 -18 46 -22 54c-8.66699 17.333 -20.334 32.666 -35.001 45.999l124 3h19c11.333 0 20.666 0.833008 27.999 2.5s14.333 5.83398 21 12.501l108 -291z" />
    <glyph glyph-name="w" unicode="w" horiz-adv-x="800" 
d="M358 366c-5.33301 42 -23 72.332 -53 90.999l199 3l88 -261l49 132c2.66699 6.66699 6.33398 17 11.001 31s7 24.333 7 31c0 10.667 -3 22.5 -9 35.5s-13 22.5 -21 28.5l158 3l-184 -476c-18 4 -38 10.667 -60 20s-38.667 19 -50 29c-16 14 -32.667 45.667 -50 95
c-10 29.333 -16.333 48.666 -19 57.999l-18 53l-102 -255c-20 6.66699 -35.333 12 -46 16c-16.667 6.66699 -31.334 14 -44.001 22c-16 10.667 -26.667 19.334 -32 26.001s-11.333 19 -18 37l-90 240c-12.667 34 -21.667 57 -27 69c-12 26.667 -25.333 47.667 -40 63l116 3
h11c16 0 28.5 0.833008 37.5 2.5s18.833 5.83398 29.5 12.501l97 -277z" />
    <glyph glyph-name="x" unicode="x" horiz-adv-x="520" 
d="M452 78l26.9961 -41c10.667 -14.667 22.334 -26 35.001 -34l-220 -3c-4.66699 13.333 -8.66699 23.833 -12 31.5s-13.666 26.5 -30.999 56.5l-36 63l-39 -58l-11 -16c-6.66699 -10.667 -10 -20.667 -10 -30c0 -10.667 3.33301 -20.667 10 -30
c2.66699 -4 7 -8.66699 13 -14l-176 -3l167 230l-95 150c-15.333 24 -24.666 38.333 -27.999 43c-11.333 14.667 -23.666 26 -36.999 34l218 3c2.66699 -20.667 9 -41.167 19 -61.5s24.333 -40.833 43 -61.5l11 15c12 16.667 20.667 30.5 26 41.5s8 20.5 8 28.5
c0 7.33301 -1.66699 14 -5 20s-8 11 -14 15l165 3l-141 -198z" />
    <glyph glyph-name="y" unicode="y" horiz-adv-x="480" 
d="M346 350c4.66699 12.667 8.00391 23.1699 10.0039 31.5029s3 17.166 3 26.499c0 11.333 -1.83301 20.166 -5.5 26.499s-9.83398 13.833 -18.501 22.5l147 3l-188 -497c-14.667 -40.667 -27 -68.334 -37 -83.001c-15.333 -23.333 -38.333 -43.333 -69 -60
c-20 -10 -43.333 -17.167 -70 -21.5s-53.334 -6.5 -80.001 -6.5l-45 3l79 100c9.33301 -2.66699 16.666 -4 21.999 -4c34.667 0 62.334 11.667 83.001 35c16 18 29.333 46 40 84c-20 13.333 -36.333 28.333 -49 45s-24.334 37.667 -35.001 63l-104 248
c-8.66699 20.667 -17.334 37.667 -26.001 51c-11.333 18 -24 31.333 -38 40l220 3c1.33301 -8.66699 3.83301 -18 7.5 -28s7.5 -19.667 11.5 -29l9 -23l77 -190z" />
    <glyph glyph-name="z" unicode="z" horiz-adv-x="480" 
d="M208 367c-18.667 4.66699 -38.6689 7 -60.002 7c-25.333 0 -45.666 -1.5 -60.999 -4.5s-33.333 -9.5 -54 -19.5l36 110h387l-208 -364c27.333 -6.66699 57.333 -10 90 -10c38.667 0 67.834 2.16699 87.501 6.5s38.5 10.833 56.5 19.5l-40 -112h-449z" />
    <glyph glyph-name="braceleft" unicode="{" horiz-adv-x="300" 
d="M198 -14c0 -30 4.83301 -53.002 14.5 -69.002s28.5 -28.667 56.5 -38h-33c-19.333 0 -36 1.5 -50 4.5s-28.5 9.66699 -43.5 20s-24.833 23.5 -29.5 39.5s-7 36 -7 60v172c0 18 -0.833008 32 -2.5 42s-7.16699 20.333 -16.5 31c-14.667 16.667 -32.667 27 -54 31
c30 7.33301 49.667 18.333 59 33s14 38.334 14 71.001v151c0 28 1.5 49.833 4.5 65.5s10.667 30 23 43s28.166 21.5 47.499 25.5s41 6 65 6h23c-26.667 -8 -45.167 -20.167 -55.5 -36.5s-15.5 -39.166 -15.5 -68.499v-162c0 -38 -4.33301 -65.667 -13 -83
c-11.333 -22.667 -33.666 -37.667 -66.999 -45c32 -7.33301 53.333 -20.333 64 -39s16 -45.667 16 -81v-173z" />
    <glyph glyph-name="bar" unicode="|" horiz-adv-x="600" 
d="M257 670h85v-670h-85v670z" />
    <glyph glyph-name="braceright" unicode="}" horiz-adv-x="300" 
d="M197 3c0 -31.333 -3.16699 -53.6689 -9.5 -67.002s-16 -24.666 -29 -33.999s-27.667 -15.5 -44 -18.5s-34.833 -4.5 -55.5 -4.5h-25c28 9.33301 46.833 21.666 56.5 36.999s14.5 38.666 14.5 69.999v173c0 36 4.66699 62 14 78c12 20 34 34 66 42
c-32 6.66699 -54 21.667 -66 45c-9.33301 18 -14 45.667 -14 83v162c0 28.667 -5.33301 51.334 -16 68.001s-29 29 -55 37h23c26.667 0 48.667 -1.83301 66 -5.5s32.333 -12 45 -25s20.667 -28.167 24 -45.5s5 -38.666 5 -63.999v-151c0 -32 4.66699 -55.5 14 -70.5
s29 -26.167 59 -33.5c-21.333 -4 -39.333 -14.333 -54 -31c-8.66699 -10.667 -14 -20.667 -16 -30s-3 -23.666 -3 -42.999v-172z" />
    <glyph glyph-name="asciitilde" unicode="~" horiz-adv-x="600" 
d="M563 272c-19.333 -26.667 -34.332 -45.999 -44.999 -57.999c-31.333 -34.667 -66.333 -52 -105 -52c-15.333 0 -31.666 2.33301 -48.999 7c-8 2 -23.667 7.33301 -47 16l-42 16c-22.667 9.33301 -35.667 14.333 -39 15c-16 5.33301 -29.667 8 -41 8
c-20.667 0 -39 -8.33301 -55 -25c-6 -6 -18.333 -23.333 -37 -52l-66 43c29.333 47.333 55.5 78.5 78.5 93.5s48.5 22.5 76.5 22.5c28.667 0 68.667 -10.333 120 -31s85 -31 101 -31c17.333 0 33.666 8 48.999 24c5.33301 5.33301 16.666 20.666 33.999 45.999z" />
    <glyph glyph-name="c128" horiz-adv-x="700" 
d="M506 220c0 40 -5.66797 71.002 -17.001 93.002c-13.333 26.667 -34.333 40 -63 40c-16.667 0 -32.667 -2.5 -48 -7.5s-29.333 -11.833 -42 -20.5v-180c0 -38.667 1.83301 -68.334 5.5 -89.001s13.167 -38.334 28.5 -53.001l-261 -3c17.333 12 28.666 27 33.999 45
s8 39.667 8 65v33v402c-6 1.33301 -14.167 2.33301 -24.5 3s-18.833 1 -25.5 1c-39.333 0 -77 -12.333 -113 -37l-7 -5l39 154l19 -3h464l-34 -141c-5.33301 11.333 -13.166 19.833 -23.499 25.5s-29.833 8.5 -58.5 8.5c-10.667 0 -19.667 -0.333008 -27 -1
s-15.333 -2.33398 -24 -5.00098v-119c24.667 14.667 47.334 25.667 68.001 33c26.667 9.33301 54.667 14 84 14c64 0 114.333 -24.333 151 -73c34 -45.333 51 -102.666 51 -171.999c0 -78.667 -18.833 -138.5 -56.5 -179.5s-88.5 -61.5 -152.5 -61.5
c-8 0 -16.667 0.666992 -26 2s-19.333 3 -30 5l-52 106c14.667 -5.33301 24.167 -8.5 28.5 -9.5s10.833 -1.5 19.5 -1.5c30 0 51.667 11.667 65 35s20 55.333 20 96z" />
    <glyph glyph-name="c128" unicode="&#x402;" horiz-adv-x="700" 
d="M506 220c0 40 -5.66797 71.002 -17.001 93.002c-13.333 26.667 -34.333 40 -63 40c-16.667 0 -32.667 -2.5 -48 -7.5s-29.333 -11.833 -42 -20.5v-180c0 -38.667 1.83301 -68.334 5.5 -89.001s13.167 -38.334 28.5 -53.001l-261 -3c17.333 12 28.666 27 33.999 45
s8 39.667 8 65v33v402c-6 1.33301 -14.167 2.33301 -24.5 3s-18.833 1 -25.5 1c-39.333 0 -77 -12.333 -113 -37l-7 -5l39 154l19 -3h464l-34 -141c-5.33301 11.333 -13.166 19.833 -23.499 25.5s-29.833 8.5 -58.5 8.5c-10.667 0 -19.667 -0.333008 -27 -1
s-15.333 -2.33398 -24 -5.00098v-119c24.667 14.667 47.334 25.667 68.001 33c26.667 9.33301 54.667 14 84 14c64 0 114.333 -24.333 151 -73c34 -45.333 51 -102.666 51 -171.999c0 -78.667 -18.833 -138.5 -56.5 -179.5s-88.5 -61.5 -152.5 -61.5
c-8 0 -16.667 0.666992 -26 2s-19.333 3 -30 5l-52 106c14.667 -5.33301 24.167 -8.5 28.5 -9.5s10.833 -1.5 19.5 -1.5c30 0 51.667 11.667 65 35s20 55.333 20 96z" />
    <glyph glyph-name="c129" horiz-adv-x="420" 
d="M242 146c0 -38 1.66992 -63.9971 5.00293 -77.9971c6 -24.667 19 -46.334 39 -65.001l-271 -3c17.333 12 28.666 27 33.999 45s8 39.667 8 65v33v373v33c0 33.333 -3.33301 57.166 -10 71.499s-17.334 25.833 -32.001 34.5l350 3c7.33301 0 14.666 0.166992 21.999 0.5
s14 2.16602 20 5.49902l3 -145c-10.667 17.333 -24.667 28.5 -42 33.5s-39.333 7.5 -66 7.5h-28h-32v-414zM380.003 792.003l-234 -87l-58 35l242 138z" />
    <glyph glyph-name="c129" unicode="&#x403;" horiz-adv-x="420" 
d="M242 146c0 -38 1.66992 -63.9971 5.00293 -77.9971c6 -24.667 19 -46.334 39 -65.001l-271 -3c17.333 12 28.666 27 33.999 45s8 39.667 8 65v33v373v33c0 33.333 -3.33301 57.166 -10 71.499s-17.334 25.833 -32.001 34.5l350 3c7.33301 0 14.666 0.166992 21.999 0.5
s14 2.16602 20 5.49902l3 -145c-10.667 17.333 -24.667 28.5 -42 33.5s-39.333 7.5 -66 7.5h-28h-32v-414zM380.003 792.003l-234 -87l-58 35l242 138z" />
    <glyph glyph-name="c141" horiz-adv-x="660" 
d="M607 70c8.66699 -14.667 17.332 -27.166 25.999 -37.499s19.334 -20.166 32.001 -29.499c-15.333 0 -30 -0.166992 -44 -0.5s-27.333 -0.5 -40 -0.5c-74.667 0 -124 6.16699 -148 18.5s-50.667 43.5 -80 93.5l-104 179v-150v-33c0 -33.333 3.5 -57.166 10.5 -71.499
s17.5 -26.166 31.5 -35.499l-269 -3v3c17.333 10.667 28.666 25 33.999 43s8 39.333 8 64v33v372v33c0 33.333 -3.5 57.166 -10.5 71.499s-17.5 26.166 -31.5 35.499l269 3c-17.333 -12 -28.666 -27 -33.999 -45s-8 -39.667 -8 -65v-33v-153l125 159
c16 19.333 25.667 31.666 29 36.999c11.333 16.667 17 31 17 43c0 11.333 -4 21.666 -12 30.999s-17.333 17 -28 23l245 3l-221 -267zM497.998 792.001l-234 -87l-58 35l242 138z" />
    <glyph glyph-name="c141" unicode="&#x40c;" horiz-adv-x="660" 
d="M607 70c8.66699 -14.667 17.332 -27.166 25.999 -37.499s19.334 -20.166 32.001 -29.499c-15.333 0 -30 -0.166992 -44 -0.5s-27.333 -0.5 -40 -0.5c-74.667 0 -124 6.16699 -148 18.5s-50.667 43.5 -80 93.5l-104 179v-150v-33c0 -33.333 3.5 -57.166 10.5 -71.499
s17.5 -26.166 31.5 -35.499l-269 -3v3c17.333 10.667 28.666 25 33.999 43s8 39.333 8 64v33v372v33c0 33.333 -3.5 57.166 -10.5 71.499s-17.5 26.166 -31.5 35.499l269 3c-17.333 -12 -28.666 -27 -33.999 -45s-8 -39.667 -8 -65v-33v-153l125 159
c16 19.333 25.667 31.666 29 36.999c11.333 16.667 17 31 17 43c0 11.333 -4 21.666 -12 30.999s-17.333 17 -28 23l245 3l-221 -267zM497.998 792.001l-234 -87l-58 35l242 138z" />
    <glyph glyph-name="c142" horiz-adv-x="700" 
d="M336 325l-0.000976562 -179.999c0 -37.333 1.66699 -63 5 -77c6 -24.667 19 -46.334 39 -65.001l-271 -3c17.333 12 28.666 27 33.999 45s8 39.667 8 65v33v402c-6 1.33301 -14.167 2.33301 -24.5 3s-18.833 1 -25.5 1c-39.333 0 -77 -12.333 -113 -37l-7 -5l39 154
l19 -3h464l-34 -141c-5.33301 11.333 -13.166 19.833 -23.499 25.5s-29.833 8.5 -58.5 8.5c-10.667 0 -19.667 -0.333008 -27 -1s-15.333 -2.33398 -24 -5.00098v-119c23.333 14 49.333 25.333 78 34s60 13 94 13c46 0 84.5 -15.5 115.5 -46.5s46.5 -69.5 46.5 -115.5v-168
v-33c0 -33.333 3.5 -57.166 10.5 -71.499s17.5 -26.166 31.5 -35.499l-269 -3c16.667 11.333 28.334 26.666 35.001 45.999c4.66699 14 7 33 7 57v40v151c0 39.333 -19.667 59 -59 59c-16.667 0 -32.667 -2.5 -48 -7.5s-29.333 -11.833 -42 -20.5z" />
    <glyph glyph-name="c142" unicode="&#x40b;" horiz-adv-x="700" 
d="M336 325l-0.000976562 -179.999c0 -37.333 1.66699 -63 5 -77c6 -24.667 19 -46.334 39 -65.001l-271 -3c17.333 12 28.666 27 33.999 45s8 39.667 8 65v33v402c-6 1.33301 -14.167 2.33301 -24.5 3s-18.833 1 -25.5 1c-39.333 0 -77 -12.333 -113 -37l-7 -5l39 154
l19 -3h464l-34 -141c-5.33301 11.333 -13.166 19.833 -23.499 25.5s-29.833 8.5 -58.5 8.5c-10.667 0 -19.667 -0.333008 -27 -1s-15.333 -2.33398 -24 -5.00098v-119c23.333 14 49.333 25.333 78 34s60 13 94 13c46 0 84.5 -15.5 115.5 -46.5s46.5 -69.5 46.5 -115.5v-168
v-33c0 -33.333 3.5 -57.166 10.5 -71.499s17.5 -26.166 31.5 -35.499l-269 -3c16.667 11.333 28.334 26.666 35.001 45.999c4.66699 14 7 33 7 57v40v151c0 39.333 -19.667 59 -59 59c-16.667 0 -32.667 -2.5 -48 -7.5s-29.333 -11.833 -42 -20.5z" />
    <glyph glyph-name="c143" horiz-adv-x="660" 
d="M217 0l-204.001 0.00585938c17.333 12 28.666 27 33.999 45s8 39.667 8 65v33v372v33c0 33.333 -3.5 57.166 -10.5 71.499s-17.5 26.166 -31.5 35.499l269 3c-17.333 -12 -28.666 -26.167 -33.999 -42.5s-8 -36.833 -8 -61.5v-39v-411c3.33301 -0.666992 6.33301 -1 9 -1
c20 -3.33301 36.667 -5 50 -5h60c14.667 0 26.667 0.666992 36 2s17.333 2.66602 24 3.99902v411v33c0 33.333 -3.5 57.166 -10.5 71.499s-17.5 26.166 -31.5 35.499l269 3c-17.333 -12 -28.666 -27 -33.999 -45s-8 -39.667 -8 -65v-33v-372v-39
c0 -25.333 2.5 -45.833 7.5 -61.5s16.167 -28.834 33.5 -39.501l-204 -3c-27.333 0 -50.833 -6 -70.5 -18s-33.5 -27.333 -41.5 -46c-8 18.667 -21.833 34 -41.5 46s-43.167 18 -70.5 18z" />
    <glyph glyph-name="c143" unicode="&#x40f;" horiz-adv-x="660" 
d="M217 0l-204.001 0.00585938c17.333 12 28.666 27 33.999 45s8 39.667 8 65v33v372v33c0 33.333 -3.5 57.166 -10.5 71.499s-17.5 26.166 -31.5 35.499l269 3c-17.333 -12 -28.666 -26.167 -33.999 -42.5s-8 -36.833 -8 -61.5v-39v-411c3.33301 -0.666992 6.33301 -1 9 -1
c20 -3.33301 36.667 -5 50 -5h60c14.667 0 26.667 0.666992 36 2s17.333 2.66602 24 3.99902v411v33c0 33.333 -3.5 57.166 -10.5 71.499s-17.5 26.166 -31.5 35.499l269 3c-17.333 -12 -28.666 -27 -33.999 -45s-8 -39.667 -8 -65v-33v-372v-39
c0 -25.333 2.5 -45.833 7.5 -61.5s16.167 -28.834 33.5 -39.501l-204 -3c-27.333 0 -50.833 -6 -70.5 -18s-33.5 -27.333 -41.5 -46c-8 18.667 -21.833 34 -41.5 46s-43.167 18 -70.5 18z" />
    <glyph glyph-name="c144" 
d="M349 267v17.9971c0 12 -0.5 22.167 -1.5 30.5s-3.16699 15.833 -6.5 22.5c-10.667 20.667 -28.334 31 -53.001 31c-30 0 -48.667 -13.333 -56 -40c-1.33301 -4.66699 -2.33301 -11.834 -3 -21.501s-1 -17.167 -1 -22.5v-27v-148c0 -37.333 2.16699 -61.666 6.5 -72.999
s13.5 -22.666 27.5 -33.999l-241 -3c14 12.667 23.167 25.834 27.5 39.501s6.5 30.167 6.5 49.5v21v404h-77v69l39.5 2c13.667 0.666992 26.167 2.33398 37.5 5.00098c0 13.333 -2.33301 24.833 -7 34.5s-13.667 19.834 -27 30.501l133 3c14.667 0 27.5 1.16699 38.5 3.5
s21.833 6.5 32.5 12.5l3 -68h192v-93h-192v-82c15.333 15.333 34 26.166 56 32.499s45 9.5 69 9.5c28.667 0 54.834 -4.5 78.501 -13.5s44.5 -23.833 62.5 -44.5c12 -13.333 19.667 -27.666 23 -42.999s5 -35.333 5 -60v-37v-251v-30c0 -36.667 -2.66699 -64 -8 -82
c-8 -27.333 -24.667 -49.333 -50 -66s-55.5 -30.334 -90.5 -41.001s-68.167 -16 -99.5 -16l5 5c31.333 31.333 51.333 59 60 83c6.66699 18.667 10 49.667 10 93v297z" />
    <glyph glyph-name="c144" unicode="&#x452;" 
d="M349 267v17.9971c0 12 -0.5 22.167 -1.5 30.5s-3.16699 15.833 -6.5 22.5c-10.667 20.667 -28.334 31 -53.001 31c-30 0 -48.667 -13.333 -56 -40c-1.33301 -4.66699 -2.33301 -11.834 -3 -21.501s-1 -17.167 -1 -22.5v-27v-148c0 -37.333 2.16699 -61.666 6.5 -72.999
s13.5 -22.666 27.5 -33.999l-241 -3c14 12.667 23.167 25.834 27.5 39.501s6.5 30.167 6.5 49.5v21v404h-77v69l39.5 2c13.667 0.666992 26.167 2.33398 37.5 5.00098c0 13.333 -2.33301 24.833 -7 34.5s-13.667 19.834 -27 30.501l133 3c14.667 0 27.5 1.16699 38.5 3.5
s21.833 6.5 32.5 12.5l3 -68h192v-93h-192v-82c15.333 15.333 34 26.166 56 32.499s45 9.5 69 9.5c28.667 0 54.834 -4.5 78.501 -13.5s44.5 -23.833 62.5 -44.5c12 -13.333 19.667 -27.666 23 -42.999s5 -35.333 5 -60v-37v-251v-30c0 -36.667 -2.66699 -64 -8 -82
c-8 -27.333 -24.667 -49.333 -50 -66s-55.5 -30.334 -90.5 -41.001s-68.167 -16 -99.5 -16l5 5c31.333 31.333 51.333 59 60 83c6.66699 18.667 10 49.667 10 93v297z" />
    <glyph glyph-name="c157" horiz-adv-x="560" 
d="M233 262l79.998 92.001l21 24c6.66699 9.33301 10 18.666 10 27.999c0 11.333 -3.5 21.5 -10.5 30.5s-15.833 15.833 -26.5 20.5l231 3l-155 -175l132 -206c14 -22 23.667 -36.333 29 -43c11.333 -13.333 24 -24.333 38 -33
c-21.333 -1.33301 -42.666 -2.33301 -63.999 -3c-57.333 -3.33301 -93.333 -5 -108 -5c-25.333 0 -45.666 9.33301 -60.999 28c-4 4.66699 -12 17.334 -24 38.001l-92 152v-102c0 -30.667 1.5 -52.667 4.5 -66s13.167 -27.333 30.5 -42l-243 -3c17.333 16 28 33 32 51
c2 8.66699 3 28.667 3 60v239v17c0 27.333 -2.83301 46.666 -8.5 57.999s-14.5 22 -26.5 32l243 3c-15.333 -14 -25 -27.5 -29 -40.5s-6 -30.5 -6 -52.5v-17v-88zM427.998 594.001l-234 -87l-58 35l242 138z" />
    <glyph glyph-name="c157" unicode="&#x45c;" horiz-adv-x="560" 
d="M233 262l79.998 92.001l21 24c6.66699 9.33301 10 18.666 10 27.999c0 11.333 -3.5 21.5 -10.5 30.5s-15.833 15.833 -26.5 20.5l231 3l-155 -175l132 -206c14 -22 23.667 -36.333 29 -43c11.333 -13.333 24 -24.333 38 -33
c-21.333 -1.33301 -42.666 -2.33301 -63.999 -3c-57.333 -3.33301 -93.333 -5 -108 -5c-25.333 0 -45.666 9.33301 -60.999 28c-4 4.66699 -12 17.334 -24 38.001l-92 152v-102c0 -30.667 1.5 -52.667 4.5 -66s13.167 -27.333 30.5 -42l-243 -3c17.333 16 28 33 32 51
c2 8.66699 3 28.667 3 60v239v17c0 27.333 -2.83301 46.666 -8.5 57.999s-14.5 22 -26.5 32l243 3c-15.333 -14 -25 -27.5 -29 -40.5s-6 -30.5 -6 -52.5v-17v-88zM427.998 594.001l-234 -87l-58 35l242 138z" />
    <glyph glyph-name="c158" 
d="M420 513l-192.001 -0.00488281v-82c15.333 15.333 34 26.166 56 32.499s45 9.5 69 9.5c28.667 0 54.834 -4.5 78.501 -13.5s44.5 -23.833 62.5 -44.5c12 -13.333 19.667 -27.666 23 -42.999s5 -35.333 5 -60v-37v-165v-46c2.66699 -23.333 14.334 -43.666 35.001 -60.999
l-243 -3c17.333 15.333 28 32 32 50c2 8.66699 3 28.667 3 60v157v18c0 12 -0.5 22.167 -1.5 30.5s-3.16699 15.833 -6.5 22.5c-10.667 20.667 -28.334 31 -53.001 31c-30 0 -48.667 -13.333 -56 -40c-1.33301 -4.66699 -2.33301 -11.834 -3 -21.501s-1 -17.167 -1 -22.5
v-27v-148c0 -37.333 2.16699 -61.666 6.5 -72.999s13.5 -22.666 27.5 -33.999l-241 -3c14 12.667 23.167 25.834 27.5 39.501s6.5 30.167 6.5 49.5v21v404h-77v69l39.5 2c13.667 0.666992 26.167 2.33398 37.5 5.00098c0 13.333 -2.33301 24.833 -7 34.5
s-13.667 19.834 -27 30.501l133 3c14.667 0 27.5 1.16699 38.5 3.5s21.833 6.5 32.5 12.5l3 -68h192v-93z" />
    <glyph glyph-name="c158" unicode="&#x45b;" 
d="M420 513l-192.001 -0.00488281v-82c15.333 15.333 34 26.166 56 32.499s45 9.5 69 9.5c28.667 0 54.834 -4.5 78.501 -13.5s44.5 -23.833 62.5 -44.5c12 -13.333 19.667 -27.666 23 -42.999s5 -35.333 5 -60v-37v-165v-46c2.66699 -23.333 14.334 -43.666 35.001 -60.999
l-243 -3c17.333 15.333 28 32 32 50c2 8.66699 3 28.667 3 60v157v18c0 12 -0.5 22.167 -1.5 30.5s-3.16699 15.833 -6.5 22.5c-10.667 20.667 -28.334 31 -53.001 31c-30 0 -48.667 -13.333 -56 -40c-1.33301 -4.66699 -2.33301 -11.834 -3 -21.501s-1 -17.167 -1 -22.5
v-27v-148c0 -37.333 2.16699 -61.666 6.5 -72.999s13.5 -22.666 27.5 -33.999l-241 -3c14 12.667 23.167 25.834 27.5 39.501s6.5 30.167 6.5 49.5v21v404h-77v69l39.5 2c13.667 0.666992 26.167 2.33398 37.5 5.00098c0 13.333 -2.33301 24.833 -7 34.5
s-13.667 19.834 -27 30.501l133 3c14.667 0 27.5 1.16699 38.5 3.5s21.833 6.5 32.5 12.5l3 -68h192v-93z" />
    <glyph glyph-name="nonbreakingspace" unicode="&#xa0;" horiz-adv-x="250" 
 />
    <glyph glyph-name="exclamdown" unicode="&#xa1;" horiz-adv-x="640" 
d="M308 166c-14.667 15.333 -25.999 27.667 -33.999 37c-27.333 31.333 -47.333 58.333 -60 81l-172 307c-6.66699 12 -14.5 23.5 -23.5 34.5s-19.833 20.833 -32.5 29.5l241 3l-1 -6c0 -12 2 -23.333 6 -34s12.333 -28 25 -52l129 -237l101 233
c4 8.66699 7.33301 16.5 10 23.5s4 13.5 4 19.5c0 12 -3.5 21.5 -10.5 28.5s-18.167 14.167 -33.5 21.5l179 3l-230 -509c-50 -109.333 -106 -164 -168 -164l-67 101h10c31.333 0 57.166 6 77.499 18s36.833 32.667 49.5 62zM210.001 854.001
c11.333 -20.667 27.3311 -35.333 47.998 -44s44.667 -13 72 -13c28 0 51.833 4 71.5 12s35.834 23 48.501 45l54 -24c-17.333 -38.667 -40 -66.667 -68 -84s-63.333 -26 -106 -26c-44 0 -79.667 8.5 -107 25.5s-49.666 45.167 -66.999 84.5z" />
    <glyph glyph-name="exclamdown" unicode="&#x40e;" horiz-adv-x="640" 
d="M308 166c-14.667 15.333 -25.999 27.667 -33.999 37c-27.333 31.333 -47.333 58.333 -60 81l-172 307c-6.66699 12 -14.5 23.5 -23.5 34.5s-19.833 20.833 -32.5 29.5l241 3l-1 -6c0 -12 2 -23.333 6 -34s12.333 -28 25 -52l129 -237l101 233
c4 8.66699 7.33301 16.5 10 23.5s4 13.5 4 19.5c0 12 -3.5 21.5 -10.5 28.5s-18.167 14.167 -33.5 21.5l179 3l-230 -509c-50 -109.333 -106 -164 -168 -164l-67 101h10c31.333 0 57.166 6 77.499 18s36.833 32.667 49.5 62zM210.001 854.001
c11.333 -20.667 27.3311 -35.333 47.998 -44s44.667 -13 72 -13c28 0 51.833 4 71.5 12s35.834 23 48.501 45l54 -24c-17.333 -38.667 -40 -66.667 -68 -84s-63.333 -26 -106 -26c-44 0 -79.667 8.5 -107 25.5s-49.666 45.167 -66.999 84.5z" />
    <glyph glyph-name="cent" unicode="&#xa2;" horiz-adv-x="480" 
d="M346 350c4.66699 12.667 8.00391 23.1699 10.0039 31.5029s3 17.166 3 26.499c0 11.333 -1.83301 20.166 -5.5 26.499s-9.83398 13.833 -18.501 22.5l147 3l-188 -497c-14.667 -40.667 -27 -68.334 -37 -83.001c-15.333 -23.333 -38.333 -43.333 -69 -60
c-20 -10 -43.333 -17.167 -70 -21.5s-53.334 -6.5 -80.001 -6.5l-45 3l79 100c9.33301 -2.66699 16.666 -4 21.999 -4c34.667 0 62.334 11.667 83.001 35c16 18 29.333 46 40 84c-20 13.333 -36.333 28.333 -49 45s-24.334 37.667 -35.001 63l-104 248
c-8.66699 20.667 -17.334 37.667 -26.001 51c-11.333 18 -24 31.333 -38 40l220 3c1.33301 -8.66699 3.83301 -18 7.5 -28s7.5 -19.667 11.5 -29l9 -23l77 -190zM120.004 656.003l-53.999 -23.998c17.333 -38.667 39.833 -66.667 67.5 -84s63.167 -26 106.5 -26
s78.833 8.5 106.5 25.5s50.167 45.167 67.5 84.5l-54 24c-12 -20.667 -28.333 -35.334 -49 -44.001s-44.334 -13 -71.001 -13c-28 0 -51 3.66699 -69 11c-22 9.33301 -39 24.666 -51 45.999z" />
    <glyph glyph-name="cent" unicode="&#x45e;" horiz-adv-x="480" 
d="M346 350c4.66699 12.667 8.00391 23.1699 10.0039 31.5029s3 17.166 3 26.499c0 11.333 -1.83301 20.166 -5.5 26.499s-9.83398 13.833 -18.501 22.5l147 3l-188 -497c-14.667 -40.667 -27 -68.334 -37 -83.001c-15.333 -23.333 -38.333 -43.333 -69 -60
c-20 -10 -43.333 -17.167 -70 -21.5s-53.334 -6.5 -80.001 -6.5l-45 3l79 100c9.33301 -2.66699 16.666 -4 21.999 -4c34.667 0 62.334 11.667 83.001 35c16 18 29.333 46 40 84c-20 13.333 -36.333 28.333 -49 45s-24.334 37.667 -35.001 63l-104 248
c-8.66699 20.667 -17.334 37.667 -26.001 51c-11.333 18 -24 31.333 -38 40l220 3c1.33301 -8.66699 3.83301 -18 7.5 -28s7.5 -19.667 11.5 -29l9 -23l77 -190zM120.004 656.003l-53.999 -23.998c17.333 -38.667 39.833 -66.667 67.5 -84s63.167 -26 106.5 -26
s78.833 8.5 106.5 25.5s50.167 45.167 67.5 84.5l-54 24c-12 -20.667 -28.333 -35.334 -49 -44.001s-44.334 -13 -71.001 -13c-28 0 -51 3.66699 -69 11c-22 9.33301 -39 24.666 -51 45.999z" />
    <glyph glyph-name="sterling" unicode="&#xa3;" horiz-adv-x="300" 
d="M59 515l-0.00195312 33.0029c0 33.333 -3.5 57.166 -10.5 71.499s-17.5 26.166 -31.5 35.499l269 3c-17.333 -12 -28.666 -27 -33.999 -45s-8 -39.667 -8 -65v-33v-488c0 -45.333 -4.66699 -78.333 -14 -99c-11.333 -26 -35.333 -50.333 -72 -73
c-30.667 -19.333 -59 -34 -85 -44c-33.333 -13.333 -64.333 -20 -93 -20c22.667 30 41.334 63 56.001 99c11.333 28 18 54.667 20 80s3 61.666 3 108.999v436z" />
    <glyph glyph-name="sterling" unicode="&#x408;" horiz-adv-x="300" 
d="M59 515l-0.00195312 33.0029c0 33.333 -3.5 57.166 -10.5 71.499s-17.5 26.166 -31.5 35.499l269 3c-17.333 -12 -28.666 -27 -33.999 -45s-8 -39.667 -8 -65v-33v-488c0 -45.333 -4.66699 -78.333 -14 -99c-11.333 -26 -35.333 -50.333 -72 -73
c-30.667 -19.333 -59 -34 -85 -44c-33.333 -13.333 -64.333 -20 -93 -20c22.667 30 41.334 63 56.001 99c11.333 28 18 54.667 20 80s3 61.666 3 108.999v436z" />
    <glyph glyph-name="currency" unicode="&#xa4;" horiz-adv-x="560" 
d="M93 209c-11.333 20 -19.834 39.167 -25.501 57.5s-8.5 38.166 -8.5 59.499c0 43.333 11.333 83.333 34 120l-40 40l70 72l41 -41c36 23.333 75.333 35 118 35c44.667 0 85.334 -11.667 122.001 -35l41 41l69 -72l-41 -40c23.333 -35.333 35 -75 35 -119
c0 -45.333 -11.667 -84.666 -35 -117.999l41 -40l-69 -71l-41 40c-18 -10.667 -37.167 -19.167 -57.5 -25.5s-40.5 -9.5 -60.5 -9.5c-46 0 -86.667 11.667 -122 35l-41 -40l-70 71zM195.999 326c0 -25.333 8.66602 -46.001 25.999 -62.001s39 -24 65 -24
c24 0 44 8.66699 60 26s24 38 24 62c0 22.667 -8.16699 42.834 -24.5 60.501s-36.166 26.5 -59.499 26.5c-25.333 0 -46.833 -8.5 -64.5 -25.5s-26.5 -38.167 -26.5 -63.5z" />
    <glyph glyph-name="yen" unicode="&#xa5;" horiz-adv-x="420" 
d="M242 146c0 -38 1.66895 -63.998 5.00195 -77.998c6 -24.667 19 -46.334 39 -65.001l-271 -3c17.333 12 28.666 27 33.999 45s8 39.667 8 65v33v373v33c0 33.333 -3.33301 57.166 -10 71.499s-17.334 25.833 -32.001 34.5l249 3c38.667 0 66 1.66699 82 5
c26 5.33301 46.333 17.333 61 36l3 -170c-11.333 14 -28.333 22.667 -51 26s-51 5 -85 5h-32v-414z" />
    <glyph glyph-name="yen" unicode="&#x490;" horiz-adv-x="420" 
d="M242 146c0 -38 1.66895 -63.998 5.00195 -77.998c6 -24.667 19 -46.334 39 -65.001l-271 -3c17.333 12 28.666 27 33.999 45s8 39.667 8 65v33v373v33c0 33.333 -3.33301 57.166 -10 71.499s-17.334 25.833 -32.001 34.5l249 3c38.667 0 66 1.66699 82 5
c26 5.33301 46.333 17.333 61 36l3 -170c-11.333 14 -28.333 22.667 -51 26s-51 5 -85 5h-32v-414z" />
    <glyph glyph-name="brokenbar" unicode="&#xa6;" horiz-adv-x="600" 
d="M257 670h85v-223h-85v223zM257 223h85v-223h-85v223z" />
    <glyph glyph-name="section" unicode="&#xa7;" horiz-adv-x="500" 
d="M427 485c-30.667 24 -53.334 40.001 -68.001 48.001c-25.333 14 -52 21 -80 21c-14.667 0 -29.334 -2.5 -44.001 -7.5s-22 -13.5 -22 -25.5c0 -8.66699 3.16699 -15.5 9.5 -20.5s15.5 -10.667 27.5 -17l27 -14.5c35.333 -17.333 62 -31.333 80 -42
c10.667 -6 25.334 -16.333 44.001 -31c41.333 -30.667 62 -72.334 62 -125.001c0 -23.333 -3.5 -43.333 -10.5 -60s-18.833 -36.667 -35.5 -60c11.333 -13.333 19.333 -27.666 24 -42.999s7 -32.333 7 -51c0 -61.333 -24.667 -112 -74 -152
c-22 -18 -47.167 -31.167 -75.5 -39.5s-58.166 -12.5 -89.499 -12.5c-29.333 0 -58 3.16699 -86 9.5s-56.667 15.5 -86 27.5v161c28.667 -20 54.667 -35.333 78 -46c31.333 -14.667 61 -22 89 -22c22 0 41.333 4.33301 58 13c22 11.333 33 26.666 33 45.999
c0 18.667 -22 40 -66 64c-69.333 37.333 -110.666 61.333 -123.999 72c-45.333 36 -68 77 -68 123c0 24 4.83301 46.667 14.5 68s23.5 41.333 41.5 60c-10.667 12 -18.167 25.667 -22.5 41s-6.5 32 -6.5 50c0 50.667 21.667 90 65 118c37.333 24 82.666 36 135.999 36
c54 0 108 -9.33301 162 -28v-161zM227 334.001l-35 19.999c-1.33301 -3.33301 -2.33301 -6.66602 -3 -9.99902c-3.33301 -9.33301 -5 -15.333 -5 -18c0 -18 18.667 -37.667 56 -59l79 -44c2.66699 6 4 13 4 21c0 16.667 -7 31.334 -21 44.001
c-8 7.33301 -22.333 16.666 -43 27.999z" />
    <glyph glyph-name="dieresis" unicode="&#xa8;" horiz-adv-x="500" 
d="M240 111c14 -5.33301 30.001 -9.16699 48.001 -11.5s37 -3.5 57 -3.5c32.667 0 59.334 3.33301 80.001 10c26 8.66699 48 23.667 66 45h5l-40 -151h-443c16.667 12 28.334 28.333 35.001 49c4.66699 15.333 7 35.333 7 60v33v374v33c0 33.333 -3.33301 57.166 -10 71.499
s-17.334 25.833 -32.001 34.5l350 3h11c14 0 24.333 1.66699 31 5l3 -145c-11.333 18 -25.833 29.5 -43.5 34.5s-40.834 7.5 -69.501 7.5h-23h-32v-162h93c17.333 0 29.666 1.66699 36.999 5h5v-140h-5c-4 12.667 -11.5 21.834 -22.5 27.501s-31.167 8.5 -60.5 8.5h-14h-33
v-188zM258.001 786.999c0 24 7.83301 44.168 23.5 60.501s35.167 24.5 58.5 24.5c22.667 0 41.834 -7.83301 57.501 -23.5s23.5 -34.834 23.5 -57.501c0 -23.333 -8.33301 -43 -25 -59s-36.667 -24 -60 -24c-20.667 0 -38.834 7.83301 -54.501 23.5s-23.5 34.167 -23.5 55.5
zM61.001 787c0 24 7.83105 44.168 23.498 60.501s35.167 24.5 58.5 24.5c22.667 0 41.834 -7.83301 57.501 -23.5s23.5 -34.834 23.5 -57.501c0 -23.333 -8.33301 -43 -25 -59s-36.667 -24 -60 -24c-21.333 0 -39.666 7.66699 -54.999 23s-23 34 -23 56z" />
    <glyph glyph-name="dieresis" unicode="&#x401;" horiz-adv-x="500" 
d="M240 111c14 -5.33301 30.001 -9.16699 48.001 -11.5s37 -3.5 57 -3.5c32.667 0 59.334 3.33301 80.001 10c26 8.66699 48 23.667 66 45h5l-40 -151h-443c16.667 12 28.334 28.333 35.001 49c4.66699 15.333 7 35.333 7 60v33v374v33c0 33.333 -3.33301 57.166 -10 71.499
s-17.334 25.833 -32.001 34.5l350 3h11c14 0 24.333 1.66699 31 5l3 -145c-11.333 18 -25.833 29.5 -43.5 34.5s-40.834 7.5 -69.501 7.5h-23h-32v-162h93c17.333 0 29.666 1.66699 36.999 5h5v-140h-5c-4 12.667 -11.5 21.834 -22.5 27.501s-31.167 8.5 -60.5 8.5h-14h-33
v-188zM258.001 786.999c0 24 7.83301 44.168 23.5 60.501s35.167 24.5 58.5 24.5c22.667 0 41.834 -7.83301 57.501 -23.5s23.5 -34.834 23.5 -57.501c0 -23.333 -8.33301 -43 -25 -59s-36.667 -24 -60 -24c-20.667 0 -38.834 7.83301 -54.501 23.5s-23.5 34.167 -23.5 55.5
zM61.001 787c0 24 7.83105 44.168 23.498 60.501s35.167 24.5 58.5 24.5c22.667 0 41.834 -7.83301 57.501 -23.5s23.5 -34.834 23.5 -57.501c0 -23.333 -8.33301 -43 -25 -59s-36.667 -24 -60 -24c-21.333 0 -39.666 7.66699 -54.999 23s-23 34 -23 56z" />
    <glyph glyph-name="copyright" unicode="&#xa9;" horiz-adv-x="720" 
d="M21 331c0 95.333 33.001 176.333 99.001 243s146.333 100 241 100c92 0 171.333 -33.333 238 -100s100 -147 100 -241c0 -96 -33 -177.667 -99 -245s-147 -101 -243 -101c-92.667 0 -171.834 33.833 -237.501 101.5s-98.5 148.5 -98.5 242.5zM653.001 329
c0 83.333 -28.3311 154.001 -84.998 212.001s-126.334 87 -209.001 87c-80 0 -148.667 -29 -206 -87s-86 -127.667 -86 -209c0 -82 28.667 -152 86 -210s127 -87 209 -87c79.333 0 147.666 28.667 204.999 86s86 126.666 86 207.999zM545.003 244.001
c-12 -37.333 -35.332 -65.999 -69.999 -85.999s-72.667 -30 -114 -30c-58.667 0 -105.5 18.5 -140.5 55.5s-52.5 85.167 -52.5 144.5c0 61.333 19.167 111.833 57.5 151.5s87.5 59.5 147.5 59.5c38.667 0 74 -9.33301 106 -28c36 -21.333 58 -50 66 -86l-62 -14
c-5.33301 29.333 -17.833 51.5 -37.5 66.5s-44.834 22.5 -75.501 22.5c-44.667 0 -80 -17.333 -106 -52c-23.333 -31.333 -35 -70.333 -35 -117s11.833 -85.334 35.5 -116.001s58.167 -46 103.5 -46c30.667 0 56.167 7.83301 76.5 23.5s35.5 38.167 45.5 67.5z" />
    <glyph glyph-name="ordfeminine" unicode="&#xaa;" horiz-adv-x="660" 
d="M654 157l-49.998 -146.003c-32 -8.66699 -63.5 -14.834 -94.5 -18.501s-65.833 -5.5 -104.5 -5.5c-55.333 0 -102.666 5.66699 -141.999 17c-46 13.333 -88.167 36.333 -126.5 69s-67.5 71.334 -87.5 116.001s-30 93 -30 145c0 47.333 9.5 93.333 28.5 138
s46.167 82.334 81.5 113.001s77.166 53.167 125.499 67.5s99.166 21.5 152.499 21.5l151 -13l7 -140c-51.333 34.667 -107 52 -167 52c-54 0 -95.667 -16.667 -125 -50c-25.333 -29.333 -41.333 -70.666 -48 -123.999h236c17.333 0 29.666 1.66699 36.999 5h5v-140h-5
c-4 12.667 -11.5 21.834 -22.5 27.501s-31.167 8.5 -60.5 8.5h-14h-177c6.66699 -62.667 27 -112 61 -148c37.333 -40 88.333 -60 153 -60c36 0 73.333 6.33301 112 19c31.333 10 66 25.333 104 46z" />
    <glyph glyph-name="ordfeminine" unicode="&#x404;" horiz-adv-x="660" 
d="M654 157l-49.998 -146.003c-32 -8.66699 -63.5 -14.834 -94.5 -18.501s-65.833 -5.5 -104.5 -5.5c-55.333 0 -102.666 5.66699 -141.999 17c-46 13.333 -88.167 36.333 -126.5 69s-67.5 71.334 -87.5 116.001s-30 93 -30 145c0 47.333 9.5 93.333 28.5 138
s46.167 82.334 81.5 113.001s77.166 53.167 125.499 67.5s99.166 21.5 152.499 21.5l151 -13l7 -140c-51.333 34.667 -107 52 -167 52c-54 0 -95.667 -16.667 -125 -50c-25.333 -29.333 -41.333 -70.666 -48 -123.999h236c17.333 0 29.666 1.66699 36.999 5h5v-140h-5
c-4 12.667 -11.5 21.834 -22.5 27.501s-31.167 8.5 -60.5 8.5h-14h-177c6.66699 -62.667 27 -112 61 -148c37.333 -40 88.333 -60 153 -60c36 0 73.333 6.33301 112 19c31.333 10 66 25.333 104 46z" />
    <glyph glyph-name="guillemotleft" unicode="&#xab;" horiz-adv-x="520" 
d="M269 108h-92l-118 140l118 142h92l-89 -142zM452 108h-92l-118 140l118 142h92l-89 -142z" />
    <glyph glyph-name="logicalnot" unicode="&#xac;" horiz-adv-x="600" 
d="M450 263h-383v86h467v-284h-84v198z" />
    <glyph glyph-name="minus" unicode="&#xad;" 
d="M512 541h-446v96h446v-96z" />
    <glyph glyph-name="registered" unicode="&#xae;" horiz-adv-x="720" 
d="M21 333c0 95.333 33.332 176 99.999 242s147.334 99 242.001 99c94 0 173.667 -33.333 239 -100s98 -147.667 98 -243s-33.167 -176.5 -99.5 -243.5s-146.833 -100.5 -241.5 -100.5c-94 0 -173.833 33.833 -239.5 101.5s-98.5 149.167 -98.5 244.5zM654.999 333
c0 82 -29.001 151.667 -87.001 209s-127.667 86 -209 86c-79.333 0 -147.666 -29 -204.999 -87s-86 -127 -86 -207c0 -82 28.167 -152.5 84.5 -211.5s124.833 -88.5 205.5 -88.5c82 0 152 29 210 87s87 128.667 87 212zM542.998 130h-67.001l-109 185h-88v-185h-57v410h182
c46 0 80 -6.66699 102 -20c29.333 -18 44 -48.667 44 -92c0 -37.333 -11.167 -65.5 -33.5 -84.5s-52.166 -28.5 -89.499 -28.5zM383.997 360c33.333 0 58 3.66699 74 11c23.333 10.667 35 31 35 61c0 20 -6.66699 35.333 -20 46c-16 12.667 -43.333 19 -82 19h-112v-137h105
z" />
    <glyph glyph-name="macron" unicode="&#xaf;" horiz-adv-x="300" 
d="M242 142l-0.00292969 -32.998c0 -33.333 3.33301 -57 10 -71s17.334 -25.667 32.001 -35l-269 -3c16.667 12 28.334 28.333 35.001 49c4.66699 15.333 7 35.333 7 60v33v373v33c0 33.333 -3.5 57.166 -10.5 71.499s-17.5 26.166 -31.5 35.499l269 3
c-17.333 -12 -28.666 -27 -33.999 -45s-8 -39.667 -8 -65v-33v-373zM162.997 784.002c0 24 7.83301 44.168 23.5 60.501s35.167 24.5 58.5 24.5c22.667 0 41.834 -7.83301 57.501 -23.5s23.5 -34.834 23.5 -57.501c0 -23.333 -8.33301 -43 -25 -59s-36.667 -24 -60 -24
c-20.667 0 -38.834 7.83301 -54.501 23.5s-23.5 34.167 -23.5 55.5zM-34.0029 784.003c0 24 7.83105 44.168 23.498 60.501s35.167 24.5 58.5 24.5c22.667 0 41.834 -7.83301 57.501 -23.5s23.5 -34.834 23.5 -57.501c0 -23.333 -8.33301 -43 -25 -59s-36.667 -24 -60 -24
c-21.333 0 -39.666 7.66699 -54.999 23s-23 34 -23 56z" />
    <glyph glyph-name="macron" unicode="&#x407;" horiz-adv-x="300" 
d="M242 142l-0.00292969 -32.998c0 -33.333 3.33301 -57 10 -71s17.334 -25.667 32.001 -35l-269 -3c16.667 12 28.334 28.333 35.001 49c4.66699 15.333 7 35.333 7 60v33v373v33c0 33.333 -3.5 57.166 -10.5 71.499s-17.5 26.166 -31.5 35.499l269 3
c-17.333 -12 -28.666 -27 -33.999 -45s-8 -39.667 -8 -65v-33v-373zM162.997 784.002c0 24 7.83301 44.168 23.5 60.501s35.167 24.5 58.5 24.5c22.667 0 41.834 -7.83301 57.501 -23.5s23.5 -34.834 23.5 -57.501c0 -23.333 -8.33301 -43 -25 -59s-36.667 -24 -60 -24
c-20.667 0 -38.834 7.83301 -54.501 23.5s-23.5 34.167 -23.5 55.5zM-34.0029 784.003c0 24 7.83105 44.168 23.498 60.501s35.167 24.5 58.5 24.5c22.667 0 41.834 -7.83301 57.501 -23.5s23.5 -34.834 23.5 -57.501c0 -23.333 -8.33301 -43 -25 -59s-36.667 -24 -60 -24
c-21.333 0 -39.666 7.66699 -54.999 23s-23 34 -23 56z" />
    <glyph glyph-name="degree" unicode="&#xb0;" horiz-adv-x="400" 
d="M200 374c-41.333 0 -76.666 14.667 -105.999 44s-44 64.666 -44 105.999s14.667 76.666 44 105.999s64.666 44 105.999 44s76.666 -14.667 105.999 -44s44 -64.666 44 -105.999s-14.667 -76.666 -44 -105.999s-64.666 -44 -105.999 -44zM200 624
c-28 0 -51.667 -9.66699 -71 -29s-29 -43 -29 -71s9.66699 -51.667 29 -71s43 -29 71 -29s51.667 9.66699 71 29s29 43 29 71s-9.66699 51.667 -29 71s-43 29 -71 29z" />
    <glyph glyph-name="plusminus" unicode="&#xb1;" horiz-adv-x="600" 
d="M257 342v126h86v-126h191v-86h-191v-126h-86v126h-191v86h191zM66 86h468v-86h-468v86z" />
    <glyph glyph-name="twosuperior" unicode="&#xb2;" horiz-adv-x="300" 
d="M242 142l-0.00292969 -32.998c0 -33.333 3.33301 -57 10 -71s17.334 -25.667 32.001 -35l-269 -3c16.667 12 28.334 28.333 35.001 49c4.66699 15.333 7 35.333 7 60v33v373v33c0 33.333 -3.5 57.166 -10.5 71.499s-17.5 26.166 -31.5 35.499l269 3
c-17.333 -12 -28.666 -27 -33.999 -45s-8 -39.667 -8 -65v-33v-373z" />
    <glyph glyph-name="twosuperior" unicode="&#x406;" horiz-adv-x="300" 
d="M242 142l-0.00292969 -32.998c0 -33.333 3.33301 -57 10 -71s17.334 -25.667 32.001 -35l-269 -3c16.667 12 28.334 28.333 35.001 49c4.66699 15.333 7 35.333 7 60v33v373v33c0 33.333 -3.5 57.166 -10.5 71.499s-17.5 26.166 -31.5 35.499l269 3
c-17.333 -12 -28.666 -27 -33.999 -45s-8 -39.667 -8 -65v-33v-373z" />
    <glyph glyph-name="threesuperior" unicode="&#xb3;" horiz-adv-x="280" 
d="M155 460c14 0 26.5 0.998047 37.5 2.99805s21.167 6 30.5 12l3 -365c0 -30.667 1.5 -52.5 4.5 -65.5s13.167 -26.833 30.5 -41.5l-243 -3c17.333 16 28 33 32 51c2 8.66699 3 28.334 3 59.001v240v17c0 28 -2.5 47.333 -7.5 58s-13.833 21.334 -26.5 32.001zM39 571.998
c0 27.333 9 50.667 27 70s40.667 29 68 29c25.333 0 47.333 -9.33301 66 -28s28 -40.667 28 -66c0 -27.333 -9.33301 -50.333 -28 -69s-42 -28 -70 -28c-24.667 0 -46 9.33301 -64 28s-27 40 -27 64z" />
    <glyph glyph-name="threesuperior" unicode="&#x456;" horiz-adv-x="280" 
d="M155 460c14 0 26.5 0.998047 37.5 2.99805s21.167 6 30.5 12l3 -365c0 -30.667 1.5 -52.5 4.5 -65.5s13.167 -26.833 30.5 -41.5l-243 -3c17.333 16 28 33 32 51c2 8.66699 3 28.334 3 59.001v240v17c0 28 -2.5 47.333 -7.5 58s-13.833 21.334 -26.5 32.001zM39 571.998
c0 27.333 9 50.667 27 70s40.667 29 68 29c25.333 0 47.333 -9.33301 66 -28s28 -40.667 28 -66c0 -27.333 -9.33301 -50.333 -28 -69s-42 -28 -70 -28c-24.667 0 -46 9.33301 -64 28s-27 40 -27 64z" />
    <glyph glyph-name="acute" unicode="&#xb4;" horiz-adv-x="400" 
d="M233 110l-0.000976562 -46c2.66699 -23.333 14.334 -43.666 35.001 -60.999l-243 -3c17.333 15.333 28 32 32 50c2 8.66699 3 28.667 3 60v240v17c0 27.333 -2.83301 46.666 -8.5 57.999s-14.5 22 -26.5 32l263 3c24.667 0 44.167 3.16699 58.5 9.5
s25.5 17.833 33.5 34.5v-165c-5.33301 11.333 -13.166 19.833 -23.499 25.5s-29.833 8.5 -58.5 8.5c-18.667 0 -33.334 -0.666992 -44.001 -2s-17.667 -2 -21 -2v-259z" />
    <glyph glyph-name="acute" unicode="&#x491;" horiz-adv-x="400" 
d="M233 110l-0.000976562 -46c2.66699 -23.333 14.334 -43.666 35.001 -60.999l-243 -3c17.333 15.333 28 32 32 50c2 8.66699 3 28.667 3 60v240v17c0 27.333 -2.83301 46.666 -8.5 57.999s-14.5 22 -26.5 32l263 3c24.667 0 44.167 3.16699 58.5 9.5
s25.5 17.833 33.5 34.5v-165c-5.33301 11.333 -13.166 19.833 -23.499 25.5s-29.833 8.5 -58.5 8.5c-18.667 0 -33.334 -0.666992 -44.001 -2s-17.667 -2 -21 -2v-259z" />
    <glyph glyph-name="mu" unicode="&#xb5;" 
d="M347 53c-28.667 -38.667 -66.999 -60.335 -114.999 -65.002l11 -196h-200l17 294c-2 22 -3 40 -3 54v16v194v17c0 27.333 -2.83301 46.5 -8.5 57.5s-14.5 21.833 -26.5 32.5l138 3c14 0 26.333 1 37 3s20.667 6 30 12l3 -257c-0.666992 -14 -1 -25 -1 -33
c0 -37.333 4.83301 -62.5 14.5 -75.5s23.834 -19.5 42.501 -19.5c21.333 0 37 7.33301 47 22c6 8.66699 9.83301 17.5 11.5 26.5s2.5 20.5 2.5 34.5v15v162v17c0 27.333 -2.83301 46.5 -8.5 57.5s-14.5 21.833 -26.5 32.5l137 3c13.333 0 25.666 1 36.999 3
s21.666 6 30.999 12l3 -365c0 -37.333 2.16699 -61.666 6.5 -72.999s13.5 -22.666 27.5 -33.999l-207 -3v53z" />
    <glyph glyph-name="paragraph" unicode="&#xb6;" horiz-adv-x="540" 
d="M309 564l0.00195312 -677.002h-127c14 12.667 23.167 25.834 27.5 39.501s6.5 30.167 6.5 49.5v21v298c-50 0 -93 17.667 -129 53s-54 78 -54 128c0 60 22.333 107.333 67 142c21.333 17.333 43.166 28.333 65.499 33s50.166 7 83.499 7h255
c-14 -12.667 -23.167 -25.834 -27.5 -39.501s-6.5 -30.167 -6.5 -49.5v-21v-551c0 -37.333 2.16699 -61.666 6.5 -72.999s13.5 -22.666 27.5 -33.999l-127 -3v677h-68z" />
    <glyph glyph-name="periodcentered" unicode="&#xb7;" horiz-adv-x="280" 
d="M45 231c0 27.333 9.16797 50.5 27.501 69.5s41.166 28.5 68.499 28.5c26 0 48 -9 66 -27s27 -40.333 27 -67c0 -28 -9.33301 -51 -28 -69s-42 -27 -70 -27c-24.667 0 -46 9 -64 27s-27 39.667 -27 65z" />
    <glyph glyph-name="periodcentered" unicode="&#x2219;" horiz-adv-x="280" 
d="M45 231c0 27.333 9.16797 50.5 27.501 69.5s41.166 28.5 68.499 28.5c26 0 48 -9 66 -27s27 -40.333 27 -67c0 -28 -9.33301 -51 -28 -69s-42 -27 -70 -27c-24.667 0 -46 9 -64 27s-27 39.667 -27 65z" />
    <glyph glyph-name="cedilla" unicode="&#xb8;" horiz-adv-x="540" 
d="M476 18c-22.667 -10 -47.833 -17.667 -75.5 -23s-54.834 -8 -81.501 -8c-40 0 -74.667 3 -104 9c-38 8 -70 21.333 -96 40c-30 21.333 -52.667 49.5 -68 84.5s-23 72.167 -23 111.5c0 70 23.333 127.667 70 173s105 68 175 68c78.667 0 137.834 -21.167 177.501 -63.5
s59.5 -102.833 59.5 -181.5h-310c0 -43.333 13.5 -78.833 40.5 -106.5s62.5 -41.5 106.5 -41.5c27.333 0 54.333 4.5 81 13.5s55.667 21.5 87 37.5zM283.001 586c0 24 7.83301 44.168 23.5 60.501s35.167 24.5 58.5 24.5c22.667 0 41.834 -7.83301 57.501 -23.5
s23.5 -34.834 23.5 -57.501c0 -23.333 -8.33301 -43 -25 -59s-36.667 -24 -60 -24c-20.667 0 -38.834 7.83301 -54.501 23.5s-23.5 34.167 -23.5 55.5zM86.001 586.001c0 24 7.83105 44.168 23.498 60.501s35.167 24.5 58.5 24.5c22.667 0 41.834 -7.83301 57.501 -23.5
s23.5 -34.834 23.5 -57.501c0 -23.333 -8.33301 -43 -25 -59s-36.667 -24 -60 -24c-21.333 0 -39.666 7.66699 -54.999 23s-23 34 -23 56zM339.999 313.002c0 21.333 -5.33398 38.833 -16.001 52.5s-27.667 20.5 -51 20.5c-21.333 0 -38.166 -6.66699 -50.499 -20
s-19.833 -31 -22.5 -53h140z" />
    <glyph glyph-name="cedilla" unicode="&#x451;" horiz-adv-x="540" 
d="M476 18c-22.667 -10 -47.833 -17.667 -75.5 -23s-54.834 -8 -81.501 -8c-40 0 -74.667 3 -104 9c-38 8 -70 21.333 -96 40c-30 21.333 -52.667 49.5 -68 84.5s-23 72.167 -23 111.5c0 70 23.333 127.667 70 173s105 68 175 68c78.667 0 137.834 -21.167 177.501 -63.5
s59.5 -102.833 59.5 -181.5h-310c0 -43.333 13.5 -78.833 40.5 -106.5s62.5 -41.5 106.5 -41.5c27.333 0 54.333 4.5 81 13.5s55.667 21.5 87 37.5zM283.001 586c0 24 7.83301 44.168 23.5 60.501s35.167 24.5 58.5 24.5c22.667 0 41.834 -7.83301 57.501 -23.5
s23.5 -34.834 23.5 -57.501c0 -23.333 -8.33301 -43 -25 -59s-36.667 -24 -60 -24c-20.667 0 -38.834 7.83301 -54.501 23.5s-23.5 34.167 -23.5 55.5zM86.001 586.001c0 24 7.83105 44.168 23.498 60.501s35.167 24.5 58.5 24.5c22.667 0 41.834 -7.83301 57.501 -23.5
s23.5 -34.834 23.5 -57.501c0 -23.333 -8.33301 -43 -25 -59s-36.667 -24 -60 -24c-21.333 0 -39.666 7.66699 -54.999 23s-23 34 -23 56zM339.999 313.002c0 21.333 -5.33398 38.833 -16.001 52.5s-27.667 20.5 -51 20.5c-21.333 0 -38.166 -6.66699 -50.499 -20
s-19.833 -31 -22.5 -53h140z" />
    <glyph glyph-name="onesuperior" unicode="&#xb9;" horiz-adv-x="1080" 
d="M746 535c0 42 13.667 75.167 41 99.5s62.333 36.5 105 36.5s77.5 -12.167 104.5 -36.5s40.5 -57.833 40.5 -100.5c0 -42 -14.167 -75.167 -42.5 -99.5s-63.833 -36.5 -106.5 -36.5s-77 12.333 -103 37s-39 58 -39 100zM942 526c0 23.333 -2.99902 42.667 -8.99902 58
c-8.66699 22 -23 33 -43 33c-18.667 0 -31.667 -6.66699 -39 -20s-11 -30.333 -11 -51c0 -27.333 2.66699 -48 8 -62c8.66699 -22.667 24 -34 46 -34c19.333 0 32.666 8.33301 39.999 25c5.33301 12 8 29 8 51zM1037 336.001v-53h-291v53h291zM633.001 -20.999
c-16.667 0 -37.333 4.66699 -62 14c-16 6 -36 15 -60 27s-44.667 25.667 -62 41c-14 12 -40 43 -78 93l-192 256l-3 -264c0 -38 2.16699 -66.5 6.5 -85.5s16.833 -38.167 37.5 -57.5l-193 -3c20 20 33 42.333 39 67c4 16 6 42.333 6 79v345c0 42 -3 72.5 -9 91.5
s-22.333 43.167 -49 72.5l208 3l307 -405v259c0 38 -1.66699 64 -5 78c-5.33301 24 -18.333 45.667 -39 65l192 3c-19.333 -20 -31.5 -40.333 -36.5 -61s-7.5 -49 -7.5 -85v-533z" />
    <glyph glyph-name="onesuperior" unicode="&#x2116;" horiz-adv-x="1080" 
d="M746 535c0 42 13.667 75.167 41 99.5s62.333 36.5 105 36.5s77.5 -12.167 104.5 -36.5s40.5 -57.833 40.5 -100.5c0 -42 -14.167 -75.167 -42.5 -99.5s-63.833 -36.5 -106.5 -36.5s-77 12.333 -103 37s-39 58 -39 100zM942 526c0 23.333 -2.99902 42.667 -8.99902 58
c-8.66699 22 -23 33 -43 33c-18.667 0 -31.667 -6.66699 -39 -20s-11 -30.333 -11 -51c0 -27.333 2.66699 -48 8 -62c8.66699 -22.667 24 -34 46 -34c19.333 0 32.666 8.33301 39.999 25c5.33301 12 8 29 8 51zM1037 336.001v-53h-291v53h291zM633.001 -20.999
c-16.667 0 -37.333 4.66699 -62 14c-16 6 -36 15 -60 27s-44.667 25.667 -62 41c-14 12 -40 43 -78 93l-192 256l-3 -264c0 -38 2.16699 -66.5 6.5 -85.5s16.833 -38.167 37.5 -57.5l-193 -3c20 20 33 42.333 39 67c4 16 6 42.333 6 79v345c0 42 -3 72.5 -9 91.5
s-22.333 43.167 -49 72.5l208 3l307 -405v259c0 38 -1.66699 64 -5 78c-5.33301 24 -18.333 45.667 -39 65l192 3c-19.333 -20 -31.5 -40.333 -36.5 -61s-7.5 -49 -7.5 -85v-533z" />
    <glyph glyph-name="ordmasculine" unicode="&#xba;" horiz-adv-x="500" 
d="M227 200c3.33301 -16 7.66797 -30.1641 13.001 -42.4971s13.166 -24.333 23.499 -36s23.666 -20.334 39.999 -26.001s33.5 -8.5 51.5 -8.5c22.667 0 45.834 4.33301 69.501 13s44.5 20 62.5 34l-29 -109c-26.667 -13.333 -54 -23 -82 -29s-58 -9 -90 -9
c-71.333 0 -131.333 21 -180 63c-51.333 44.667 -77 102.334 -77 173.001c0 79.333 27.667 141.666 83 186.999c51.333 42 117.666 63 198.999 63c12.667 0 27.334 -1 44.001 -3c39.333 -4.66699 64 -7 74 -7v-115c-18 11.333 -35 19.666 -51 24.999s-34 8 -54 8
c-32.667 0 -58 -11.667 -76 -35c-6 -8 -11 -16.833 -15 -26.5s-6.66699 -19.834 -8 -30.501h154v-89h-152z" />
    <glyph glyph-name="ordmasculine" unicode="&#x454;" horiz-adv-x="500" 
d="M227 200c3.33301 -16 7.66797 -30.1641 13.001 -42.4971s13.166 -24.333 23.499 -36s23.666 -20.334 39.999 -26.001s33.5 -8.5 51.5 -8.5c22.667 0 45.834 4.33301 69.501 13s44.5 20 62.5 34l-29 -109c-26.667 -13.333 -54 -23 -82 -29s-58 -9 -90 -9
c-71.333 0 -131.333 21 -180 63c-51.333 44.667 -77 102.334 -77 173.001c0 79.333 27.667 141.666 83 186.999c51.333 42 117.666 63 198.999 63c12.667 0 27.334 -1 44.001 -3c39.333 -4.66699 64 -7 74 -7v-115c-18 11.333 -35 19.666 -51 24.999s-34 8 -54 8
c-32.667 0 -58 -11.667 -76 -35c-6 -8 -11 -16.833 -15 -26.5s-6.66699 -19.834 -8 -30.501h154v-89h-152z" />
    <glyph glyph-name="guillemotright" unicode="&#xbb;" horiz-adv-x="520" 
d="M334 108h-92l89 140l-89 142h92l118 -142zM151 108h-92l89 140l-89 142h92l118 -142z" />
    <glyph glyph-name="onequarter" unicode="&#xbc;" horiz-adv-x="260" 
d="M144 460c18.667 0 33.168 0.833984 43.501 2.50098s20.833 5.83398 31.5 12.501l3 -451v-30c0 -36.667 -2.66699 -64 -8 -82c-8 -27.333 -24.667 -49.333 -50 -66s-55.5 -30.334 -90.5 -41.001s-68.167 -16 -99.5 -16l5 5c34 36 54.667 66 62 90
c5.33301 17.333 8 53.666 8 108.999v325v33c0 33.333 -3.33301 57 -10 71s-17.334 25.667 -32.001 35zM35.001 572.001c0 27.333 9 50.667 27 70s40.667 29 68 29c25.333 0 47.333 -9.33301 66 -28s28 -40.667 28 -66c0 -27.333 -9.33301 -50.333 -28 -69s-42 -28 -70 -28
c-24.667 0 -46 9.33301 -64 28s-27 40 -27 64z" />
    <glyph glyph-name="onequarter" unicode="&#x458;" horiz-adv-x="260" 
d="M144 460c18.667 0 33.168 0.833984 43.501 2.50098s20.833 5.83398 31.5 12.501l3 -451v-30c0 -36.667 -2.66699 -64 -8 -82c-8 -27.333 -24.667 -49.333 -50 -66s-55.5 -30.334 -90.5 -41.001s-68.167 -16 -99.5 -16l5 5c34 36 54.667 66 62 90
c5.33301 17.333 8 53.666 8 108.999v325v33c0 33.333 -3.33301 57 -10 71s-17.334 25.667 -32.001 35zM35.001 572.001c0 27.333 9 50.667 27 70s40.667 29 68 29c25.333 0 47.333 -9.33301 66 -28s28 -40.667 28 -66c0 -27.333 -9.33301 -50.333 -28 -69s-42 -28 -70 -28
c-24.667 0 -46 9.33301 -64 28s-27 40 -27 64z" />
    <glyph glyph-name="onehalf" unicode="&#xbd;" horiz-adv-x="520" 
d="M10 167c28 -22.667 61.1699 -41.332 99.5029 -55.999s75.166 -22 110.499 -22c28 0 51.333 4.66699 70 14c24 12 36 31 36 57c0 31.333 -26.333 60.333 -79 87c-87.333 44 -136.333 70 -147 78c-52.667 40 -79 92 -79 156c0 61.333 24.667 109.666 74 144.999
c23.333 16.667 50.166 28.834 80.499 36.501s61.5 11.5 93.5 11.5c60 0 116 -10 168 -30v-117c-23.333 15.333 -46.333 27 -69 35s-46.667 12 -72 12c-22.667 0 -42.834 -5.16699 -60.501 -15.5s-26.5 -26.5 -26.5 -48.5c0 -20.667 11 -38.334 33 -53.001
c8.66699 -6 29.167 -16 61.5 -30s55.5 -24.667 69.5 -32c24.667 -12.667 46 -27 64 -43c25.333 -22 44 -44.833 56 -68.5s18 -51.167 18 -82.5c0 -68.667 -26.667 -122.667 -80 -162c-27.333 -20 -56.5 -33.667 -87.5 -41s-66.5 -11 -106.5 -11c-67.333 0 -132 12 -194 36z
" />
    <glyph glyph-name="onehalf" unicode="&#x405;" horiz-adv-x="520" 
d="M10 167c28 -22.667 61.1699 -41.332 99.5029 -55.999s75.166 -22 110.499 -22c28 0 51.333 4.66699 70 14c24 12 36 31 36 57c0 31.333 -26.333 60.333 -79 87c-87.333 44 -136.333 70 -147 78c-52.667 40 -79 92 -79 156c0 61.333 24.667 109.666 74 144.999
c23.333 16.667 50.166 28.834 80.499 36.501s61.5 11.5 93.5 11.5c60 0 116 -10 168 -30v-117c-23.333 15.333 -46.333 27 -69 35s-46.667 12 -72 12c-22.667 0 -42.834 -5.16699 -60.501 -15.5s-26.5 -26.5 -26.5 -48.5c0 -20.667 11 -38.334 33 -53.001
c8.66699 -6 29.167 -16 61.5 -30s55.5 -24.667 69.5 -32c24.667 -12.667 46 -27 64 -43c25.333 -22 44 -44.833 56 -68.5s18 -51.167 18 -82.5c0 -68.667 -26.667 -122.667 -80 -162c-27.333 -20 -56.5 -33.667 -87.5 -41s-66.5 -11 -106.5 -11c-67.333 0 -132 12 -194 36z
" />
    <glyph glyph-name="threequarters" unicode="&#xbe;" horiz-adv-x="480" 
d="M16 125c27.333 -16.667 56.167 -29.999 86.5 -39.999s60.5 -15 90.5 -15c18.667 0 34 2.66699 46 8c16.667 7.33301 25 19.333 25 36c0 17.333 -20.667 35 -62 53c-66 29.333 -104.333 47.333 -115 54c-41.333 26.667 -62 59.667 -62 99c0 26.667 6.16699 50 18.5 70
s29.833 36.5 52.5 49.5s46.5 21.833 71.5 26.5s52.833 7 83.5 7c24.667 0 49.834 -1.5 75.501 -4.5s52.167 -7.83301 79.5 -14.5v-104c-39.333 26 -82 39 -128 39c-15.333 0 -29 -2.16699 -41 -6.5s-18 -12.833 -18 -25.5c0 -13.333 6.33301 -24 19 -32
c6 -4 18.5 -8.83301 37.5 -14.5l56.5 -16.5c19.333 -6.66699 37 -15.334 53 -26.001c23.333 -15.333 41.833 -32.5 55.5 -51.5s20.5 -40.833 20.5 -65.5c0 -60 -29 -104 -87 -132c-44 -21.333 -100 -32 -168 -32c-24.667 0 -50.334 2 -77.001 6s-57 9.66699 -91 17z" />
    <glyph glyph-name="threequarters" unicode="&#x455;" horiz-adv-x="480" 
d="M16 125c27.333 -16.667 56.167 -29.999 86.5 -39.999s60.5 -15 90.5 -15c18.667 0 34 2.66699 46 8c16.667 7.33301 25 19.333 25 36c0 17.333 -20.667 35 -62 53c-66 29.333 -104.333 47.333 -115 54c-41.333 26.667 -62 59.667 -62 99c0 26.667 6.16699 50 18.5 70
s29.833 36.5 52.5 49.5s46.5 21.833 71.5 26.5s52.833 7 83.5 7c24.667 0 49.834 -1.5 75.501 -4.5s52.167 -7.83301 79.5 -14.5v-104c-39.333 26 -82 39 -128 39c-15.333 0 -29 -2.16699 -41 -6.5s-18 -12.833 -18 -25.5c0 -13.333 6.33301 -24 19 -32
c6 -4 18.5 -8.83301 37.5 -14.5l56.5 -16.5c19.333 -6.66699 37 -15.334 53 -26.001c23.333 -15.333 41.833 -32.5 55.5 -51.5s20.5 -40.833 20.5 -65.5c0 -60 -29 -104 -87 -132c-44 -21.333 -100 -32 -168 -32c-24.667 0 -50.334 2 -77.001 6s-57 9.66699 -91 17z" />
    <glyph glyph-name="questiondown" unicode="&#xbf;" horiz-adv-x="280" 
d="M155 460c14 0 26.5 0.998047 37.5 2.99805s21.167 6 30.5 12l3 -365c0 -30.667 1.5 -52.5 4.5 -65.5s13.167 -26.833 30.5 -41.5l-243 -3c17.333 16 28 33 32 51c2 8.66699 3 28.334 3 59.001v240v17c0 28 -2.5 47.333 -7.5 58s-13.833 21.334 -26.5 32.001zM153 585.998
c0 24 7.83301 44.168 23.5 60.501s35.167 24.5 58.5 24.5c22.667 0 41.834 -7.83301 57.501 -23.5s23.5 -34.834 23.5 -57.501c0 -23.333 -8.33301 -43 -25 -59s-36.667 -24 -60 -24c-20.667 0 -38.834 7.83301 -54.501 23.5s-23.5 34.167 -23.5 55.5zM-44 585.999
c0 24 7.83105 44.168 23.498 60.501s35.167 24.5 58.5 24.5c22.667 0 41.834 -7.83301 57.501 -23.5s23.5 -34.834 23.5 -57.501c0 -23.333 -8.33301 -43 -25 -59s-36.667 -24 -60 -24c-21.333 0 -39.666 7.66699 -54.999 23s-23 34 -23 56z" />
    <glyph glyph-name="questiondown" unicode="&#x457;" horiz-adv-x="280" 
d="M155 460c14 0 26.5 0.998047 37.5 2.99805s21.167 6 30.5 12l3 -365c0 -30.667 1.5 -52.5 4.5 -65.5s13.167 -26.833 30.5 -41.5l-243 -3c17.333 16 28 33 32 51c2 8.66699 3 28.334 3 59.001v240v17c0 28 -2.5 47.333 -7.5 58s-13.833 21.334 -26.5 32.001zM153 585.998
c0 24 7.83301 44.168 23.5 60.501s35.167 24.5 58.5 24.5c22.667 0 41.834 -7.83301 57.501 -23.5s23.5 -34.834 23.5 -57.501c0 -23.333 -8.33301 -43 -25 -59s-36.667 -24 -60 -24c-20.667 0 -38.834 7.83301 -54.501 23.5s-23.5 34.167 -23.5 55.5zM-44 585.999
c0 24 7.83105 44.168 23.498 60.501s35.167 24.5 58.5 24.5c22.667 0 41.834 -7.83301 57.501 -23.5s23.5 -34.834 23.5 -57.501c0 -23.333 -8.33301 -43 -25 -59s-36.667 -24 -60 -24c-21.333 0 -39.666 7.66699 -54.999 23s-23 34 -23 56z" />
    <glyph glyph-name="Agrave" unicode="&#xc0;" horiz-adv-x="720" 
d="M217 199l-24.001 -68.001l-11.5 -38c-4.33301 -14.667 -6.5 -26 -6.5 -34c0 -10 1.83301 -18.5 5.5 -25.5s13.834 -17.167 30.501 -30.5l-205 -3c18 18 32 36 42 54c8 14 17 35.333 27 64l138 399c6 16.667 10.333 29.667 13 39c6 19.333 9 33 9 41
c0 12.667 -3.33301 23.5 -10 32.5s-16 17.5 -28 25.5l245 3l189 -515c14 -36.667 21.333 -56 22 -58c12 -26 33.333 -53.333 64 -82v-3h-302c13.333 10.667 23.5 20.334 30.5 29.001s10.5 20.334 10.5 35.001c0 9.33301 -0.333008 15.666 -1 18.999l-7 19l-33 97h-198z
M312.999 488.999l-67 -197h136z" />
    <glyph glyph-name="Agrave" unicode="&#x410;" horiz-adv-x="720" 
d="M217 199l-24.001 -68.001l-11.5 -38c-4.33301 -14.667 -6.5 -26 -6.5 -34c0 -10 1.83301 -18.5 5.5 -25.5s13.834 -17.167 30.501 -30.5l-205 -3c18 18 32 36 42 54c8 14 17 35.333 27 64l138 399c6 16.667 10.333 29.667 13 39c6 19.333 9 33 9 41
c0 12.667 -3.33301 23.5 -10 32.5s-16 17.5 -28 25.5l245 3l189 -515c14 -36.667 21.333 -56 22 -58c12 -26 33.333 -53.333 64 -82v-3h-302c13.333 10.667 23.5 20.334 30.5 29.001s10.5 20.334 10.5 35.001c0 9.33301 -0.333008 15.666 -1 18.999l-7 19l-33 97h-198z
M312.999 488.999l-67 -197h136z" />
    <glyph glyph-name="Aacute" unicode="&#xc1;" 
d="M246 560l0.00292969 -460.999c39.333 0 70.333 9.66699 93 29c28 23.333 42 59.333 42 108c0 36.667 -12 69.5 -36 98.5s-54 49.833 -90 62.5c20.667 2.66699 34.667 4.16699 42 4.5s13.333 0.5 18 0.5c68.667 0 125.667 -16.333 171 -49c50 -36 75 -86 75 -150
c0 -62 -23.667 -113.667 -71 -155c-20 -17.333 -45 -29.666 -75 -36.999s-64.333 -11 -103 -11h-293c17.333 12 28.666 27 33.999 45s8 39.667 8 65v33v373v33c0 33.333 -3.33301 57.166 -10 71.499s-17.334 25.833 -32.001 34.5l365 3
c7.33301 0 14.666 0.166992 21.999 0.5s14 2.16602 20 5.49902l3 -145c-10.667 17.333 -24.667 28.5 -42 33.5s-39.333 7.5 -66 7.5h-28h-47z" />
    <glyph glyph-name="Aacute" unicode="&#x411;" 
d="M246 560l0.00292969 -460.999c39.333 0 70.333 9.66699 93 29c28 23.333 42 59.333 42 108c0 36.667 -12 69.5 -36 98.5s-54 49.833 -90 62.5c20.667 2.66699 34.667 4.16699 42 4.5s13.333 0.5 18 0.5c68.667 0 125.667 -16.333 171 -49c50 -36 75 -86 75 -150
c0 -62 -23.667 -113.667 -71 -155c-20 -17.333 -45 -29.666 -75 -36.999s-64.333 -11 -103 -11h-293c17.333 12 28.666 27 33.999 45s8 39.667 8 65v33v373v33c0 33.333 -3.33301 57.166 -10 71.499s-17.334 25.833 -32.001 34.5l365 3
c7.33301 0 14.666 0.166992 21.999 0.5s14 2.16602 20 5.49902l3 -145c-10.667 17.333 -24.667 28.5 -42 33.5s-39.333 7.5 -66 7.5h-28h-47z" />
    <glyph glyph-name="Acircumflex" unicode="&#xc2;" 
d="M317 658c33.333 0 60.001 -1.83008 80.001 -5.49707s39.667 -12.834 59 -27.501c22 -17.333 38.667 -36 50 -56s17 -42.667 17 -68c0 -32 -9.5 -58.5 -28.5 -79.5s-44.833 -36.833 -77.5 -47.5c42.667 -6 77.334 -25 104.001 -57s40 -70 40 -114
c0 -62 -23.667 -113.667 -71 -155c-24 -20.667 -51.333 -34.334 -82 -41.001c-22 -4.66699 -54 -7 -96 -7h-293c17.333 12 28.666 27 33.999 45s8 39.667 8 65v33v373v33c0 33.333 -3.33301 57.166 -10 71.499s-17.334 25.833 -32.001 34.5zM246.001 406.003
c9.33301 -2.66699 15.668 -4 19.001 -4c22 0 39.667 8.66699 53 26s20 37.333 20 60c0 21.333 -5.33301 39.5 -16 54.5s-26.334 22.5 -47.001 22.5c-9.33301 0 -19 -2 -29 -6v-153zM246.003 106.003c12 -8 26.667 -12 44 -12c30.667 0 54 11.333 70 34c14 20 21 46 21 78
c0 73.333 -37 110 -111 110h-24v-210z" />
    <glyph glyph-name="Acircumflex" unicode="&#x412;" 
d="M317 658c33.333 0 60.001 -1.83008 80.001 -5.49707s39.667 -12.834 59 -27.501c22 -17.333 38.667 -36 50 -56s17 -42.667 17 -68c0 -32 -9.5 -58.5 -28.5 -79.5s-44.833 -36.833 -77.5 -47.5c42.667 -6 77.334 -25 104.001 -57s40 -70 40 -114
c0 -62 -23.667 -113.667 -71 -155c-24 -20.667 -51.333 -34.334 -82 -41.001c-22 -4.66699 -54 -7 -96 -7h-293c17.333 12 28.666 27 33.999 45s8 39.667 8 65v33v373v33c0 33.333 -3.33301 57.166 -10 71.499s-17.334 25.833 -32.001 34.5zM246.001 406.003
c9.33301 -2.66699 15.668 -4 19.001 -4c22 0 39.667 8.66699 53 26s20 37.333 20 60c0 21.333 -5.33301 39.5 -16 54.5s-26.334 22.5 -47.001 22.5c-9.33301 0 -19 -2 -29 -6v-153zM246.003 106.003c12 -8 26.667 -12 44 -12c30.667 0 54 11.333 70 34c14 20 21 46 21 78
c0 73.333 -37 110 -111 110h-24v-210z" />
    <glyph glyph-name="Atilde" unicode="&#xc3;" horiz-adv-x="420" 
d="M242 146c0 -38 1.66992 -63.9971 5.00293 -77.9971c6 -24.667 19 -46.334 39 -65.001l-271 -3c17.333 12 28.666 27 33.999 45s8 39.667 8 65v33v373v33c0 33.333 -3.33301 57.166 -10 71.499s-17.334 25.833 -32.001 34.5l350 3c7.33301 0 14.666 0.166992 21.999 0.5
s14 2.16602 20 5.49902l3 -145c-10.667 17.333 -24.667 28.5 -42 33.5s-39.333 7.5 -66 7.5h-28h-32v-414z" />
    <glyph glyph-name="Atilde" unicode="&#x413;" horiz-adv-x="420" 
d="M242 146c0 -38 1.66992 -63.9971 5.00293 -77.9971c6 -24.667 19 -46.334 39 -65.001l-271 -3c17.333 12 28.666 27 33.999 45s8 39.667 8 65v33v373v33c0 33.333 -3.33301 57.166 -10 71.499s-17.334 25.833 -32.001 34.5l350 3c7.33301 0 14.666 0.166992 21.999 0.5
s14 2.16602 20 5.49902l3 -145c-10.667 17.333 -24.667 28.5 -42 33.5s-39.333 7.5 -66 7.5h-28h-32v-414z" />
    <glyph glyph-name="Adieresis" unicode="&#xc4;" horiz-adv-x="680" 
d="M20 104l26.999 4c16.667 10 31.334 29.333 44.001 58l122 351l14.5 44.5c5 15.667 7.5 27.5 7.5 35.5c0 12.667 -3.33301 23.5 -10 32.5s-16 17.5 -28 25.5l245 3c0 -10.667 2.83301 -26 8.5 -46s17.167 -54.333 34.5 -103l147 -405h51l-37 -168
c-8 18.667 -21.833 34 -41.5 46s-43.167 18 -70.5 18h-411c-28.667 0 -56.5 -6.33301 -83.5 -19s-47.833 -27.667 -62.5 -45zM432.999 101l-5 20.002l-127 368l-108 -333c-4 -10.667 -8.5 -20.834 -13.5 -30.501s-10.5 -17.834 -16.5 -24.501h270z" />
    <glyph glyph-name="Adieresis" unicode="&#x414;" horiz-adv-x="680" 
d="M20 104l26.999 4c16.667 10 31.334 29.333 44.001 58l122 351l14.5 44.5c5 15.667 7.5 27.5 7.5 35.5c0 12.667 -3.33301 23.5 -10 32.5s-16 17.5 -28 25.5l245 3c0 -10.667 2.83301 -26 8.5 -46s17.167 -54.333 34.5 -103l147 -405h51l-37 -168
c-8 18.667 -21.833 34 -41.5 46s-43.167 18 -70.5 18h-411c-28.667 0 -56.5 -6.33301 -83.5 -19s-47.833 -27.667 -62.5 -45zM432.999 101l-5 20.002l-127 368l-108 -333c-4 -10.667 -8.5 -20.834 -13.5 -30.501s-10.5 -17.834 -16.5 -24.501h270z" />
    <glyph glyph-name="Aring" unicode="&#xc5;" horiz-adv-x="500" 
d="M240 111c14 -5.33301 30.001 -9.16699 48.001 -11.5s37 -3.5 57 -3.5c32.667 0 59.334 3.33301 80.001 10c26 8.66699 48 23.667 66 45h5l-40 -151h-443c16.667 12 28.334 28.333 35.001 49c4.66699 15.333 7 35.333 7 60v33v374v33c0 33.333 -3.33301 57.166 -10 71.499
s-17.334 25.833 -32.001 34.5l350 3h11c14 0 24.333 1.66699 31 5l3 -145c-11.333 18 -25.833 29.5 -43.5 34.5s-40.834 7.5 -69.501 7.5h-23h-32v-162h93c17.333 0 29.666 1.66699 36.999 5h5v-140h-5c-4 12.667 -11.5 21.834 -22.5 27.501s-31.167 8.5 -60.5 8.5h-14h-33
v-188z" />
    <glyph glyph-name="Aring" unicode="&#x415;" horiz-adv-x="500" 
d="M240 111c14 -5.33301 30.001 -9.16699 48.001 -11.5s37 -3.5 57 -3.5c32.667 0 59.334 3.33301 80.001 10c26 8.66699 48 23.667 66 45h5l-40 -151h-443c16.667 12 28.334 28.333 35.001 49c4.66699 15.333 7 35.333 7 60v33v374v33c0 33.333 -3.33301 57.166 -10 71.499
s-17.334 25.833 -32.001 34.5l350 3h11c14 0 24.333 1.66699 31 5l3 -145c-11.333 18 -25.833 29.5 -43.5 34.5s-40.834 7.5 -69.501 7.5h-23h-32v-162h93c17.333 0 29.666 1.66699 36.999 5h5v-140h-5c-4 12.667 -11.5 21.834 -22.5 27.501s-31.167 8.5 -60.5 8.5h-14h-33
v-188z" />
    <glyph glyph-name="AE" unicode="&#xc6;" horiz-adv-x="1000" 
d="M634 658c-17.333 -12 -28.6709 -27 -34.0039 -45s-8 -39.667 -8 -65v-33v-153l123 159c16.667 20.667 26.334 33 29.001 37c10.667 16 16 30.333 16 43c0 11.333 -4 21.666 -12 30.999s-17.333 17 -28 23l245 3l-221 -267l203 -321
c8.66699 -14.667 17.334 -27.167 26.001 -37.5s19.334 -20.166 32.001 -29.499c-15.333 0 -30 -0.166992 -44 -0.5s-27.333 -0.5 -40 -0.5c-74.667 0 -124 6.16699 -148 18.5s-50.667 43.5 -80 93.5l-101 179v-150v-33c0 -33.333 3.5 -57.166 10.5 -71.499
s17.5 -26.166 31.5 -35.499l-268 -3c17.333 12 28.666 27 33.999 45s8 39.667 8 65v33v150l-101 -179c-32.667 -56 -63.167 -89 -91.5 -99s-101.833 -15 -220.5 -15c10.667 9.33301 20.834 19.833 30.501 31.5s18.834 24.5 27.501 38.5l203 321l-221 264l245 3
c-12 -8.66699 -21 -16.667 -27 -24c-8.66699 -10.667 -13 -21.667 -13 -33c0 -12 5 -25.167 15 -39.5s20 -27.833 30 -40.5l123 -159v153v33c0 33.333 -3.5 57.166 -10.5 71.499s-17.5 26.166 -31.5 35.499z" />
    <glyph glyph-name="AE" unicode="&#x416;" horiz-adv-x="1000" 
d="M634 658c-17.333 -12 -28.6709 -27 -34.0039 -45s-8 -39.667 -8 -65v-33v-153l123 159c16.667 20.667 26.334 33 29.001 37c10.667 16 16 30.333 16 43c0 11.333 -4 21.666 -12 30.999s-17.333 17 -28 23l245 3l-221 -267l203 -321
c8.66699 -14.667 17.334 -27.167 26.001 -37.5s19.334 -20.166 32.001 -29.499c-15.333 0 -30 -0.166992 -44 -0.5s-27.333 -0.5 -40 -0.5c-74.667 0 -124 6.16699 -148 18.5s-50.667 43.5 -80 93.5l-101 179v-150v-33c0 -33.333 3.5 -57.166 10.5 -71.499
s17.5 -26.166 31.5 -35.499l-268 -3c17.333 12 28.666 27 33.999 45s8 39.667 8 65v33v150l-101 -179c-32.667 -56 -63.167 -89 -91.5 -99s-101.833 -15 -220.5 -15c10.667 9.33301 20.834 19.833 30.501 31.5s18.834 24.5 27.501 38.5l203 321l-221 264l245 3
c-12 -8.66699 -21 -16.667 -27 -24c-8.66699 -10.667 -13 -21.667 -13 -33c0 -12 5 -25.167 15 -39.5s20 -27.833 30 -40.5l123 -159v153v33c0 33.333 -3.5 57.166 -10.5 71.499s-17.5 26.166 -31.5 35.499z" />
    <glyph glyph-name="Ccedilla" unicode="&#xc7;" horiz-adv-x="540" 
d="M129 397l40.9971 0.000976562c38 0 67.667 6 89 18c27.333 15.333 41 40 41 74c0 28 -8.66699 50 -26 66s-41 24 -71 24c-22 0 -42.167 -3.33301 -60.5 -10s-37.5 -17 -57.5 -31v124c62 8 121.667 12 179 12c58.667 0 109.334 -12.667 152.001 -38
c48 -28.667 72 -67.667 72 -117c0 -32.667 -11 -61.334 -33 -86.001s-49.667 -41.667 -83 -51c44.667 -14 79.334 -34.667 104.001 -62c28 -31.333 42 -69 42 -113c0 -72.667 -33 -129 -99 -169c-55.333 -34 -121.666 -51 -198.999 -51c-24 0 -48 1.5 -72 4.5
s-49.333 7.83301 -76 14.5l-51 121c61.333 -28 119.333 -42 174 -42c38 0 69.333 9.66699 94 29s37 47.333 37 84s-13 63.167 -39 79.5s-63 24.5 -111 24.5h-47v95z" />
    <glyph glyph-name="Ccedilla" unicode="&#x417;" horiz-adv-x="540" 
d="M129 397l40.9971 0.000976562c38 0 67.667 6 89 18c27.333 15.333 41 40 41 74c0 28 -8.66699 50 -26 66s-41 24 -71 24c-22 0 -42.167 -3.33301 -60.5 -10s-37.5 -17 -57.5 -31v124c62 8 121.667 12 179 12c58.667 0 109.334 -12.667 152.001 -38
c48 -28.667 72 -67.667 72 -117c0 -32.667 -11 -61.334 -33 -86.001s-49.667 -41.667 -83 -51c44.667 -14 79.334 -34.667 104.001 -62c28 -31.333 42 -69 42 -113c0 -72.667 -33 -129 -99 -169c-55.333 -34 -121.666 -51 -198.999 -51c-24 0 -48 1.5 -72 4.5
s-49.333 7.83301 -76 14.5l-51 121c61.333 -28 119.333 -42 174 -42c38 0 69.333 9.66699 94 29s37 47.333 37 84s-13 63.167 -39 79.5s-63 24.5 -111 24.5h-47v95z" />
    <glyph glyph-name="Egrave" unicode="&#xc8;" horiz-adv-x="680" 
d="M441 443l-172.001 -349c-12 -24.667 -24 -42.667 -36 -54c-16 -14.667 -41 -27.667 -75 -39c-12 -4 -29.833 -8.66699 -53.5 -14s-40.5 -8 -50.5 -8v536v33c0 33.333 -3.5 57.166 -10.5 71.499s-17.5 26.166 -31.5 35.499l278 3
c-22.667 -15.333 -37.667 -36.666 -45 -63.999c-4.66699 -17.333 -7 -43.666 -7 -78.999v-255l193 395l236 3c-17.333 -12 -28.666 -27 -33.999 -45s-8 -39.667 -8 -65v-33v-372v-33c0 -33.333 3.5 -57.166 10.5 -71.499s17.5 -26.166 31.5 -35.499l-278 -3
c22 15.333 36.667 36.666 44 63.999c5.33301 19.333 8 45.666 8 78.999v300z" />
    <glyph glyph-name="Egrave" unicode="&#x418;" horiz-adv-x="680" 
d="M441 443l-172.001 -349c-12 -24.667 -24 -42.667 -36 -54c-16 -14.667 -41 -27.667 -75 -39c-12 -4 -29.833 -8.66699 -53.5 -14s-40.5 -8 -50.5 -8v536v33c0 33.333 -3.5 57.166 -10.5 71.499s-17.5 26.166 -31.5 35.499l278 3
c-22.667 -15.333 -37.667 -36.666 -45 -63.999c-4.66699 -17.333 -7 -43.666 -7 -78.999v-255l193 395l236 3c-17.333 -12 -28.666 -27 -33.999 -45s-8 -39.667 -8 -65v-33v-372v-33c0 -33.333 3.5 -57.166 10.5 -71.499s17.5 -26.166 31.5 -35.499l-278 -3
c22 15.333 36.667 36.666 44 63.999c5.33301 19.333 8 45.666 8 78.999v300z" />
    <glyph glyph-name="Eacute" unicode="&#xc9;" horiz-adv-x="680" 
d="M230 854c11.333 -20.667 27.3311 -35.333 47.998 -44s44.667 -13 72 -13c28 0 51.833 4 71.5 12s35.834 23 48.501 45l54 -24c-17.333 -38.667 -40 -66.667 -68 -84s-63.333 -26 -106 -26c-44 0 -79.667 8.5 -107 25.5s-49.666 45.167 -66.999 84.5zM440.998 443.001
l-172.001 -349c-12 -24.667 -24 -42.667 -36 -54c-16 -14.667 -41 -27.667 -75 -39c-12 -4 -29.833 -8.66699 -53.5 -14s-40.5 -8 -50.5 -8v536v33c0 33.333 -3.5 57.166 -10.5 71.499s-17.5 26.166 -31.5 35.499l278 3c-22.667 -15.333 -37.667 -36.666 -45 -63.999
c-4.66699 -17.333 -7 -43.666 -7 -78.999v-255l193 395l236 3c-17.333 -12 -28.666 -27 -33.999 -45s-8 -39.667 -8 -65v-33v-372v-33c0 -33.333 3.5 -57.166 10.5 -71.499s17.5 -26.166 31.5 -35.499l-278 -3c22 15.333 36.667 36.666 44 63.999
c5.33301 19.333 8 45.666 8 78.999v300z" />
    <glyph glyph-name="Eacute" unicode="&#x419;" horiz-adv-x="680" 
d="M230 854c11.333 -20.667 27.3311 -35.333 47.998 -44s44.667 -13 72 -13c28 0 51.833 4 71.5 12s35.834 23 48.501 45l54 -24c-17.333 -38.667 -40 -66.667 -68 -84s-63.333 -26 -106 -26c-44 0 -79.667 8.5 -107 25.5s-49.666 45.167 -66.999 84.5zM440.998 443.001
l-172.001 -349c-12 -24.667 -24 -42.667 -36 -54c-16 -14.667 -41 -27.667 -75 -39c-12 -4 -29.833 -8.66699 -53.5 -14s-40.5 -8 -50.5 -8v536v33c0 33.333 -3.5 57.166 -10.5 71.499s-17.5 26.166 -31.5 35.499l278 3c-22.667 -15.333 -37.667 -36.666 -45 -63.999
c-4.66699 -17.333 -7 -43.666 -7 -78.999v-255l193 395l236 3c-17.333 -12 -28.666 -27 -33.999 -45s-8 -39.667 -8 -65v-33v-372v-33c0 -33.333 3.5 -57.166 10.5 -71.499s17.5 -26.166 31.5 -35.499l-278 -3c22 15.333 36.667 36.666 44 63.999
c5.33301 19.333 8 45.666 8 78.999v300z" />
    <glyph glyph-name="Ecircumflex" unicode="&#xca;" horiz-adv-x="660" 
d="M607 70c8.66699 -14.667 17.332 -27.166 25.999 -37.499s19.334 -20.166 32.001 -29.499c-15.333 0 -30 -0.166992 -44 -0.5s-27.333 -0.5 -40 -0.5c-74.667 0 -124 6.16699 -148 18.5s-50.667 43.5 -80 93.5l-104 179v-150v-33c0 -33.333 3.5 -57.166 10.5 -71.499
s17.5 -26.166 31.5 -35.499l-269 -3v3c17.333 10.667 28.666 25 33.999 43s8 39.333 8 64v33v372v33c0 33.333 -3.5 57.166 -10.5 71.499s-17.5 26.166 -31.5 35.499l269 3c-17.333 -12 -28.666 -27 -33.999 -45s-8 -39.667 -8 -65v-33v-153l125 159
c16 19.333 25.667 31.666 29 36.999c11.333 16.667 17 31 17 43c0 11.333 -4 21.666 -12 30.999s-17.333 17 -28 23l245 3l-221 -267z" />
    <glyph glyph-name="Ecircumflex" unicode="&#x41a;" horiz-adv-x="660" 
d="M607 70c8.66699 -14.667 17.332 -27.166 25.999 -37.499s19.334 -20.166 32.001 -29.499c-15.333 0 -30 -0.166992 -44 -0.5s-27.333 -0.5 -40 -0.5c-74.667 0 -124 6.16699 -148 18.5s-50.667 43.5 -80 93.5l-104 179v-150v-33c0 -33.333 3.5 -57.166 10.5 -71.499
s17.5 -26.166 31.5 -35.499l-269 -3v3c17.333 10.667 28.666 25 33.999 43s8 39.333 8 64v33v372v33c0 33.333 -3.5 57.166 -10.5 71.499s-17.5 26.166 -31.5 35.499l269 3c-17.333 -12 -28.666 -27 -33.999 -45s-8 -39.667 -8 -65v-33v-153l125 159
c16 19.333 25.667 31.666 29 36.999c11.333 16.667 17 31 17 43c0 11.333 -4 21.666 -12 30.999s-17.333 17 -28 23l245 3l-221 -267z" />
    <glyph glyph-name="Edieresis" unicode="&#xcb;" horiz-adv-x="680" 
d="M91 166l122.001 350.996c4 10 8.66699 23.833 14 41.5s8 30.5 8 38.5c0 12.667 -3.33301 23.5 -10 32.5s-16 17.5 -28 25.5l245 3c0 -11.333 2.66699 -26.666 8 -45.999s17 -53.666 35 -102.999l133 -366c13.333 -36 20.666 -55.333 21.999 -58c12 -26.667 33 -54 63 -82
v-3h-302c13.333 10.667 23.5 20.334 30.5 29.001s10.5 20.334 10.5 35.001c0 12 -2.66699 24.667 -8 38l-133 387l-108 -333c-15.333 -46 -37 -84.667 -65 -116c-32.667 -36.667 -68.334 -55 -107.001 -55l-57 101c32 0 57.667 5.33301 77 16
c22.667 12.667 39.334 34 50.001 64z" />
    <glyph glyph-name="Edieresis" unicode="&#x41b;" horiz-adv-x="680" 
d="M91 166l122.001 350.996c4 10 8.66699 23.833 14 41.5s8 30.5 8 38.5c0 12.667 -3.33301 23.5 -10 32.5s-16 17.5 -28 25.5l245 3c0 -11.333 2.66699 -26.666 8 -45.999s17 -53.666 35 -102.999l133 -366c13.333 -36 20.666 -55.333 21.999 -58c12 -26.667 33 -54 63 -82
v-3h-302c13.333 10.667 23.5 20.334 30.5 29.001s10.5 20.334 10.5 35.001c0 12 -2.66699 24.667 -8 38l-133 387l-108 -333c-15.333 -46 -37 -84.667 -65 -116c-32.667 -36.667 -68.334 -55 -107.001 -55l-57 101c32 0 57.667 5.33301 77 16
c22.667 12.667 39.334 34 50.001 64z" />
    <glyph glyph-name="Igrave" unicode="&#xcc;" horiz-adv-x="880" 
d="M561 655l238.999 3.00098c-16 -16.667 -24.667 -26 -26 -28c-6.66699 -9.33301 -10 -20 -10 -32c0.666992 -4.66699 1 -8.33398 1 -11.001l47 -433c4 -39.333 8.33301 -66.666 13 -81.999c8 -28.667 22 -51.667 42 -69l-264 -3c10 11.333 18.167 23.5 24.5 36.5
s8.83301 25.5 7.5 37.5l-36 351l-133 -436c-14.667 3.33301 -30.167 9.16602 -46.5 17.499s-32.5 17.833 -48.5 28.5c-20 13.333 -36.333 31.333 -49 54c-6 11.333 -15.667 34.666 -29 69.999l-98 266l-37 -345c-1.33301 -16.667 1.83398 -31.667 9.50098 -45
s19.167 -24 34.5 -32l-197 -3c18.667 16.667 32 38.667 40 66c4 13.333 8 39 12 77l48 420c0.666992 5.33301 1 9.33301 1 12c0 30.667 -13 57.334 -39 80.001l230 3l148 -386z" />
    <glyph glyph-name="Igrave" unicode="&#x41c;" horiz-adv-x="880" 
d="M561 655l238.999 3.00098c-16 -16.667 -24.667 -26 -26 -28c-6.66699 -9.33301 -10 -20 -10 -32c0.666992 -4.66699 1 -8.33398 1 -11.001l47 -433c4 -39.333 8.33301 -66.666 13 -81.999c8 -28.667 22 -51.667 42 -69l-264 -3c10 11.333 18.167 23.5 24.5 36.5
s8.83301 25.5 7.5 37.5l-36 351l-133 -436c-14.667 3.33301 -30.167 9.16602 -46.5 17.499s-32.5 17.833 -48.5 28.5c-20 13.333 -36.333 31.333 -49 54c-6 11.333 -15.667 34.666 -29 69.999l-98 266l-37 -345c-1.33301 -16.667 1.83398 -31.667 9.50098 -45
s19.167 -24 34.5 -32l-197 -3c18.667 16.667 32 38.667 40 66c4 13.333 8 39 12 77l48 420c0.666992 5.33301 1 9.33301 1 12c0 30.667 -13 57.334 -39 80.001l230 3l148 -386z" />
    <glyph glyph-name="Iacute" unicode="&#xcd;" horiz-adv-x="660" 
d="M239 143v-33c0 -33.333 3.5 -57.166 10.5 -71.499s17.5 -26.166 31.5 -35.499l-269 -3c17.333 12 28.666 27 33.999 45s8 39.667 8 65v33v372v33c0 33.333 -3.5 57.166 -10.5 71.499s-17.5 26.166 -31.5 35.499l269 3c-17.333 -12 -28.666 -26.167 -33.999 -42.5
s-8 -36.833 -8 -61.5v-39v-114h179v114v33c0 33.333 -3.5 57.166 -10.5 71.499s-17.5 26.166 -31.5 35.499l269 3c-17.333 -12 -28.666 -27 -33.999 -45s-8 -39.667 -8 -65v-33v-372v-33c0 -33.333 3.5 -57.166 10.5 -71.499s17.5 -26.166 31.5 -35.499l-269 -3
c17.333 12 28.666 27 33.999 45s8 39.667 8 65v33v157h-179v-157z" />
    <glyph glyph-name="Iacute" unicode="&#x41d;" horiz-adv-x="660" 
d="M239 143v-33c0 -33.333 3.5 -57.166 10.5 -71.499s17.5 -26.166 31.5 -35.499l-269 -3c17.333 12 28.666 27 33.999 45s8 39.667 8 65v33v372v33c0 33.333 -3.5 57.166 -10.5 71.499s-17.5 26.166 -31.5 35.499l269 3c-17.333 -12 -28.666 -26.167 -33.999 -42.5
s-8 -36.833 -8 -61.5v-39v-114h179v114v33c0 33.333 -3.5 57.166 -10.5 71.499s-17.5 26.166 -31.5 35.499l269 3c-17.333 -12 -28.666 -27 -33.999 -45s-8 -39.667 -8 -65v-33v-372v-33c0 -33.333 3.5 -57.166 10.5 -71.499s17.5 -26.166 31.5 -35.499l-269 -3
c17.333 12 28.666 27 33.999 45s8 39.667 8 65v33v157h-179v-157z" />
    <glyph glyph-name="Icircumflex" unicode="&#xce;" horiz-adv-x="780" 
d="M396 674c108.667 0 195.667 -29.334 261 -88.001c68.667 -61.333 103 -146 103 -254c0 -105.333 -37.333 -190 -112 -254c-70.667 -60.667 -158.667 -91 -264 -91c-104.667 0 -191 31 -259 93c-70 64 -105 147.667 -105 251c0 102.667 37.333 186.334 112 251.001
c71.333 61.333 159.333 92 264 92zM261 172.999c15.333 -26 34.668 -46.834 58.001 -62.501s49 -23.5 77 -23.5c26 0 50.667 6.33301 74 19s43 29.667 59 51c14 18.667 23.667 39.334 29 62.001s8 48.667 8 78c0 70 -13 130.333 -39 181c-32.667 64 -80.334 96 -143.001 96
c-54.667 0 -97.667 -23 -129 -69c-27.333 -40.667 -41 -89.667 -41 -147c0 -28.667 4.33301 -60.5 13 -95.5s20 -64.833 34 -89.5z" />
    <glyph glyph-name="Icircumflex" unicode="&#x41e;" horiz-adv-x="780" 
d="M396 674c108.667 0 195.667 -29.334 261 -88.001c68.667 -61.333 103 -146 103 -254c0 -105.333 -37.333 -190 -112 -254c-70.667 -60.667 -158.667 -91 -264 -91c-104.667 0 -191 31 -259 93c-70 64 -105 147.667 -105 251c0 102.667 37.333 186.334 112 251.001
c71.333 61.333 159.333 92 264 92zM261 172.999c15.333 -26 34.668 -46.834 58.001 -62.501s49 -23.5 77 -23.5c26 0 50.667 6.33301 74 19s43 29.667 59 51c14 18.667 23.667 39.334 29 62.001s8 48.667 8 78c0 70 -13 130.333 -39 181c-32.667 64 -80.334 96 -143.001 96
c-54.667 0 -97.667 -23 -129 -69c-27.333 -40.667 -41 -89.667 -41 -147c0 -28.667 4.33301 -60.5 13 -95.5s20 -64.833 34 -89.5z" />
    <glyph glyph-name="Idieresis" unicode="&#xcf;" horiz-adv-x="660" 
d="M239 143l0.000976562 -33.002c0 -33.333 3.5 -57.166 10.5 -71.499s17.5 -26.166 31.5 -35.499l-269 -3c17.333 12 28.666 27 33.999 45s8 39.667 8 65v33v372v33c0 33.333 -3.5 57.166 -10.5 71.499s-17.5 26.166 -31.5 35.499l633 3
c-17.333 -12 -28.666 -27 -33.999 -45s-8 -39.667 -8 -65v-33v-372v-33c0 -33.333 3.5 -57.166 10.5 -71.499s17.5 -26.166 31.5 -35.499l-269 -3c17.333 12 28.666 27 33.999 45s8 39.667 8 65v33v414h-179v-414z" />
    <glyph glyph-name="Idieresis" unicode="&#x41f;" horiz-adv-x="660" 
d="M239 143l0.000976562 -33.002c0 -33.333 3.5 -57.166 10.5 -71.499s17.5 -26.166 31.5 -35.499l-269 -3c17.333 12 28.666 27 33.999 45s8 39.667 8 65v33v372v33c0 33.333 -3.5 57.166 -10.5 71.499s-17.5 26.166 -31.5 35.499l633 3
c-17.333 -12 -28.666 -27 -33.999 -45s-8 -39.667 -8 -65v-33v-372v-33c0 -33.333 3.5 -57.166 10.5 -71.499s17.5 -26.166 31.5 -35.499l-269 -3c17.333 12 28.666 27 33.999 45s8 39.667 8 65v33v414h-179v-414z" />
    <glyph glyph-name="Eth" unicode="&#xd0;" horiz-adv-x="520" 
d="M233 145c0 -37.333 1.66797 -62.9971 5.00098 -76.9971c6 -24.667 19 -46.334 39 -65.001l-267 -3c17.333 12 28.666 27 33.999 45s8 39.667 8 65v33v372v33c0 33.333 -3.5 57.166 -10.5 71.499s-17.5 26.166 -31.5 35.499l236 3c46 0 81.667 -1.16699 107 -3.5
s49.333 -9.16602 72 -20.499c63.333 -31.333 95 -83.333 95 -156c0 -66.667 -25 -117.334 -75 -152.001c-43.333 -30 -100 -45 -170 -45h-13h-11c-5.33301 1.33301 -9.33301 2 -12 2c31.333 13.333 55.333 32.5 72 57.5s25 54.5 25 88.5c0 39.333 -7.33301 70 -22 92
c-17.333 25.333 -44.333 38 -81 38v-414z" />
    <glyph glyph-name="Eth" unicode="&#x420;" horiz-adv-x="520" 
d="M233 145c0 -37.333 1.66797 -62.9971 5.00098 -76.9971c6 -24.667 19 -46.334 39 -65.001l-267 -3c17.333 12 28.666 27 33.999 45s8 39.667 8 65v33v372v33c0 33.333 -3.5 57.166 -10.5 71.499s-17.5 26.166 -31.5 35.499l236 3c46 0 81.667 -1.16699 107 -3.5
s49.333 -9.16602 72 -20.499c63.333 -31.333 95 -83.333 95 -156c0 -66.667 -25 -117.334 -75 -152.001c-43.333 -30 -100 -45 -170 -45h-13h-11c-5.33301 1.33301 -9.33301 2 -12 2c31.333 13.333 55.333 32.5 72 57.5s25 54.5 25 88.5c0 39.333 -7.33301 70 -22 92
c-17.333 25.333 -44.333 38 -81 38v-414z" />
    <glyph glyph-name="Ntilde" unicode="&#xd1;" horiz-adv-x="660" 
d="M565 521c-51.333 34.667 -107 51.999 -167 51.999c-63.333 0 -109.666 -23.333 -138.999 -70c-24.667 -39.333 -37 -93 -37 -161c0 -73.333 17.333 -132.333 52 -177c38 -48.667 92.667 -73 164 -73c36 0 73.333 6.33301 112 19c31.333 10 66 25.333 104 46l-50 -146
c-32 -8.66699 -63.5 -14.834 -94.5 -18.501s-65.833 -5.5 -104.5 -5.5c-55.333 0 -102.666 5.66699 -141.999 17c-46 13.333 -88.167 36.333 -126.5 69s-67.5 71.334 -87.5 116.001s-30 93 -30 145c0 47.333 9.5 93.333 28.5 138s46.167 82.334 81.5 113.001
s77.166 53.167 125.499 67.5s99.166 21.5 152.499 21.5l151 -13z" />
    <glyph glyph-name="Ntilde" unicode="&#x421;" horiz-adv-x="660" 
d="M565 521c-51.333 34.667 -107 51.999 -167 51.999c-63.333 0 -109.666 -23.333 -138.999 -70c-24.667 -39.333 -37 -93 -37 -161c0 -73.333 17.333 -132.333 52 -177c38 -48.667 92.667 -73 164 -73c36 0 73.333 6.33301 112 19c31.333 10 66 25.333 104 46l-50 -146
c-32 -8.66699 -63.5 -14.834 -94.5 -18.501s-65.833 -5.5 -104.5 -5.5c-55.333 0 -102.666 5.66699 -141.999 17c-46 13.333 -88.167 36.333 -126.5 69s-67.5 71.334 -87.5 116.001s-30 93 -30 145c0 47.333 9.5 93.333 28.5 138s46.167 82.334 81.5 113.001
s77.166 53.167 125.499 67.5s99.166 21.5 152.499 21.5l151 -13z" />
    <glyph glyph-name="Ograve" unicode="&#xd2;" horiz-adv-x="500" 
d="M336 145c0 -37.333 1.66797 -62.998 5.00098 -76.998c6 -24.667 19 -46.334 39 -65.001l-271 -3c17.333 12 28.666 27 33.999 45s8 39.667 8 65v33v402c-6 1.33301 -14.167 2.33301 -24.5 3s-18.833 1 -25.5 1c-39.333 0 -77 -12.333 -113 -37l-7 -5l39 154l19 -3h464
l-34 -151c-7.33301 16 -17.833 27.333 -31.5 34s-30.5 10 -50.5 10c-10.667 0 -19.667 -0.333008 -27 -1s-15.333 -2.33398 -24 -5.00098v-400z" />
    <glyph glyph-name="Ograve" unicode="&#x422;" horiz-adv-x="500" 
d="M336 145c0 -37.333 1.66797 -62.998 5.00098 -76.998c6 -24.667 19 -46.334 39 -65.001l-271 -3c17.333 12 28.666 27 33.999 45s8 39.667 8 65v33v402c-6 1.33301 -14.167 2.33301 -24.5 3s-18.833 1 -25.5 1c-39.333 0 -77 -12.333 -113 -37l-7 -5l39 154l19 -3h464
l-34 -151c-7.33301 16 -17.833 27.333 -31.5 34s-30.5 10 -50.5 10c-10.667 0 -19.667 -0.333008 -27 -1s-15.333 -2.33398 -24 -5.00098v-400z" />
    <glyph glyph-name="Oacute" unicode="&#xd3;" horiz-adv-x="640" 
d="M308 166c-14.667 15.333 -25.999 27.667 -33.999 37c-27.333 31.333 -47.333 58.333 -60 81l-172 307c-6.66699 12 -14.5 23.5 -23.5 34.5s-19.833 20.833 -32.5 29.5l241 3l-1 -6c0 -12 2 -23.333 6 -34s12.333 -28 25 -52l129 -237l101 233
c4 8.66699 7.33301 16.5 10 23.5s4 13.5 4 19.5c0 12 -3.5 21.5 -10.5 28.5s-18.167 14.167 -33.5 21.5l179 3l-230 -509c-50 -109.333 -106 -164 -168 -164l-67 101h10c31.333 0 57.166 6 77.499 18s36.833 32.667 49.5 62z" />
    <glyph glyph-name="Oacute" unicode="&#x423;" horiz-adv-x="640" 
d="M308 166c-14.667 15.333 -25.999 27.667 -33.999 37c-27.333 31.333 -47.333 58.333 -60 81l-172 307c-6.66699 12 -14.5 23.5 -23.5 34.5s-19.833 20.833 -32.5 29.5l241 3l-1 -6c0 -12 2 -23.333 6 -34s12.333 -28 25 -52l129 -237l101 233
c4 8.66699 7.33301 16.5 10 23.5s4 13.5 4 19.5c0 12 -3.5 21.5 -10.5 28.5s-18.167 14.167 -33.5 21.5l179 3l-230 -509c-50 -109.333 -106 -164 -168 -164l-67 101h10c31.333 0 57.166 6 77.499 18s36.833 32.667 49.5 62z" />
    <glyph glyph-name="Ocircumflex" unicode="&#xd4;" horiz-adv-x="780" 
d="M298 552c0 24 -2.33496 43 -7.00195 57c-6.66699 20 -18.334 35.333 -35.001 46l269 3c-17.333 -12.667 -28.666 -27.5 -33.999 -44.5s-8 -37.5 -8 -61.5h42c71.333 0 129 -17 173 -51c48 -37.333 72 -89.666 72 -156.999c0 -76.667 -25 -135 -75 -175
c-43.333 -34.667 -100 -52 -170 -52h-13h-11c-5.33301 1.33301 -9.33301 2 -12 2c31.333 16 55.333 39.167 72 69.5s25 65.833 25 106.5c0 48.667 -7.33301 86 -22 112c-17.333 30.667 -44.333 46 -81 46v-311v-33c0 -33.333 3.33301 -57 10 -71s17.334 -25.667 32.001 -35
l-269 -3c16.667 12 28.334 28.333 35.001 49c4.66699 15.333 7 35.333 7 60v33v311c-36.667 0 -63.667 -15.333 -81 -46c-14.667 -26 -22 -63.333 -22 -112c0 -40.667 8.33301 -76.167 25 -106.5s40.667 -53.5 72 -69.5c-6 -0.666992 -12.5 -1.16699 -19.5 -1.5
s-12.5 -0.5 -16.5 -0.5c-68.667 0 -125 17.333 -169 52c-50.667 40 -76 98.333 -76 175c0 67.333 24 119.666 72 156.999c44 34 101.667 51 173 51h42z" />
    <glyph glyph-name="Ocircumflex" unicode="&#x424;" horiz-adv-x="780" 
d="M298 552c0 24 -2.33496 43 -7.00195 57c-6.66699 20 -18.334 35.333 -35.001 46l269 3c-17.333 -12.667 -28.666 -27.5 -33.999 -44.5s-8 -37.5 -8 -61.5h42c71.333 0 129 -17 173 -51c48 -37.333 72 -89.666 72 -156.999c0 -76.667 -25 -135 -75 -175
c-43.333 -34.667 -100 -52 -170 -52h-13h-11c-5.33301 1.33301 -9.33301 2 -12 2c31.333 16 55.333 39.167 72 69.5s25 65.833 25 106.5c0 48.667 -7.33301 86 -22 112c-17.333 30.667 -44.333 46 -81 46v-311v-33c0 -33.333 3.33301 -57 10 -71s17.334 -25.667 32.001 -35
l-269 -3c16.667 12 28.334 28.333 35.001 49c4.66699 15.333 7 35.333 7 60v33v311c-36.667 0 -63.667 -15.333 -81 -46c-14.667 -26 -22 -63.333 -22 -112c0 -40.667 8.33301 -76.167 25 -106.5s40.667 -53.5 72 -69.5c-6 -0.666992 -12.5 -1.16699 -19.5 -1.5
s-12.5 -0.5 -16.5 -0.5c-68.667 0 -125 17.333 -169 52c-50.667 40 -76 98.333 -76 175c0 67.333 24 119.666 72 156.999c44 34 101.667 51 173 51h42z" />
    <glyph glyph-name="Otilde" unicode="&#xd5;" horiz-adv-x="660" 
d="M557 146c30 -49.333 50.333 -81 61 -95c14 -18.667 29.667 -34.667 47 -48v-3h-235l-143 256l-82 -128c-5.33301 -9.33301 -10.5 -19 -15.5 -29s-7.5 -19.667 -7.5 -29c0 -13.333 2.66699 -26.166 8 -38.499s13 -21.833 23 -28.5l-221 -3l237 344l-125 216
c-18 31.333 -32.167 52.666 -42.5 63.999s-22.833 21.666 -37.5 30.999l235 3l115 -212l50 77c8 12 15.5 25.5 22.5 40.5s10.5 27.833 10.5 38.5s-3.66699 21.334 -11 32.001s-16 17.667 -26 21l219 3l-209 -302z" />
    <glyph glyph-name="Otilde" unicode="&#x425;" horiz-adv-x="660" 
d="M557 146c30 -49.333 50.333 -81 61 -95c14 -18.667 29.667 -34.667 47 -48v-3h-235l-143 256l-82 -128c-5.33301 -9.33301 -10.5 -19 -15.5 -29s-7.5 -19.667 -7.5 -29c0 -13.333 2.66699 -26.166 8 -38.499s13 -21.833 23 -28.5l-221 -3l237 344l-125 216
c-18 31.333 -32.167 52.666 -42.5 63.999s-22.833 21.666 -37.5 30.999l235 3l115 -212l50 77c8 12 15.5 25.5 22.5 40.5s10.5 27.833 10.5 38.5s-3.66699 21.334 -11 32.001s-16 17.667 -26 21l219 3l-209 -302z" />
    <glyph glyph-name="Odieresis" unicode="&#xd6;" horiz-adv-x="660" 
d="M607 104l56 0.00488281l-37 -168c-8 18.667 -21.833 34 -41.5 46s-43.167 18 -70.5 18h-501c17.333 12 28.666 27 33.999 45s8 39.667 8 65v33v372v33c0 33.333 -3.5 57.166 -10.5 71.499s-17.5 26.166 -31.5 35.499l269 3c-17.333 -12 -28.666 -26.167 -33.999 -42.5
s-8 -36.833 -8 -61.5v-39v-411c3.33301 -0.666992 6.33301 -1 9 -1c20 -3.33301 36.667 -5 50 -5h60c14.667 0 26.667 0.666992 36 2s17.333 2.66602 24 3.99902v411v33c0 33.333 -3.5 57.166 -10.5 71.499s-17.5 26.166 -31.5 35.499l269 3
c-17.333 -12 -28.666 -27 -33.999 -45s-8 -39.667 -8 -65v-33v-372c0 -6.66699 0.166992 -13 0.5 -19s1.16602 -12.667 2.49902 -20z" />
    <glyph glyph-name="Odieresis" unicode="&#x426;" horiz-adv-x="660" 
d="M607 104l56 0.00488281l-37 -168c-8 18.667 -21.833 34 -41.5 46s-43.167 18 -70.5 18h-501c17.333 12 28.666 27 33.999 45s8 39.667 8 65v33v372v33c0 33.333 -3.5 57.166 -10.5 71.499s-17.5 26.166 -31.5 35.499l269 3c-17.333 -12 -28.666 -26.167 -33.999 -42.5
s-8 -36.833 -8 -61.5v-39v-411c3.33301 -0.666992 6.33301 -1 9 -1c20 -3.33301 36.667 -5 50 -5h60c14.667 0 26.667 0.666992 36 2s17.333 2.66602 24 3.99902v411v33c0 33.333 -3.5 57.166 -10.5 71.499s-17.5 26.166 -31.5 35.499l269 3
c-17.333 -12 -28.666 -27 -33.999 -45s-8 -39.667 -8 -65v-33v-372c0 -6.66699 0.166992 -13 0.5 -19s1.16602 -12.667 2.49902 -20z" />
    <glyph glyph-name="multiply" unicode="&#xd7;" horiz-adv-x="620" 
d="M44 515l-0.000976562 33.002c0 33.333 -3.5 57.166 -10.5 71.499s-17.5 26.166 -31.5 35.499l269 3c-17.333 -12 -28.666 -26.167 -33.999 -42.5s-8 -36.833 -8 -61.5v-39v-83c0 -38 19.667 -57 59 -57c16.667 0 32.834 2.33301 48.501 7s29.5 11 41.5 19v114v33
c0 33.333 -3.5 57.166 -10.5 71.499s-17.5 26.166 -31.5 35.499l269 3c-17.333 -12 -28.666 -27 -33.999 -45s-8 -39.667 -8 -65v-33v-372v-33c0 -33.333 3.5 -57.166 10.5 -71.499s17.5 -26.166 31.5 -35.499l-269 -3c17.333 12 28.666 27 33.999 45s8 39.667 8 65v33v157
c-23.333 -14 -49.333 -25.333 -78 -34s-60 -13 -94 -13c-44.667 0 -82.834 15.5 -114.501 46.5s-47.5 69.5 -47.5 115.5v100z" />
    <glyph glyph-name="multiply" unicode="&#x427;" horiz-adv-x="620" 
d="M44 515l-0.000976562 33.002c0 33.333 -3.5 57.166 -10.5 71.499s-17.5 26.166 -31.5 35.499l269 3c-17.333 -12 -28.666 -26.167 -33.999 -42.5s-8 -36.833 -8 -61.5v-39v-83c0 -38 19.667 -57 59 -57c16.667 0 32.834 2.33301 48.501 7s29.5 11 41.5 19v114v33
c0 33.333 -3.5 57.166 -10.5 71.499s-17.5 26.166 -31.5 35.499l269 3c-17.333 -12 -28.666 -27 -33.999 -45s-8 -39.667 -8 -65v-33v-372v-33c0 -33.333 3.5 -57.166 10.5 -71.499s17.5 -26.166 31.5 -35.499l-269 -3c17.333 12 28.666 27 33.999 45s8 39.667 8 65v33v157
c-23.333 -14 -49.333 -25.333 -78 -34s-60 -13 -94 -13c-44.667 0 -82.834 15.5 -114.501 46.5s-47.5 69.5 -47.5 115.5v100z" />
    <glyph glyph-name="Oslash" unicode="&#xd8;" horiz-adv-x="920" 
d="M368 515l-0.00390625 34.002c0 26 -2 45.667 -6 59c-6 20 -18 35.667 -36 47l269 3c-17.333 -12 -28.666 -26.167 -33.999 -42.5s-8 -36.833 -8 -61.5v-39v-411c7.33301 -1.33301 16 -2.66602 26 -3.99902s22.667 -2 38 -2c14.667 0 27.334 0.666992 38.001 2
s19.667 2.66602 27 3.99902v411v33c0 33.333 -3.5 57.166 -10.5 71.499s-17.5 26.166 -31.5 35.499l269 3c-17.333 -12 -28.666 -27 -33.999 -45s-8 -39.667 -8 -65v-33v-372v-33c0 -33.333 3.5 -57.166 10.5 -71.499s17.5 -26.166 31.5 -35.499l-897 -3
c17.333 12 28.666 27 33.999 45s8 39.667 8 65v33v372v33c0 33.333 -3.5 57.166 -10.5 71.499s-17.5 26.166 -31.5 35.499l269 3c-17.333 -12 -28.666 -26.167 -33.999 -42.5s-8 -36.833 -8 -61.5v-39v-411c8 -1.33301 17.167 -2.66602 27.5 -3.99902s22.5 -2 36.5 -2
c14.667 0 27.334 0.666992 38.001 2s19.667 2.66602 27 3.99902v411z" />
    <glyph glyph-name="Oslash" unicode="&#x428;" horiz-adv-x="920" 
d="M368 515l-0.00390625 34.002c0 26 -2 45.667 -6 59c-6 20 -18 35.667 -36 47l269 3c-17.333 -12 -28.666 -26.167 -33.999 -42.5s-8 -36.833 -8 -61.5v-39v-411c7.33301 -1.33301 16 -2.66602 26 -3.99902s22.667 -2 38 -2c14.667 0 27.334 0.666992 38.001 2
s19.667 2.66602 27 3.99902v411v33c0 33.333 -3.5 57.166 -10.5 71.499s-17.5 26.166 -31.5 35.499l269 3c-17.333 -12 -28.666 -27 -33.999 -45s-8 -39.667 -8 -65v-33v-372v-33c0 -33.333 3.5 -57.166 10.5 -71.499s17.5 -26.166 31.5 -35.499l-897 -3
c17.333 12 28.666 27 33.999 45s8 39.667 8 65v33v372v33c0 33.333 -3.5 57.166 -10.5 71.499s-17.5 26.166 -31.5 35.499l269 3c-17.333 -12 -28.666 -26.167 -33.999 -42.5s-8 -36.833 -8 -61.5v-39v-411c8 -1.33301 17.167 -2.66602 27.5 -3.99902s22.5 -2 36.5 -2
c14.667 0 27.334 0.666992 38.001 2s19.667 2.66602 27 3.99902v411z" />
    <glyph glyph-name="Ugrave" unicode="&#xd9;" horiz-adv-x="920" 
d="M368 515l-0.00292969 34.0039c0 26 -2 45.667 -6 59c-6 20 -18 35.667 -36 47l269 3c-17.333 -12 -28.666 -26.167 -33.999 -42.5s-8 -36.833 -8 -61.5v-39v-411c8 -1.33301 17 -2.66602 27 -3.99902s22.333 -2 37 -2s27.334 0.666992 38.001 2
s19.667 2.66602 27 3.99902v411v33c0 33.333 -3.5 57.166 -10.5 71.499s-17.5 26.166 -31.5 35.499l269 3c-17.333 -12 -28.666 -27 -33.999 -45s-8 -39.667 -8 -65v-33v-372c0 -6.66699 0.166992 -13 0.5 -19s1.16602 -12.667 2.49902 -20h56l-37 -168
c-8 18.667 -21.833 34 -41.5 46s-43.167 18 -70.5 18h-765c17.333 12 28.666 27 33.999 45s8 39.667 8 65v33v372v33c0 33.333 -3.5 57.166 -10.5 71.499s-17.5 26.166 -31.5 35.499l269 3c-17.333 -12 -28.666 -26.167 -33.999 -42.5s-8 -36.833 -8 -61.5v-39v-411
c8 -1.33301 17 -2.66602 27 -3.99902s22.333 -2 37 -2s27.334 0.666992 38.001 2s19.667 2.66602 27 3.99902v411z" />
    <glyph glyph-name="Ugrave" unicode="&#x429;" horiz-adv-x="920" 
d="M368 515l-0.00292969 34.0039c0 26 -2 45.667 -6 59c-6 20 -18 35.667 -36 47l269 3c-17.333 -12 -28.666 -26.167 -33.999 -42.5s-8 -36.833 -8 -61.5v-39v-411c8 -1.33301 17 -2.66602 27 -3.99902s22.333 -2 37 -2s27.334 0.666992 38.001 2
s19.667 2.66602 27 3.99902v411v33c0 33.333 -3.5 57.166 -10.5 71.499s-17.5 26.166 -31.5 35.499l269 3c-17.333 -12 -28.666 -27 -33.999 -45s-8 -39.667 -8 -65v-33v-372c0 -6.66699 0.166992 -13 0.5 -19s1.16602 -12.667 2.49902 -20h56l-37 -168
c-8 18.667 -21.833 34 -41.5 46s-43.167 18 -70.5 18h-765c17.333 12 28.666 27 33.999 45s8 39.667 8 65v33v372v33c0 33.333 -3.5 57.166 -10.5 71.499s-17.5 26.166 -31.5 35.499l269 3c-17.333 -12 -28.666 -26.167 -33.999 -42.5s-8 -36.833 -8 -61.5v-39v-411
c8 -1.33301 17 -2.66602 27 -3.99902s22.333 -2 37 -2s27.334 0.666992 38.001 2s19.667 2.66602 27 3.99902v411z" />
    <glyph glyph-name="Uacute" unicode="&#xda;" horiz-adv-x="600" 
d="M357 658c-19.333 -19.333 -31.499 -39.498 -36.499 -60.498s-7.5 -49.167 -7.5 -84.5v-414c36.667 0 63.667 12.667 81 38c14.667 22 22 52.667 22 92c0 70 -32.333 118.667 -97 146c6 1.33301 12.5 2 19.5 2h16.5c69.333 0 125.666 -15 168.999 -45
c50.667 -34.667 76 -85.334 76 -152.001c0 -34.667 -8.16699 -65.5 -24.5 -92.5s-39.833 -48.167 -70.5 -63.5c-21.333 -10.667 -46.666 -17.334 -75.999 -20.001s-63.666 -4 -102.999 -4h-236c17.333 12 28.666 27 33.999 45s8 39.667 8 65v33v372v30
c-8.66699 2.66699 -19 4 -31 4c-40.667 0 -78.334 -12.333 -113.001 -37l-7 -5l39 154l19 -3h318z" />
    <glyph glyph-name="Uacute" unicode="&#x42a;" horiz-adv-x="600" 
d="M357 658c-19.333 -19.333 -31.499 -39.498 -36.499 -60.498s-7.5 -49.167 -7.5 -84.5v-414c36.667 0 63.667 12.667 81 38c14.667 22 22 52.667 22 92c0 70 -32.333 118.667 -97 146c6 1.33301 12.5 2 19.5 2h16.5c69.333 0 125.666 -15 168.999 -45
c50.667 -34.667 76 -85.334 76 -152.001c0 -34.667 -8.16699 -65.5 -24.5 -92.5s-39.833 -48.167 -70.5 -63.5c-21.333 -10.667 -46.666 -17.334 -75.999 -20.001s-63.666 -4 -102.999 -4h-236c17.333 12 28.666 27 33.999 45s8 39.667 8 65v33v372v30
c-8.66699 2.66699 -19 4 -31 4c-40.667 0 -78.334 -12.333 -113.001 -37l-7 -5l39 154l19 -3h318z" />
    <glyph glyph-name="Ucircumflex" unicode="&#xdb;" horiz-adv-x="820" 
d="M233 513v-413.996c36.667 0 63.667 12.667 81 38c14.667 22 22 52.667 22 92c0 70 -32.333 118.667 -97 146c6 1.33301 12.5 2 19.5 2h16.5c69.333 0 125.666 -15 168.999 -45c50.667 -34.667 76 -85.334 76 -152.001c0 -34.667 -8.16699 -65.5 -24.5 -92.5
s-39.833 -48.167 -70.5 -63.5c-21.333 -10.667 -46.666 -17.334 -75.999 -20.001s-63.666 -4 -102.999 -4h-236c17.333 12 28.666 27 33.999 45s8 39.667 8 65v33v372v33c0 33.333 -3.5 57.166 -10.5 71.499s-17.5 26.166 -31.5 35.499l267 3
c-19.333 -19.333 -31.5 -39.5 -36.5 -60.5s-7.5 -49.167 -7.5 -84.5zM762 142.004l-0.00292969 -32.998c0 -33.333 3.33301 -57 10 -71s17.334 -25.667 32.001 -35l-269 -3c16.667 12 28.334 28.333 35.001 49c4.66699 15.333 7 35.333 7 60v33v373v33
c0 33.333 -3.5 57.166 -10.5 71.499s-17.5 26.166 -31.5 35.499l269 3c-17.333 -12 -28.666 -27 -33.999 -45s-8 -39.667 -8 -65v-33v-373z" />
    <glyph glyph-name="Ucircumflex" unicode="&#x42b;" horiz-adv-x="820" 
d="M233 513v-413.996c36.667 0 63.667 12.667 81 38c14.667 22 22 52.667 22 92c0 70 -32.333 118.667 -97 146c6 1.33301 12.5 2 19.5 2h16.5c69.333 0 125.666 -15 168.999 -45c50.667 -34.667 76 -85.334 76 -152.001c0 -34.667 -8.16699 -65.5 -24.5 -92.5
s-39.833 -48.167 -70.5 -63.5c-21.333 -10.667 -46.666 -17.334 -75.999 -20.001s-63.666 -4 -102.999 -4h-236c17.333 12 28.666 27 33.999 45s8 39.667 8 65v33v372v33c0 33.333 -3.5 57.166 -10.5 71.499s-17.5 26.166 -31.5 35.499l267 3
c-19.333 -19.333 -31.5 -39.5 -36.5 -60.5s-7.5 -49.167 -7.5 -84.5zM762 142.004l-0.00292969 -32.998c0 -33.333 3.33301 -57 10 -71s17.334 -25.667 32.001 -35l-269 -3c16.667 12 28.334 28.333 35.001 49c4.66699 15.333 7 35.333 7 60v33v373v33
c0 33.333 -3.5 57.166 -10.5 71.499s-17.5 26.166 -31.5 35.499l269 3c-17.333 -12 -28.666 -27 -33.999 -45s-8 -39.667 -8 -65v-33v-373z" />
    <glyph glyph-name="Udieresis" unicode="&#xdc;" horiz-adv-x="520" 
d="M233 513v-413.996c36.667 0 63.667 12.667 81 38c14.667 22 22 52.667 22 92c0 70 -32.333 118.667 -97 146c6 1.33301 12.5 2 19.5 2h16.5c69.333 0 125.666 -15 168.999 -45c50.667 -34.667 76 -85.334 76 -152.001c0 -34.667 -8.16699 -65.5 -24.5 -92.5
s-39.833 -48.167 -70.5 -63.5c-21.333 -10.667 -46.666 -17.334 -75.999 -20.001s-63.666 -4 -102.999 -4h-236c17.333 12 28.666 27 33.999 45s8 39.667 8 65v33v372v33c0 33.333 -3.5 57.166 -10.5 71.499s-17.5 26.166 -31.5 35.499l267 3
c-19.333 -19.333 -31.5 -39.5 -36.5 -60.5s-7.5 -49.167 -7.5 -84.5z" />
    <glyph glyph-name="Udieresis" unicode="&#x42c;" horiz-adv-x="520" 
d="M233 513v-413.996c36.667 0 63.667 12.667 81 38c14.667 22 22 52.667 22 92c0 70 -32.333 118.667 -97 146c6 1.33301 12.5 2 19.5 2h16.5c69.333 0 125.666 -15 168.999 -45c50.667 -34.667 76 -85.334 76 -152.001c0 -34.667 -8.16699 -65.5 -24.5 -92.5
s-39.833 -48.167 -70.5 -63.5c-21.333 -10.667 -46.666 -17.334 -75.999 -20.001s-63.666 -4 -102.999 -4h-236c17.333 12 28.666 27 33.999 45s8 39.667 8 65v33v372v33c0 33.333 -3.5 57.166 -10.5 71.499s-17.5 26.166 -31.5 35.499l267 3
c-19.333 -19.333 -31.5 -39.5 -36.5 -60.5s-7.5 -49.167 -7.5 -84.5z" />
    <glyph glyph-name="Yacute" unicode="&#xdd;" horiz-adv-x="660" 
d="M437 300h-177.997c-37.333 0 -61.5 -2.33301 -72.5 -7s-19.167 -14.334 -24.5 -29.001h-5v140h5c4.66699 -2 11.5 -3.33301 20.5 -4s14.5 -1 16.5 -1h234c-8 54.667 -25.333 96 -52 124c-30.667 32.667 -74.334 49 -131.001 49c-32.667 0 -62.5 -3.83301 -89.5 -11.5
s-52.167 -20.167 -75.5 -37.5v140l150 8c58 0 107 -4.33301 147 -13c53.333 -12 98.666 -32.333 135.999 -61s67.166 -65.167 89.499 -109.5s33.5 -89.5 33.5 -135.5c0 -52.667 -8.5 -101.667 -25.5 -147s-43.5 -85.333 -79.5 -120s-75.5 -59.667 -118.5 -75
s-91.167 -23 -144.5 -23h-50c-38.667 0 -68.167 0.833008 -88.5 2.5s-40.5 4.83398 -60.5 9.50098l-59 143c35.333 -16 71.5 -28.833 108.5 -38.5s73.833 -14.5 110.5 -14.5c61.333 0 110 20.667 146 62c32.667 37.333 51.667 87 57 149z" />
    <glyph glyph-name="Yacute" unicode="&#x42d;" horiz-adv-x="660" 
d="M437 300h-177.997c-37.333 0 -61.5 -2.33301 -72.5 -7s-19.167 -14.334 -24.5 -29.001h-5v140h5c4.66699 -2 11.5 -3.33301 20.5 -4s14.5 -1 16.5 -1h234c-8 54.667 -25.333 96 -52 124c-30.667 32.667 -74.334 49 -131.001 49c-32.667 0 -62.5 -3.83301 -89.5 -11.5
s-52.167 -20.167 -75.5 -37.5v140l150 8c58 0 107 -4.33301 147 -13c53.333 -12 98.666 -32.333 135.999 -61s67.166 -65.167 89.499 -109.5s33.5 -89.5 33.5 -135.5c0 -52.667 -8.5 -101.667 -25.5 -147s-43.5 -85.333 -79.5 -120s-75.5 -59.667 -118.5 -75
s-91.167 -23 -144.5 -23h-50c-38.667 0 -68.167 0.833008 -88.5 2.5s-40.5 4.83398 -60.5 9.50098l-59 143c35.333 -16 71.5 -28.833 108.5 -38.5s73.833 -14.5 110.5 -14.5c61.333 0 110 20.667 146 62c32.667 37.333 51.667 87 57 149z" />
    <glyph glyph-name="Thorn" unicode="&#xde;" horiz-adv-x="1040" 
d="M301 300h-61.999v-157v-33c0 -33.333 3.5 -57.166 10.5 -71.499s17.5 -26.166 31.5 -35.499l-269 -3c17.333 12 28.666 27 33.999 45s8 39.667 8 65v33v372v33c0 33.333 -3.5 57.166 -10.5 71.499s-17.5 26.166 -31.5 35.499l269 3
c-17.333 -12 -28.666 -26.167 -33.999 -42.5s-8 -36.833 -8 -61.5v-39v-114h65c16 84.667 57.167 151.334 123.5 200.001s145.833 73 238.5 73c107.333 0 193.166 -29.833 257.499 -89.5s96.5 -143.834 96.5 -252.501c0 -106 -35.667 -190.667 -107 -254
c-68 -60.667 -154.333 -91 -259 -91c-100.667 0 -184 28 -250 84c-68.667 58 -103 134.333 -103 229zM666.001 87c54.667 0 96 21.6689 124 65.002c24 37.333 36 85.666 36 144.999c0 72.667 -11.333 133 -34 181c-30 64 -76 96 -138 96c-54.667 0 -96 -23 -124 -69
c-24 -39.333 -36 -88.333 -36 -147c0 -72.667 14 -134.334 42 -185.001c32 -57.333 75.333 -86 130 -86z" />
    <glyph glyph-name="Thorn" unicode="&#x42e;" horiz-adv-x="1040" 
d="M301 300h-61.999v-157v-33c0 -33.333 3.5 -57.166 10.5 -71.499s17.5 -26.166 31.5 -35.499l-269 -3c17.333 12 28.666 27 33.999 45s8 39.667 8 65v33v372v33c0 33.333 -3.5 57.166 -10.5 71.499s-17.5 26.166 -31.5 35.499l269 3
c-17.333 -12 -28.666 -26.167 -33.999 -42.5s-8 -36.833 -8 -61.5v-39v-114h65c16 84.667 57.167 151.334 123.5 200.001s145.833 73 238.5 73c107.333 0 193.166 -29.833 257.499 -89.5s96.5 -143.834 96.5 -252.501c0 -106 -35.667 -190.667 -107 -254
c-68 -60.667 -154.333 -91 -259 -91c-100.667 0 -184 28 -250 84c-68.667 58 -103 134.333 -103 229zM666.001 87c54.667 0 96 21.6689 124 65.002c24 37.333 36 85.666 36 144.999c0 72.667 -11.333 133 -34 181c-30 64 -76 96 -138 96c-54.667 0 -96 -23 -124 -69
c-24 -39.333 -36 -88.333 -36 -147c0 -72.667 14 -134.334 42 -185.001c32 -57.333 75.333 -86 130 -86z" />
    <glyph glyph-name="germandbls" unicode="&#xdf;" horiz-adv-x="620" 
d="M380 143l-0.00195312 138.998l-116 -218c-16.667 -29.333 -35 -48.333 -55 -57c-15.333 -6.66699 -41.666 -10 -78.999 -10l-138 9c19.333 16 37 34.333 53 55c12 15.333 26.333 37 43 65l119 199c-35.333 14.667 -63.333 35 -84 61c-23.333 28.667 -35 61 -35 97
c0 69.333 29.667 120 89 152c19.333 10 38.833 16.333 58.5 19s44.834 4 75.501 4h296c-17.333 -12 -28.666 -27 -33.999 -45s-8 -39.667 -8 -65v-33v-372v-33c0 -33.333 3.5 -57.166 10.5 -71.499s17.5 -26.166 31.5 -35.499l-269 -3c17.333 12 28.666 27 33.999 45
s8 39.667 8 65v33zM379.998 560.998h-10.001c-13.333 0 -24.166 -0.833008 -32.499 -2.5s-16.833 -5.5 -25.5 -11.5c-13.333 -9.33301 -23.333 -21.5 -30 -36.5s-10 -31.167 -10 -48.5c0 -32 10 -59.833 30 -83.5s46 -38.167 78 -43.5v226z" />
    <glyph glyph-name="germandbls" unicode="&#x42f;" horiz-adv-x="620" 
d="M380 143l-0.00195312 138.998l-116 -218c-16.667 -29.333 -35 -48.333 -55 -57c-15.333 -6.66699 -41.666 -10 -78.999 -10l-138 9c19.333 16 37 34.333 53 55c12 15.333 26.333 37 43 65l119 199c-35.333 14.667 -63.333 35 -84 61c-23.333 28.667 -35 61 -35 97
c0 69.333 29.667 120 89 152c19.333 10 38.833 16.333 58.5 19s44.834 4 75.501 4h296c-17.333 -12 -28.666 -27 -33.999 -45s-8 -39.667 -8 -65v-33v-372v-33c0 -33.333 3.5 -57.166 10.5 -71.499s17.5 -26.166 31.5 -35.499l-269 -3c17.333 12 28.666 27 33.999 45
s8 39.667 8 65v33zM379.998 560.998h-10.001c-13.333 0 -24.166 -0.833008 -32.499 -2.5s-16.833 -5.5 -25.5 -11.5c-13.333 -9.33301 -23.333 -21.5 -30 -36.5s-10 -31.167 -10 -48.5c0 -32 10 -59.833 30 -83.5s46 -38.167 78 -43.5v226z" />
    <glyph glyph-name="agrave" unicode="&#xe0;" horiz-adv-x="520" 
d="M491 -10l-39.999 -3c-28.667 0 -53.667 3.16699 -75 9.5s-41.5 18.333 -60.5 36s-31 35.667 -36 54s-7.5 42.833 -7.5 73.5v22v33l-32 -15c-18 -8.66699 -30.667 -16 -38 -22c-12.667 -10.667 -19 -23.334 -19 -38.001c0 -18 5.66699 -33.333 17 -46s26 -19 44 -19l20 2
l-43 -87l-51 -3c-19.333 0 -38.5 1.83301 -57.5 5.5s-35.5 9.83398 -49.5 18.501c-20 12 -36 28.667 -48 50s-18 43.666 -18 66.999c0 52.667 23.667 91.667 71 117c17.333 9.33301 61.666 23 132.999 41c47.333 12 71 28.667 71 50c0 14 -6.83301 24.5 -20.5 31.5
s-28.167 10.5 -43.5 10.5c-20.667 0 -41.834 -3 -63.501 -9s-42.5 -14 -62.5 -24l47 114c18.667 4.66699 38.5 8.16699 59.5 10.5s43.167 3.5 66.5 3.5c26 0 51.167 -3 75.5 -9s45.5 -15.667 63.5 -29c22.667 -17.333 38 -40.333 46 -69c6 -21.333 9 -49.666 9 -84.999v-80
c0 -44.667 3 -73.667 9 -87c10.667 -24.667 35.334 -37 74.001 -37z" />
    <glyph glyph-name="agrave" unicode="&#x430;" horiz-adv-x="520" 
d="M491 -10l-39.999 -3c-28.667 0 -53.667 3.16699 -75 9.5s-41.5 18.333 -60.5 36s-31 35.667 -36 54s-7.5 42.833 -7.5 73.5v22v33l-32 -15c-18 -8.66699 -30.667 -16 -38 -22c-12.667 -10.667 -19 -23.334 -19 -38.001c0 -18 5.66699 -33.333 17 -46s26 -19 44 -19l20 2
l-43 -87l-51 -3c-19.333 0 -38.5 1.83301 -57.5 5.5s-35.5 9.83398 -49.5 18.501c-20 12 -36 28.667 -48 50s-18 43.666 -18 66.999c0 52.667 23.667 91.667 71 117c17.333 9.33301 61.666 23 132.999 41c47.333 12 71 28.667 71 50c0 14 -6.83301 24.5 -20.5 31.5
s-28.167 10.5 -43.5 10.5c-20.667 0 -41.834 -3 -63.501 -9s-42.5 -14 -62.5 -24l47 114c18.667 4.66699 38.5 8.16699 59.5 10.5s43.167 3.5 66.5 3.5c26 0 51.167 -3 75.5 -9s45.5 -15.667 63.5 -29c22.667 -17.333 38 -40.333 46 -69c6 -21.333 9 -49.666 9 -84.999v-80
c0 -44.667 3 -73.667 9 -87c10.667 -24.667 35.334 -37 74.001 -37z" />
    <glyph glyph-name="aacute" unicode="&#xe1;" 
d="M197 637c24 14 59.9971 28.666 107.997 43.999l67 19c36 12 58.333 20 67 24c23.333 10 37.333 20 42 30c1.33301 -62.667 -11 -111 -37 -145c-19.333 -25.333 -47.333 -43.333 -84 -54l-94 -29c-33.333 -10 -61.166 -26.667 -83.499 -50s-37.833 -50.666 -46.5 -81.999
c17.333 24.667 41.333 44 72 58s64.334 21 101.001 21c66 0 122.167 -22.833 168.5 -68.5s69.5 -101.834 69.5 -168.501c0 -77.333 -24.833 -138.166 -74.5 -182.499s-113.5 -66.5 -191.5 -66.5c-73.333 0 -133.666 21.667 -180.999 65s-71 101.333 -71 174
c0 101.333 10.333 181.666 31 240.999c26 74.667 71.667 131.334 137 170.001zM378.997 214.999c0 56 -9.33301 98 -28 126c-16 24 -38 36 -66 36c-32 0 -55.333 -13.333 -70 -40c-12 -22 -18 -50.333 -18 -85c0 -47.333 5 -84.333 15 -111
c15.333 -40.667 42.333 -61 81 -61c33.333 0 57 15 71 45c10 22 15 52 15 90z" />
    <glyph glyph-name="aacute" unicode="&#x431;" 
d="M197 637c24 14 59.9971 28.666 107.997 43.999l67 19c36 12 58.333 20 67 24c23.333 10 37.333 20 42 30c1.33301 -62.667 -11 -111 -37 -145c-19.333 -25.333 -47.333 -43.333 -84 -54l-94 -29c-33.333 -10 -61.166 -26.667 -83.499 -50s-37.833 -50.666 -46.5 -81.999
c17.333 24.667 41.333 44 72 58s64.334 21 101.001 21c66 0 122.167 -22.833 168.5 -68.5s69.5 -101.834 69.5 -168.501c0 -77.333 -24.833 -138.166 -74.5 -182.499s-113.5 -66.5 -191.5 -66.5c-73.333 0 -133.666 21.667 -180.999 65s-71 101.333 -71 174
c0 101.333 10.333 181.666 31 240.999c26 74.667 71.667 131.334 137 170.001zM378.997 214.999c0 56 -9.33301 98 -28 126c-16 24 -38 36 -66 36c-32 0 -55.333 -13.333 -70 -40c-12 -22 -18 -50.333 -18 -85c0 -47.333 5 -84.333 15 -111
c15.333 -40.667 42.333 -61 81 -61c33.333 0 57 15 71 45c10 22 15 52 15 90z" />
    <glyph glyph-name="acircumflex" unicode="&#xe2;" horiz-adv-x="540" 
d="M25 0c17.333 15.333 27.999 32.002 31.999 50.002c2 8.66699 3 28.667 3 60v240v17c0 27.333 -2.83301 46.666 -8.5 57.999s-14.5 22 -26.5 32l301 3c46.667 0 84.834 -9.16699 114.501 -27.5s44.5 -45.833 44.5 -82.5c0 -22.667 -8.33301 -42 -25 -58
c-14 -14 -33.667 -24.333 -59 -31c32 -3.33301 59.333 -16.333 82 -39s34 -49.334 34 -80.001c0 -45.333 -18.167 -80.333 -54.5 -105s-83.5 -37 -141.5 -37h-296zM232.999 290.002c1.33301 -0.666992 6.16504 -1.33398 14.498 -2.00098s13.5 -1 15.5 -1
c16.667 0 29.834 4.83301 39.501 14.5s14.5 21.834 14.5 36.501c0 13.333 -4.66699 25 -14 35s-21.333 15 -36 15c-15.333 0 -26.666 -1 -33.999 -3v-95zM232.998 80.002c4.66699 -2.66699 12.167 -4.5 22.5 -5.5s17.166 -1.5 20.499 -1.5
c20.667 0 36.834 6.83301 48.501 20.5s17.5 31.167 17.5 52.5c0 24 -6.66699 41.167 -20 51.5s-33.333 15.5 -60 15.5h-29v-133z" />
    <glyph glyph-name="acircumflex" unicode="&#x432;" horiz-adv-x="540" 
d="M25 0c17.333 15.333 27.999 32.002 31.999 50.002c2 8.66699 3 28.667 3 60v240v17c0 27.333 -2.83301 46.666 -8.5 57.999s-14.5 22 -26.5 32l301 3c46.667 0 84.834 -9.16699 114.501 -27.5s44.5 -45.833 44.5 -82.5c0 -22.667 -8.33301 -42 -25 -58
c-14 -14 -33.667 -24.333 -59 -31c32 -3.33301 59.333 -16.333 82 -39s34 -49.334 34 -80.001c0 -45.333 -18.167 -80.333 -54.5 -105s-83.5 -37 -141.5 -37h-296zM232.999 290.002c1.33301 -0.666992 6.16504 -1.33398 14.498 -2.00098s13.5 -1 15.5 -1
c16.667 0 29.834 4.83301 39.501 14.5s14.5 21.834 14.5 36.501c0 13.333 -4.66699 25 -14 35s-21.333 15 -36 15c-15.333 0 -26.666 -1 -33.999 -3v-95zM232.998 80.002c4.66699 -2.66699 12.167 -4.5 22.5 -5.5s17.166 -1.5 20.499 -1.5
c20.667 0 36.834 6.83301 48.501 20.5s17.5 31.167 17.5 52.5c0 24 -6.66699 41.167 -20 51.5s-33.333 15.5 -60 15.5h-29v-133z" />
    <glyph glyph-name="atilde" unicode="&#xe3;" horiz-adv-x="400" 
d="M233 110v-46c2.66699 -23.333 14.334 -43.666 35.001 -60.999l-243 -3c17.333 15.333 28 32 32 50c2 8.66699 3 28.667 3 60v240v17c0 27.333 -2.83301 46.666 -8.5 57.999s-14.5 22 -26.5 32l355 3v-131c-7.33301 16 -17.833 27.333 -31.5 34s-30.5 10 -50.5 10
c-18.667 0 -33.334 -0.666992 -44.001 -2s-17.667 -2 -21 -2v-259z" />
    <glyph glyph-name="atilde" unicode="&#x433;" horiz-adv-x="400" 
d="M233 110v-46c2.66699 -23.333 14.334 -43.666 35.001 -60.999l-243 -3c17.333 15.333 28 32 32 50c2 8.66699 3 28.667 3 60v240v17c0 27.333 -2.83301 46.666 -8.5 57.999s-14.5 22 -26.5 32l355 3v-131c-7.33301 16 -17.833 27.333 -31.5 34s-30.5 10 -50.5 10
c-18.667 0 -33.334 -0.666992 -44.001 -2s-17.667 -2 -21 -2v-259z" />
    <glyph glyph-name="adieresis" unicode="&#xe4;" horiz-adv-x="540" 
d="M499 84l49 0.000976562l-32 -148c-8 18.667 -21.833 34 -41.5 46s-43.167 18 -70.5 18h-291c-28.667 0 -56.5 -6.33301 -83.5 -19s-47.833 -27.667 -62.5 -45l38 148h38c12 10 21 24 27 42l83 235c4.66699 12 8 21.333 10 28c4.66699 13.333 7 22.666 7 27.999
c0 8.66699 -2.83301 16.334 -8.5 23.001s-13.5 12.667 -23.5 18l216 2c2 -8.66699 4 -16.667 6 -24c5.33301 -16.667 15.333 -43.334 30 -80.001zM311 79.001l-2 6l-82 225l-59 -178c-4 -12 -9 -22.833 -15 -32.5s-11.333 -16.5 -16 -20.5h174z" />
    <glyph glyph-name="adieresis" unicode="&#x434;" horiz-adv-x="540" 
d="M499 84l49 0.000976562l-32 -148c-8 18.667 -21.833 34 -41.5 46s-43.167 18 -70.5 18h-291c-28.667 0 -56.5 -6.33301 -83.5 -19s-47.833 -27.667 -62.5 -45l38 148h38c12 10 21 24 27 42l83 235c4.66699 12 8 21.333 10 28c4.66699 13.333 7 22.666 7 27.999
c0 8.66699 -2.83301 16.334 -8.5 23.001s-13.5 12.667 -23.5 18l216 2c2 -8.66699 4 -16.667 6 -24c5.33301 -16.667 15.333 -43.334 30 -80.001zM311 79.001l-2 6l-82 225l-59 -178c-4 -12 -9 -22.833 -15 -32.5s-11.333 -16.5 -16 -20.5h174z" />
    <glyph glyph-name="aring" unicode="&#xe5;" horiz-adv-x="540" 
d="M476 18c-22.667 -10 -47.833 -17.667 -75.5 -23s-54.834 -8 -81.501 -8c-40 0 -74.667 3 -104 9c-38 8 -70 21.333 -96 40c-30 21.333 -52.667 49.5 -68 84.5s-23 72.167 -23 111.5c0 70 23.333 127.667 70 173s105 68 175 68c78.667 0 137.834 -21.167 177.501 -63.5
s59.5 -102.833 59.5 -181.5h-310c0 -43.333 13.5 -78.833 40.5 -106.5s62.5 -41.5 106.5 -41.5c27.333 0 54.333 4.5 81 13.5s55.667 21.5 87 37.5zM340.001 313c0 21.333 -5.33398 38.833 -16.001 52.5s-27.667 20.5 -51 20.5c-21.333 0 -38.166 -6.66699 -50.499 -20
s-19.833 -31 -22.5 -53h140z" />
    <glyph glyph-name="aring" unicode="&#x435;" horiz-adv-x="540" 
d="M476 18c-22.667 -10 -47.833 -17.667 -75.5 -23s-54.834 -8 -81.501 -8c-40 0 -74.667 3 -104 9c-38 8 -70 21.333 -96 40c-30 21.333 -52.667 49.5 -68 84.5s-23 72.167 -23 111.5c0 70 23.333 127.667 70 173s105 68 175 68c78.667 0 137.834 -21.167 177.501 -63.5
s59.5 -102.833 59.5 -181.5h-310c0 -43.333 13.5 -78.833 40.5 -106.5s62.5 -41.5 106.5 -41.5c27.333 0 54.333 4.5 81 13.5s55.667 21.5 87 37.5zM340.001 313c0 21.333 -5.33398 38.833 -16.001 52.5s-27.667 20.5 -51 20.5c-21.333 0 -38.166 -6.66699 -50.499 -20
s-19.833 -31 -22.5 -53h140z" />
    <glyph glyph-name="ae" unicode="&#xe6;" horiz-adv-x="820" 
d="M531 460c-15.333 -14 -25.001 -27.499 -29.001 -40.499s-6 -30.5 -6 -52.5v-17v-88l77 92l21 24c6.66699 9.33301 10 18.666 10 27.999c0 11.333 -3.5 21.5 -10.5 30.5s-15.833 15.833 -26.5 20.5l231 3l-155 -175l132 -206c14 -22 23.667 -36.333 29 -43
c11.333 -13.333 24 -24.333 38 -33c-21.333 -1.33301 -42.666 -2.33301 -63.999 -3c-57.333 -3.33301 -93.333 -5 -108 -5c-25.333 0 -45.666 9.33301 -60.999 28c-4 4.66699 -12 17.334 -24 38.001l-89 152v-102c0 -30.667 1.5 -52.667 4.5 -66s13.167 -27.333 30.5 -42
l-242 -3c16 15.333 26.333 32.333 31 51c2.66699 11.333 4 31.333 4 60v102l-89 -152c-12.667 -22 -23.667 -37.333 -33 -46c-14 -13.333 -31.333 -20 -52 -20c-24.667 0 -57.5 0.833008 -98.5 2.5s-65.5 2.5 -73.5 2.5c13.333 9.33301 25.666 21 36.999 35
c6.66699 8.66699 16.667 23.334 30 44.001l132 206l-155 172l231 3c-10 -6 -18.667 -13.833 -26 -23.5s-11 -19.834 -11 -30.501c0 -9.33301 3.33301 -18.333 10 -27s13.667 -17 21 -25l77 -92v88v17c0 27.333 -2.83301 46.666 -8.5 57.999s-14.5 22 -26.5 32z" />
    <glyph glyph-name="ae" unicode="&#x436;" horiz-adv-x="820" 
d="M531 460c-15.333 -14 -25.001 -27.499 -29.001 -40.499s-6 -30.5 -6 -52.5v-17v-88l77 92l21 24c6.66699 9.33301 10 18.666 10 27.999c0 11.333 -3.5 21.5 -10.5 30.5s-15.833 15.833 -26.5 20.5l231 3l-155 -175l132 -206c14 -22 23.667 -36.333 29 -43
c11.333 -13.333 24 -24.333 38 -33c-21.333 -1.33301 -42.666 -2.33301 -63.999 -3c-57.333 -3.33301 -93.333 -5 -108 -5c-25.333 0 -45.666 9.33301 -60.999 28c-4 4.66699 -12 17.334 -24 38.001l-89 152v-102c0 -30.667 1.5 -52.667 4.5 -66s13.167 -27.333 30.5 -42
l-242 -3c16 15.333 26.333 32.333 31 51c2.66699 11.333 4 31.333 4 60v102l-89 -152c-12.667 -22 -23.667 -37.333 -33 -46c-14 -13.333 -31.333 -20 -52 -20c-24.667 0 -57.5 0.833008 -98.5 2.5s-65.5 2.5 -73.5 2.5c13.333 9.33301 25.666 21 36.999 35
c6.66699 8.66699 16.667 23.334 30 44.001l132 206l-155 172l231 3c-10 -6 -18.667 -13.833 -26 -23.5s-11 -19.834 -11 -30.501c0 -9.33301 3.33301 -18.333 10 -27s13.667 -17 21 -25l77 -92v88v17c0 27.333 -2.83301 46.666 -8.5 57.999s-14.5 22 -26.5 32z" />
    <glyph glyph-name="ccedilla" unicode="&#xe7;" horiz-adv-x="460" 
d="M94 287l46.999 0.00292969c26.667 0 48.167 3.83301 64.5 11.5s24.5 19.5 24.5 35.5c0 32 -21 48 -63 48c-18.667 0 -37.334 -3.66699 -56.001 -11s-36 -16.333 -52 -27v121c21.333 2.66699 45.666 4.66699 72.999 6s55 2 83 2c52 0 95 -8.33301 129 -25
c42.667 -20.667 64 -51.334 64 -92.001c0 -20.667 -5.66699 -38.334 -17 -53.001s-27 -27 -47 -37c27.333 -12 48.833 -27.833 64.5 -47.5s23.5 -43.167 23.5 -70.5c0 -54 -28.333 -95.333 -85 -124c-47.333 -24 -102.666 -36 -165.999 -36
c-22.667 0 -44.167 1.16699 -64.5 3.5s-41.5 5.83301 -63.5 10.5l-60 120c30 -12.667 58.833 -22.5 86.5 -29.5s54.834 -10.5 81.501 -10.5c28.667 0 50.834 5.16699 66.501 15.5s23.5 25.166 23.5 44.499c0 39.333 -35 59 -105 59h-52v86z" />
    <glyph glyph-name="ccedilla" unicode="&#x437;" horiz-adv-x="460" 
d="M94 287l46.999 0.00292969c26.667 0 48.167 3.83301 64.5 11.5s24.5 19.5 24.5 35.5c0 32 -21 48 -63 48c-18.667 0 -37.334 -3.66699 -56.001 -11s-36 -16.333 -52 -27v121c21.333 2.66699 45.666 4.66699 72.999 6s55 2 83 2c52 0 95 -8.33301 129 -25
c42.667 -20.667 64 -51.334 64 -92.001c0 -20.667 -5.66699 -38.334 -17 -53.001s-27 -27 -47 -37c27.333 -12 48.833 -27.833 64.5 -47.5s23.5 -43.167 23.5 -70.5c0 -54 -28.333 -95.333 -85 -124c-47.333 -24 -102.666 -36 -165.999 -36
c-22.667 0 -44.167 1.16699 -64.5 3.5s-41.5 5.83301 -63.5 10.5l-60 120c30 -12.667 58.833 -22.5 86.5 -29.5s54.834 -10.5 81.501 -10.5c28.667 0 50.834 5.16699 66.501 15.5s23.5 25.166 23.5 44.499c0 39.333 -35 59 -105 59h-52v86z" />
    <glyph glyph-name="egrave" unicode="&#xe8;" horiz-adv-x="600" 
d="M540 110l-0.000976562 -45.999c2.66699 -23.333 14.334 -43.666 35.001 -60.999l-243 -3c17.333 15.333 28 32 32 50c2 8.66699 3 28.667 3 60v183l-106 -187c-12 -22 -23 -38.5 -33 -49.5s-22.667 -20.833 -38 -29.5c-24 -12.667 -47.5 -22.667 -70.5 -30
s-42.833 -11 -59.5 -11v364v17c0 27.333 -2.83301 46.666 -8.5 57.999s-14.5 22 -26.5 32l243 3c-15.333 -14 -25 -27.5 -29 -40.5s-6 -30.5 -6 -52.5v-17v-118l126 225l216 3c-15.333 -14 -25 -27.333 -29 -40s-6 -30.334 -6 -53.001v-17v-240z" />
    <glyph glyph-name="egrave" unicode="&#x438;" horiz-adv-x="600" 
d="M540 110l-0.000976562 -45.999c2.66699 -23.333 14.334 -43.666 35.001 -60.999l-243 -3c17.333 15.333 28 32 32 50c2 8.66699 3 28.667 3 60v183l-106 -187c-12 -22 -23 -38.5 -33 -49.5s-22.667 -20.833 -38 -29.5c-24 -12.667 -47.5 -22.667 -70.5 -30
s-42.833 -11 -59.5 -11v364v17c0 27.333 -2.83301 46.666 -8.5 57.999s-14.5 22 -26.5 32l243 3c-15.333 -14 -25 -27.5 -29 -40.5s-6 -30.5 -6 -52.5v-17v-118l126 225l216 3c-15.333 -14 -25 -27.333 -29 -40s-6 -30.334 -6 -53.001v-17v-240z" />
    <glyph glyph-name="eacute" unicode="&#xe9;" horiz-adv-x="600" 
d="M180 656l-53.999 -23.998c17.333 -38.667 39.833 -66.667 67.5 -84s63.167 -26 106.5 -26s78.833 8.5 106.5 25.5s50.167 45.167 67.5 84.5l-54 24c-12 -20.667 -28.333 -35.334 -49 -44.001s-44.334 -13 -71.001 -13c-28 0 -51 3.66699 -69 11
c-22 9.33301 -39 24.666 -51 45.999zM540.001 110.002l-0.000976562 -45.999c2.66699 -23.333 14.334 -43.666 35.001 -60.999l-243 -3c17.333 15.333 28 32 32 50c2 8.66699 3 28.667 3 60v183l-106 -187c-12 -22 -23 -38.5 -33 -49.5s-22.667 -20.833 -38 -29.5
c-24 -12.667 -47.5 -22.667 -70.5 -30s-42.833 -11 -59.5 -11v364v17c0 27.333 -2.83301 46.666 -8.5 57.999s-14.5 22 -26.5 32l243 3c-15.333 -14 -25 -27.5 -29 -40.5s-6 -30.5 -6 -52.5v-17v-118l126 225l216 3c-15.333 -14 -25 -27.333 -29 -40s-6 -30.334 -6 -53.001
v-17v-240z" />
    <glyph glyph-name="eacute" unicode="&#x439;" horiz-adv-x="600" 
d="M180 656l-53.999 -23.998c17.333 -38.667 39.833 -66.667 67.5 -84s63.167 -26 106.5 -26s78.833 8.5 106.5 25.5s50.167 45.167 67.5 84.5l-54 24c-12 -20.667 -28.333 -35.334 -49 -44.001s-44.334 -13 -71.001 -13c-28 0 -51 3.66699 -69 11
c-22 9.33301 -39 24.666 -51 45.999zM540.001 110.002l-0.000976562 -45.999c2.66699 -23.333 14.334 -43.666 35.001 -60.999l-243 -3c17.333 15.333 28 32 32 50c2 8.66699 3 28.667 3 60v183l-106 -187c-12 -22 -23 -38.5 -33 -49.5s-22.667 -20.833 -38 -29.5
c-24 -12.667 -47.5 -22.667 -70.5 -30s-42.833 -11 -59.5 -11v364v17c0 27.333 -2.83301 46.666 -8.5 57.999s-14.5 22 -26.5 32l243 3c-15.333 -14 -25 -27.5 -29 -40.5s-6 -30.5 -6 -52.5v-17v-118l126 225l216 3c-15.333 -14 -25 -27.333 -29 -40s-6 -30.334 -6 -53.001
v-17v-240z" />
    <glyph glyph-name="ecircumflex" unicode="&#xea;" horiz-adv-x="560" 
d="M233 262l79.998 92.001l21 24c6.66699 9.33301 10 18.666 10 27.999c0 11.333 -3.5 21.5 -10.5 30.5s-15.833 15.833 -26.5 20.5l231 3l-155 -175l132 -206c14 -22 23.667 -36.333 29 -43c11.333 -13.333 24 -24.333 38 -33
c-21.333 -1.33301 -42.666 -2.33301 -63.999 -3c-57.333 -3.33301 -93.333 -5 -108 -5c-25.333 0 -45.666 9.33301 -60.999 28c-4 4.66699 -12 17.334 -24 38.001l-92 152v-102c0 -30.667 1.5 -52.667 4.5 -66s13.167 -27.333 30.5 -42l-243 -3c17.333 16 28 33 32 51
c2 8.66699 3 28.667 3 60v239v17c0 27.333 -2.83301 46.666 -8.5 57.999s-14.5 22 -26.5 32l243 3c-15.333 -14 -25 -27.5 -29 -40.5s-6 -30.5 -6 -52.5v-17v-88z" />
    <glyph glyph-name="ecircumflex" unicode="&#x43a;" horiz-adv-x="560" 
d="M233 262l79.998 92.001l21 24c6.66699 9.33301 10 18.666 10 27.999c0 11.333 -3.5 21.5 -10.5 30.5s-15.833 15.833 -26.5 20.5l231 3l-155 -175l132 -206c14 -22 23.667 -36.333 29 -43c11.333 -13.333 24 -24.333 38 -33
c-21.333 -1.33301 -42.666 -2.33301 -63.999 -3c-57.333 -3.33301 -93.333 -5 -108 -5c-25.333 0 -45.666 9.33301 -60.999 28c-4 4.66699 -12 17.334 -24 38.001l-92 152v-102c0 -30.667 1.5 -52.667 4.5 -66s13.167 -27.333 30.5 -42l-243 -3c17.333 16 28 33 32 51
c2 8.66699 3 28.667 3 60v239v17c0 27.333 -2.83301 46.666 -8.5 57.999s-14.5 22 -26.5 32l243 3c-15.333 -14 -25 -27.5 -29 -40.5s-6 -30.5 -6 -52.5v-17v-88z" />
    <glyph glyph-name="edieresis" unicode="&#xeb;" horiz-adv-x="520" 
d="M309 85l-82.0029 224.996l-68 -201c-13.333 -40 -33.166 -69.833 -59.499 -89.5s-56.833 -29.5 -91.5 -29.5h-4l-25 85c25.333 0 45 3.33301 59 10s24.667 20.334 32 41.001l83 235c4.66699 12 8 21.333 10 28c4.66699 13.333 7 22.666 7 27.999
c0 8.66699 -2.83301 16.334 -8.5 23.001s-13.5 12.667 -23.5 18l216 2l7 -25c6.66699 -21.333 16.334 -47.666 29.001 -78.999l117 -293c4.66699 -11.333 8.33398 -19.666 11.001 -24.999c7.33301 -13.333 17.333 -25.333 30 -36l-263 -2c12.667 8.66699 21 15 25 19
c6.66699 6.66699 10 15.334 10 26.001c0 6 -0.833008 12 -2.5 18s-4.5 13.333 -8.5 22z" />
    <glyph glyph-name="edieresis" unicode="&#x43b;" horiz-adv-x="520" 
d="M309 85l-82.0029 224.996l-68 -201c-13.333 -40 -33.166 -69.833 -59.499 -89.5s-56.833 -29.5 -91.5 -29.5h-4l-25 85c25.333 0 45 3.33301 59 10s24.667 20.334 32 41.001l83 235c4.66699 12 8 21.333 10 28c4.66699 13.333 7 22.666 7 27.999
c0 8.66699 -2.83301 16.334 -8.5 23.001s-13.5 12.667 -23.5 18l216 2l7 -25c6.66699 -21.333 16.334 -47.666 29.001 -78.999l117 -293c4.66699 -11.333 8.33398 -19.666 11.001 -24.999c7.33301 -13.333 17.333 -25.333 30 -36l-263 -2c12.667 8.66699 21 15 25 19
c6.66699 6.66699 10 15.334 10 26.001c0 6 -0.833008 12 -2.5 18s-4.5 13.333 -8.5 22z" />
    <glyph glyph-name="igrave" unicode="&#xec;" horiz-adv-x="720" 
d="M654 460c-10.667 -10 -18.001 -18.166 -22.001 -24.499s-6 -14.833 -6 -25.5c0.666992 -4 1 -7 1 -9l36 -283c4 -33.333 8.83301 -58.333 14.5 -75s15.167 -30 28.5 -40l-235 -3c9.33301 8.66699 16.166 18 20.499 28s5.83301 21 4.5 33l-25 217l-106 -288l-13 3
c-16 4 -28.333 7.83301 -37 11.5s-19.667 10.667 -33 21s-24.666 23.833 -33.999 40.5c-5.33301 8.66699 -12.666 24.334 -21.999 47.001l-66 165l-24 -213c-1.33301 -14.667 1 -27.334 7 -38.001s15 -18.667 27 -24l-163 -3c12 9.33301 21.333 25.666 28 48.999
c4.66699 15.333 8.66699 35.666 12 60.999l37 275c0.666992 4 1 9.33301 1 16c0 20.667 -10 39.334 -30 56.001l203 3l99 -242l86 239z" />
    <glyph glyph-name="igrave" unicode="&#x43c;" horiz-adv-x="720" 
d="M654 460c-10.667 -10 -18.001 -18.166 -22.001 -24.499s-6 -14.833 -6 -25.5c0.666992 -4 1 -7 1 -9l36 -283c4 -33.333 8.83301 -58.333 14.5 -75s15.167 -30 28.5 -40l-235 -3c9.33301 8.66699 16.166 18 20.499 28s5.83301 21 4.5 33l-25 217l-106 -288l-13 3
c-16 4 -28.333 7.83301 -37 11.5s-19.667 10.667 -33 21s-24.666 23.833 -33.999 40.5c-5.33301 8.66699 -12.666 24.334 -21.999 47.001l-66 165l-24 -213c-1.33301 -14.667 1 -27.334 7 -38.001s15 -18.667 27 -24l-163 -3c12 9.33301 21.333 25.666 28 48.999
c4.66699 15.333 8.66699 35.666 12 60.999l37 275c0.666992 4 1 9.33301 1 16c0 20.667 -10 39.334 -30 56.001l203 3l99 -242l86 239z" />
    <glyph glyph-name="iacute" unicode="&#xed;" 
d="M520 110l-0.00195312 -46c2.66699 -23.333 14.334 -43.666 35.001 -60.999l-243 -3c17.333 15.333 28 32 32 50c2 8.66699 3 28.667 3 60v91h-114v-91v-46c2.66699 -23.333 14.334 -43.666 35.001 -60.999l-243 -3c17.333 15.333 28 32 32 50c2 8.66699 3 28.667 3 60
v240v17c0 27.333 -2.83301 46.666 -8.5 57.999s-14.5 22 -26.5 32l243 3c-15.333 -14 -25 -27.5 -29 -40.5s-6 -30.5 -6 -52.5v-17v-62h114v62v17c0 27.333 -2.83301 46.666 -8.5 57.999s-14.5 22 -26.5 32l243 3c-15.333 -14 -25 -27.5 -29 -40.5s-6 -30.5 -6 -52.5v-17
v-240z" />
    <glyph glyph-name="iacute" unicode="&#x43d;" 
d="M520 110l-0.00195312 -46c2.66699 -23.333 14.334 -43.666 35.001 -60.999l-243 -3c17.333 15.333 28 32 32 50c2 8.66699 3 28.667 3 60v91h-114v-91v-46c2.66699 -23.333 14.334 -43.666 35.001 -60.999l-243 -3c17.333 15.333 28 32 32 50c2 8.66699 3 28.667 3 60
v240v17c0 27.333 -2.83301 46.666 -8.5 57.999s-14.5 22 -26.5 32l243 3c-15.333 -14 -25 -27.5 -29 -40.5s-6 -30.5 -6 -52.5v-17v-62h114v62v17c0 27.333 -2.83301 46.666 -8.5 57.999s-14.5 22 -26.5 32l243 3c-15.333 -14 -25 -27.5 -29 -40.5s-6 -30.5 -6 -52.5v-17
v-240z" />
    <glyph glyph-name="icircumflex" unicode="&#xee;" 
d="M29 226c0 76 23.999 136.166 71.999 180.499s110.667 66.5 188 66.5c35.333 0 67.333 -4.33301 96 -13s55.5 -23.5 80.5 -44.5s44.833 -47.5 59.5 -79.5s22 -65.333 22 -100c0 -77.333 -24.833 -138.166 -74.5 -182.499s-113.5 -66.5 -191.5 -66.5
c-73.333 0 -133.666 21.667 -180.999 65s-71 101.333 -71 174zM378.999 214.999c0 56 -9.33301 98 -28 126c-16 24 -38 36 -66 36c-32 0 -55.333 -13.333 -70 -40c-12 -22 -18 -50.333 -18 -85c0 -47.333 5 -84.333 15 -111c15.333 -40.667 42.333 -61 81 -61
c33.333 0 57 15 71 45c10 22 15 52 15 90z" />
    <glyph glyph-name="icircumflex" unicode="&#x43e;" 
d="M29 226c0 76 23.999 136.166 71.999 180.499s110.667 66.5 188 66.5c35.333 0 67.333 -4.33301 96 -13s55.5 -23.5 80.5 -44.5s44.833 -47.5 59.5 -79.5s22 -65.333 22 -100c0 -77.333 -24.833 -138.166 -74.5 -182.499s-113.5 -66.5 -191.5 -66.5
c-73.333 0 -133.666 21.667 -180.999 65s-71 101.333 -71 174zM378.999 214.999c0 56 -9.33301 98 -28 126c-16 24 -38 36 -66 36c-32 0 -55.333 -13.333 -70 -40c-12 -22 -18 -50.333 -18 -85c0 -47.333 5 -84.333 15 -111c15.333 -40.667 42.333 -61 81 -61
c33.333 0 57 15 71 45c10 22 15 52 15 90z" />
    <glyph glyph-name="idieresis" unicode="&#xef;" 
d="M520 110l-0.00195312 -46.001c2.66699 -23.333 14.334 -43.666 35.001 -60.999l-243 -3c17.333 15.333 28 32 32 50c2 8.66699 3 28.667 3 60v263h-114v-263v-46c2.66699 -23.333 14.334 -43.666 35.001 -60.999l-243 -3c17.333 15.333 28 32 32 50
c2 8.66699 3 28.667 3 60v240v17c0 27.333 -2.83301 46.666 -8.5 57.999s-14.5 22 -26.5 32l530 3c-15.333 -14 -25 -27.5 -29 -40.5s-6 -30.5 -6 -52.5v-17v-240z" />
    <glyph glyph-name="idieresis" unicode="&#x43f;" 
d="M520 110l-0.00195312 -46.001c2.66699 -23.333 14.334 -43.666 35.001 -60.999l-243 -3c17.333 15.333 28 32 32 50c2 8.66699 3 28.667 3 60v263h-114v-263v-46c2.66699 -23.333 14.334 -43.666 35.001 -60.999l-243 -3c17.333 15.333 28 32 32 50
c2 8.66699 3 28.667 3 60v240v17c0 27.333 -2.83301 46.666 -8.5 57.999s-14.5 22 -26.5 32l530 3c-15.333 -14 -25 -27.5 -29 -40.5s-6 -30.5 -6 -52.5v-17v-240z" />
    <glyph glyph-name="eth" unicode="&#xf0;" horiz-adv-x="600" 
d="M224 412c14 20 32.3311 35.165 54.998 45.498s47 15.5 73 15.5c66 0 118.333 -22.667 157 -68c36.667 -43.333 55 -99 55 -167c0 -32.667 -4.83301 -64.334 -14.5 -95.001s-24.5 -58 -44.5 -82c-22 -27.333 -47.833 -46.666 -77.5 -57.999s-63.834 -17 -102.501 -17
l-43 4l-36 93c4.66699 -1.33301 9.33398 -2.33301 14.001 -3s10.334 -1 17.001 -1c38.667 0 66 15 82 45c12 22.667 18 55.667 18 99c0 37.333 -4.66699 68.333 -14 93c-14 36 -36.667 54 -68 54s-52 -13 -62 -39c-6 -15.333 -9 -41.666 -9 -78.999v-350v-46
c2.66699 -23.333 14.334 -43.666 35.001 -60.999l-242 -3c14 12.667 23.167 25.834 27.5 39.501s6.5 30.167 6.5 49.5v21v448v16c0 28.667 -2.5 48.167 -7.5 58.5s-13.833 21.166 -26.5 32.499l136 3c13.333 0 25.5 1 36.5 3s21.5 6 31.5 12z" />
    <glyph glyph-name="eth" unicode="&#x440;" horiz-adv-x="600" 
d="M224 412c14 20 32.3311 35.165 54.998 45.498s47 15.5 73 15.5c66 0 118.333 -22.667 157 -68c36.667 -43.333 55 -99 55 -167c0 -32.667 -4.83301 -64.334 -14.5 -95.001s-24.5 -58 -44.5 -82c-22 -27.333 -47.833 -46.666 -77.5 -57.999s-63.834 -17 -102.501 -17
l-43 4l-36 93c4.66699 -1.33301 9.33398 -2.33301 14.001 -3s10.334 -1 17.001 -1c38.667 0 66 15 82 45c12 22.667 18 55.667 18 99c0 37.333 -4.66699 68.333 -14 93c-14 36 -36.667 54 -68 54s-52 -13 -62 -39c-6 -15.333 -9 -41.666 -9 -78.999v-350v-46
c2.66699 -23.333 14.334 -43.666 35.001 -60.999l-242 -3c14 12.667 23.167 25.834 27.5 39.501s6.5 30.167 6.5 49.5v21v448v16c0 28.667 -2.5 48.167 -7.5 58.5s-13.833 21.166 -26.5 32.499l136 3c13.333 0 25.5 1 36.5 3s21.5 6 31.5 12z" />
    <glyph glyph-name="ntilde" unicode="&#xf1;" horiz-adv-x="500" 
d="M429 348c-18 11.333 -35.001 19.6689 -51.001 25.002s-34 8 -54 8c-32.667 0 -58 -11.667 -76 -35c-10 -12.667 -16.833 -27.334 -20.5 -44.001s-5.5 -35 -5.5 -55c0 -22.667 3.5 -45.334 10.5 -68.001s17.5 -41.667 31.5 -57c10 -12 23.167 -20.833 39.5 -26.5
s33.5 -8.5 51.5 -8.5c22.667 0 45.834 4.33301 69.501 13s44.5 20 62.5 34l-29 -109c-26.667 -13.333 -54 -23 -82 -29s-58 -9 -90 -9c-71.333 0 -131.333 21 -180 63c-51.333 44.667 -77 102.334 -77 173.001c0 79.333 27.667 141.666 83 186.999
c51.333 42 117.666 63 198.999 63c12.667 0 27.334 -1 44.001 -3c39.333 -4.66699 64 -7 74 -7v-115z" />
    <glyph glyph-name="ntilde" unicode="&#x441;" horiz-adv-x="500" 
d="M429 348c-18 11.333 -35.001 19.6689 -51.001 25.002s-34 8 -54 8c-32.667 0 -58 -11.667 -76 -35c-10 -12.667 -16.833 -27.334 -20.5 -44.001s-5.5 -35 -5.5 -55c0 -22.667 3.5 -45.334 10.5 -68.001s17.5 -41.667 31.5 -57c10 -12 23.167 -20.833 39.5 -26.5
s33.5 -8.5 51.5 -8.5c22.667 0 45.834 4.33301 69.501 13s44.5 20 62.5 34l-29 -109c-26.667 -13.333 -54 -23 -82 -29s-58 -9 -90 -9c-71.333 0 -131.333 21 -180 63c-51.333 44.667 -77 102.334 -77 173.001c0 79.333 27.667 141.666 83 186.999
c51.333 42 117.666 63 198.999 63c12.667 0 27.334 -1 44.001 -3c39.333 -4.66699 64 -7 74 -7v-115z" />
    <glyph glyph-name="ograve" unicode="&#xf2;" horiz-adv-x="480" 
d="M154 370c-8 2 -19.332 3.00098 -33.999 3.00098c-37.333 0 -75 -13 -113 -39l-7 -5l30 134c7.33301 -2 13.666 -3 18.999 -3h429l-29 -131c-7.33301 16 -17.833 27.333 -31.5 34s-30.5 10 -50.5 10l-40 -3v-260c0 -25.333 3 -45.833 9 -61.5s18 -30.834 36 -45.501
l-263 -3c18 16.667 30 32.667 36 48s9 36 9 62v260z" />
    <glyph glyph-name="ograve" unicode="&#x442;" horiz-adv-x="480" 
d="M154 370c-8 2 -19.332 3.00098 -33.999 3.00098c-37.333 0 -75 -13 -113 -39l-7 -5l30 134c7.33301 -2 13.666 -3 18.999 -3h429l-29 -131c-7.33301 16 -17.833 27.333 -31.5 34s-30.5 10 -50.5 10l-40 -3v-260c0 -25.333 3 -45.833 9 -61.5s18 -30.834 36 -45.501
l-263 -3c18 16.667 30 32.667 36 48s9 36 9 62v260z" />
    <glyph glyph-name="oacute" unicode="&#xf3;" horiz-adv-x="480" 
d="M346 350c4.66699 12.667 8.00391 23.1699 10.0039 31.5029s3 17.166 3 26.499c0 11.333 -1.83301 20.166 -5.5 26.499s-9.83398 13.833 -18.501 22.5l147 3l-188 -497c-14.667 -40.667 -27 -68.334 -37 -83.001c-15.333 -23.333 -38.333 -43.333 -69 -60
c-20 -10 -43.333 -17.167 -70 -21.5s-53.334 -6.5 -80.001 -6.5l-45 3l79 100c9.33301 -2.66699 16.666 -4 21.999 -4c34.667 0 62.334 11.667 83.001 35c16 18 29.333 46 40 84c-20 13.333 -36.333 28.333 -49 45s-24.334 37.667 -35.001 63l-104 248
c-8.66699 20.667 -17.334 37.667 -26.001 51c-11.333 18 -24 31.333 -38 40l220 3c1.33301 -8.66699 3.83301 -18 7.5 -28s7.5 -19.667 11.5 -29l9 -23l77 -190z" />
    <glyph glyph-name="oacute" unicode="&#x443;" horiz-adv-x="480" 
d="M346 350c4.66699 12.667 8.00391 23.1699 10.0039 31.5029s3 17.166 3 26.499c0 11.333 -1.83301 20.166 -5.5 26.499s-9.83398 13.833 -18.501 22.5l147 3l-188 -497c-14.667 -40.667 -27 -68.334 -37 -83.001c-15.333 -23.333 -38.333 -43.333 -69 -60
c-20 -10 -43.333 -17.167 -70 -21.5s-53.334 -6.5 -80.001 -6.5l-45 3l79 100c9.33301 -2.66699 16.666 -4 21.999 -4c34.667 0 62.334 11.667 83.001 35c16 18 29.333 46 40 84c-20 13.333 -36.333 28.333 -49 45s-24.334 37.667 -35.001 63l-104 248
c-8.66699 20.667 -17.334 37.667 -26.001 51c-11.333 18 -24 31.333 -38 40l220 3c1.33301 -8.66699 3.83301 -18 7.5 -28s7.5 -19.667 11.5 -29l9 -23l77 -190z" />
    <glyph glyph-name="ocircumflex" unicode="&#xf4;" horiz-adv-x="889" 
d="M531 437c31.333 24 71.667 35.9971 121 35.9971c66 0 118.333 -22.667 157 -68c36.667 -43.333 55 -99 55 -167c0 -32.667 -4.83301 -64.334 -14.5 -95.001s-24.5 -58 -44.5 -82c-22 -27.333 -47.833 -46.666 -77.5 -57.999s-63.834 -17 -102.501 -17l-43 4l-36 93
c4.66699 -1.33301 9.33398 -2.33301 14.001 -3s10.334 -1 17.001 -1c38.667 0 66 15 82 45c12 22.667 18 55.667 18 99c0 37.333 -4.66699 68.333 -14 93c-14 36 -36.667 54 -68 54c-19.333 0 -34.333 -6.33301 -45 -19c-8 -10 -14.333 -24 -19 -42v-407v-46
c2.66699 -23.333 14.334 -43.666 35.001 -60.999l-242 -3c14 12.667 23.167 25.834 27.5 39.501s6.5 30.167 6.5 49.5v21v407c-6 24 -14.167 40.167 -24.5 48.5s-23.5 12.5 -39.5 12.5c-30.667 0 -53 -18 -67 -54c-10 -26 -15 -57 -15 -93c0 -56 10 -95 30 -117
c16 -18 39.333 -27 70 -27c5.33301 0 11 0.5 17 1.5s10.667 1.83301 14 2.5l-36 -93l-43 -4c-40 0 -73 5 -99 15c-31.333 12 -58.333 32 -81 60c-18.667 22.667 -33.167 50 -43.5 82s-15.5 63.667 -15.5 95c0 68.667 18.5 125 55.5 169s89.167 66 156.5 66
c48 0 88.333 -12 121 -36v111c0 28.667 -1.33301 48.334 -4 59.001c-4.66699 18 -15.334 34 -32.001 48l121 3h12c17.333 0 30.666 0.833008 39.999 2.5s20.333 6.16699 33 13.5z" />
    <glyph glyph-name="ocircumflex" unicode="&#x444;" horiz-adv-x="889" 
d="M531 437c31.333 24 71.667 35.9971 121 35.9971c66 0 118.333 -22.667 157 -68c36.667 -43.333 55 -99 55 -167c0 -32.667 -4.83301 -64.334 -14.5 -95.001s-24.5 -58 -44.5 -82c-22 -27.333 -47.833 -46.666 -77.5 -57.999s-63.834 -17 -102.501 -17l-43 4l-36 93
c4.66699 -1.33301 9.33398 -2.33301 14.001 -3s10.334 -1 17.001 -1c38.667 0 66 15 82 45c12 22.667 18 55.667 18 99c0 37.333 -4.66699 68.333 -14 93c-14 36 -36.667 54 -68 54c-19.333 0 -34.333 -6.33301 -45 -19c-8 -10 -14.333 -24 -19 -42v-407v-46
c2.66699 -23.333 14.334 -43.666 35.001 -60.999l-242 -3c14 12.667 23.167 25.834 27.5 39.501s6.5 30.167 6.5 49.5v21v407c-6 24 -14.167 40.167 -24.5 48.5s-23.5 12.5 -39.5 12.5c-30.667 0 -53 -18 -67 -54c-10 -26 -15 -57 -15 -93c0 -56 10 -95 30 -117
c16 -18 39.333 -27 70 -27c5.33301 0 11 0.5 17 1.5s10.667 1.83301 14 2.5l-36 -93l-43 -4c-40 0 -73 5 -99 15c-31.333 12 -58.333 32 -81 60c-18.667 22.667 -33.167 50 -43.5 82s-15.5 63.667 -15.5 95c0 68.667 18.5 125 55.5 169s89.167 66 156.5 66
c48 0 88.333 -12 121 -36v111c0 28.667 -1.33301 48.334 -4 59.001c-4.66699 18 -15.334 34 -32.001 48l121 3h12c17.333 0 30.666 0.833008 39.999 2.5s20.333 6.16699 33 13.5z" />
    <glyph glyph-name="otilde" unicode="&#xf5;" horiz-adv-x="520" 
d="M452 78l26.9961 -41c10.667 -14.667 22.334 -26 35.001 -34l-220 -3c-4.66699 13.333 -8.66699 23.833 -12 31.5s-13.666 26.5 -30.999 56.5l-36 63l-39 -58l-11 -16c-6.66699 -10.667 -10 -20.667 -10 -30c0 -10.667 3.33301 -20.667 10 -30
c2.66699 -4 7 -8.66699 13 -14l-176 -3l167 230l-95 150c-15.333 24 -24.666 38.333 -27.999 43c-11.333 14.667 -23.666 26 -36.999 34l218 3c2.66699 -20.667 9 -41.167 19 -61.5s24.333 -40.833 43 -61.5l11 15c12 16.667 20.667 30.5 26 41.5s8 20.5 8 28.5
c0 7.33301 -1.66699 14 -5 20s-8 11 -14 15l165 3l-141 -198z" />
    <glyph glyph-name="otilde" unicode="&#x445;" horiz-adv-x="520" 
d="M452 78l26.9961 -41c10.667 -14.667 22.334 -26 35.001 -34l-220 -3c-4.66699 13.333 -8.66699 23.833 -12 31.5s-13.666 26.5 -30.999 56.5l-36 63l-39 -58l-11 -16c-6.66699 -10.667 -10 -20.667 -10 -30c0 -10.667 3.33301 -20.667 10 -30
c2.66699 -4 7 -8.66699 13 -14l-176 -3l167 230l-95 150c-15.333 24 -24.666 38.333 -27.999 43c-11.333 14.667 -23.666 26 -36.999 34l218 3c2.66699 -20.667 9 -41.167 19 -61.5s24.333 -40.833 43 -61.5l11 15c12 16.667 20.667 30.5 26 41.5s8 20.5 8 28.5
c0 7.33301 -1.66699 14 -5 20s-8 11 -14 15l165 3l-141 -198z" />
    <glyph glyph-name="odieresis" unicode="&#xf6;" 
d="M25 0c17.333 15.333 28.001 32.0029 32.001 50.0029c2 8.66699 3 28.667 3 60v240v17c0 27.333 -2.83301 46.666 -8.5 57.999s-14.5 22 -26.5 32l243 3c-15.333 -14 -25 -27.5 -29 -40.5s-6 -30.5 -6 -52.5v-17v-261c5.33301 -1.33301 11.333 -2.33301 18 -3s14 -1 22 -1
h34c10.667 0 19.167 0.333008 25.5 1s11.166 1.66699 14.499 3v261v17c0 27.333 -2.83301 46.666 -8.5 57.999s-14.5 22 -26.5 32l243 3c-15.333 -14 -25 -27.333 -29 -40s-6 -30.334 -6 -53.001v-17v-240l1 -26h52l-32 -148c-8 18.667 -21.833 34 -41.5 46
s-43.167 18 -70.5 18h-404z" />
    <glyph glyph-name="odieresis" unicode="&#x446;" 
d="M25 0c17.333 15.333 28.001 32.0029 32.001 50.0029c2 8.66699 3 28.667 3 60v240v17c0 27.333 -2.83301 46.666 -8.5 57.999s-14.5 22 -26.5 32l243 3c-15.333 -14 -25 -27.5 -29 -40.5s-6 -30.5 -6 -52.5v-17v-261c5.33301 -1.33301 11.333 -2.33301 18 -3s14 -1 22 -1
h34c10.667 0 19.167 0.333008 25.5 1s11.166 1.66699 14.499 3v261v17c0 27.333 -2.83301 46.666 -8.5 57.999s-14.5 22 -26.5 32l243 3c-15.333 -14 -25 -27.333 -29 -40s-6 -30.334 -6 -53.001v-17v-240l1 -26h52l-32 -148c-8 18.667 -21.833 34 -41.5 46
s-43.167 18 -70.5 18h-404z" />
    <glyph glyph-name="divide" unicode="&#xf7;" horiz-adv-x="560" 
d="M500 110l-0.000976562 -45.999c2.66699 -23.333 14.334 -43.666 35.001 -60.999l-253 -3c18 16.667 30 32.667 36 48s9 36 9 62v86c-17.333 -13.333 -37.5 -23.666 -60.5 -30.999s-50.833 -11 -83.5 -11c-36.667 0 -68 12.667 -94 38s-39 57.333 -39 96v62v17
c0 27.333 -2.83301 46.666 -8.5 57.999s-14.5 22 -26.5 32l243 3c-15.333 -14 -25 -27.5 -29 -40.5s-6 -30.5 -6 -52.5v-17v-43c0 -27.333 13.333 -41 40 -41c24.667 0 46 8.33301 64 25v59v17c0 27.333 -2.83301 46.666 -8.5 57.999s-14.5 22 -26.5 32l243 3
c-15.333 -14 -25 -27.333 -29 -40s-6 -30.334 -6 -53.001v-17v-240z" />
    <glyph glyph-name="divide" unicode="&#x447;" horiz-adv-x="560" 
d="M500 110l-0.000976562 -45.999c2.66699 -23.333 14.334 -43.666 35.001 -60.999l-253 -3c18 16.667 30 32.667 36 48s9 36 9 62v86c-17.333 -13.333 -37.5 -23.666 -60.5 -30.999s-50.833 -11 -83.5 -11c-36.667 0 -68 12.667 -94 38s-39 57.333 -39 96v62v17
c0 27.333 -2.83301 46.666 -8.5 57.999s-14.5 22 -26.5 32l243 3c-15.333 -14 -25 -27.5 -29 -40.5s-6 -30.5 -6 -52.5v-17v-43c0 -27.333 13.333 -41 40 -41c24.667 0 46 8.33301 64 25v59v17c0 27.333 -2.83301 46.666 -8.5 57.999s-14.5 22 -26.5 32l243 3
c-15.333 -14 -25 -27.333 -29 -40s-6 -30.334 -6 -53.001v-17v-240z" />
    <glyph glyph-name="oslash" unicode="&#xf8;" horiz-adv-x="800" 
d="M25 0c17.333 15.333 28.001 32.0029 32.001 50.0029c2 8.66699 3 28.667 3 60v240v17c0 27.333 -2.83301 46.666 -8.5 57.999s-14.5 22 -26.5 32l243 3c-15.333 -14 -25 -27.5 -29 -40.5s-6 -30.5 -6 -52.5v-17v-261c5.33301 -1.33301 11.333 -2.33301 18 -3s14 -1 22 -1
c10.667 0 19.167 0.333008 25.5 1s11.166 1.66699 14.499 3v261v17c0 27.333 -2.83301 46.666 -8.5 57.999s-14.5 22 -26.5 32l243 3c-15.333 -14 -25 -27.5 -29 -40.5s-6 -30.5 -6 -52.5v-17v-261c5.33301 -1.33301 11.5 -2.33301 18.5 -3s14.5 -1 22.5 -1
c10.667 0 19.167 0.333008 25.5 1s11.166 1.66699 14.499 3v261v17c0 27.333 -2.83301 46.666 -8.5 57.999s-14.5 22 -26.5 32l243 3c-15.333 -14 -25 -27.333 -29 -40s-6 -30.334 -6 -53.001v-17v-240v-46c2.66699 -23.333 14.334 -43.666 35.001 -60.999z" />
    <glyph glyph-name="oslash" unicode="&#x448;" horiz-adv-x="800" 
d="M25 0c17.333 15.333 28.001 32.0029 32.001 50.0029c2 8.66699 3 28.667 3 60v240v17c0 27.333 -2.83301 46.666 -8.5 57.999s-14.5 22 -26.5 32l243 3c-15.333 -14 -25 -27.5 -29 -40.5s-6 -30.5 -6 -52.5v-17v-261c5.33301 -1.33301 11.333 -2.33301 18 -3s14 -1 22 -1
c10.667 0 19.167 0.333008 25.5 1s11.166 1.66699 14.499 3v261v17c0 27.333 -2.83301 46.666 -8.5 57.999s-14.5 22 -26.5 32l243 3c-15.333 -14 -25 -27.5 -29 -40.5s-6 -30.5 -6 -52.5v-17v-261c5.33301 -1.33301 11.5 -2.33301 18.5 -3s14.5 -1 22.5 -1
c10.667 0 19.167 0.333008 25.5 1s11.166 1.66699 14.499 3v261v17c0 27.333 -2.83301 46.666 -8.5 57.999s-14.5 22 -26.5 32l243 3c-15.333 -14 -25 -27.333 -29 -40s-6 -30.334 -6 -53.001v-17v-240v-46c2.66699 -23.333 14.334 -43.666 35.001 -60.999z" />
    <glyph glyph-name="ugrave" unicode="&#xf9;" horiz-adv-x="800" 
d="M25 0c17.333 15.333 28.002 32.0039 32.002 50.0039c2 8.66699 3 28.667 3 60v240v17c0 27.333 -2.83301 46.666 -8.5 57.999s-14.5 22 -26.5 32l243 3c-15.333 -14 -25 -27.5 -29 -40.5s-6 -30.5 -6 -52.5v-17v-261c5.33301 -1.33301 11.333 -2.33301 18 -3s14 -1 22 -1
c10.667 0 19.167 0.333008 25.5 1s11.166 1.66699 14.499 3v261v17c0 27.333 -2.83301 46.666 -8.5 57.999s-14.5 22 -26.5 32l243 3c-15.333 -14 -25 -27.5 -29 -40.5s-6 -30.5 -6 -52.5v-17v-261c5.33301 -1.33301 11.5 -2.33301 18.5 -3s14.5 -1 22.5 -1
c10.667 0 19.167 0.333008 25.5 1s11.166 1.66699 14.499 3v261v17c0 27.333 -2.83301 46.666 -8.5 57.999s-14.5 22 -26.5 32l243 3c-15.333 -14 -25 -27.333 -29 -40s-6 -30.334 -6 -53.001v-17v-240l1 -26h52l-32 -148c-8 18.667 -21.833 34 -41.5 46
s-43.167 18 -70.5 18h-624z" />
    <glyph glyph-name="ugrave" unicode="&#x449;" horiz-adv-x="800" 
d="M25 0c17.333 15.333 28.002 32.0039 32.002 50.0039c2 8.66699 3 28.667 3 60v240v17c0 27.333 -2.83301 46.666 -8.5 57.999s-14.5 22 -26.5 32l243 3c-15.333 -14 -25 -27.5 -29 -40.5s-6 -30.5 -6 -52.5v-17v-261c5.33301 -1.33301 11.333 -2.33301 18 -3s14 -1 22 -1
c10.667 0 19.167 0.333008 25.5 1s11.166 1.66699 14.499 3v261v17c0 27.333 -2.83301 46.666 -8.5 57.999s-14.5 22 -26.5 32l243 3c-15.333 -14 -25 -27.5 -29 -40.5s-6 -30.5 -6 -52.5v-17v-261c5.33301 -1.33301 11.5 -2.33301 18.5 -3s14.5 -1 22.5 -1
c10.667 0 19.167 0.333008 25.5 1s11.166 1.66699 14.499 3v261v17c0 27.333 -2.83301 46.666 -8.5 57.999s-14.5 22 -26.5 32l243 3c-15.333 -14 -25 -27.333 -29 -40s-6 -30.334 -6 -53.001v-17v-240l1 -26h52l-32 -148c-8 18.667 -21.833 34 -41.5 46
s-43.167 18 -70.5 18h-624z" />
    <glyph glyph-name="uacute" unicode="&#xfa;" horiz-adv-x="520" 
d="M310 460c-16 -13.333 -26.166 -28.668 -30.499 -46.001s-6.5 -39 -6.5 -65v-273c26.667 0 45.834 7.66699 57.501 23s17.5 36.666 17.5 63.999c0 23.333 -6.33301 43.833 -19 61.5s-29.667 30.167 -51 37.5c4.66699 0.666992 11.334 1.16699 20.001 1.5
s14.667 0.5 18 0.5c61.333 0 109 -9.66699 143 -29c40.667 -23.333 61 -59.666 61 -108.999c0 -50.667 -26.667 -87 -80 -109c-21.333 -9.33301 -47 -14.5 -77 -15.5s-55.333 -1.5 -76 -1.5h-222c16 14.667 26.333 31.334 31 50.001c2.66699 11.333 4 31.333 4 60v263
c-18.667 0 -35.334 -3 -50.001 -9s-32.334 -16 -53.001 -30l-7 -5l30 134c7.33301 -2 13.666 -3 18.999 -3h271z" />
    <glyph glyph-name="uacute" unicode="&#x44a;" horiz-adv-x="520" 
d="M310 460c-16 -13.333 -26.166 -28.668 -30.499 -46.001s-6.5 -39 -6.5 -65v-273c26.667 0 45.834 7.66699 57.501 23s17.5 36.666 17.5 63.999c0 23.333 -6.33301 43.833 -19 61.5s-29.667 30.167 -51 37.5c4.66699 0.666992 11.334 1.16699 20.001 1.5
s14.667 0.5 18 0.5c61.333 0 109 -9.66699 143 -29c40.667 -23.333 61 -59.666 61 -108.999c0 -50.667 -26.667 -87 -80 -109c-21.333 -9.33301 -47 -14.5 -77 -15.5s-55.333 -1.5 -76 -1.5h-222c16 14.667 26.333 31.334 31 50.001c2.66699 11.333 4 31.333 4 60v263
c-18.667 0 -35.334 -3 -50.001 -9s-32.334 -16 -53.001 -30l-7 -5l30 134c7.33301 -2 13.666 -3 18.999 -3h271z" />
    <glyph glyph-name="ucircumflex" unicode="&#xfb;" horiz-adv-x="780" 
d="M233 349l-0.00195312 -273.001c26.667 0 45.834 7.66699 57.501 23s17.5 36.666 17.5 63.999c0 23.333 -6.33301 43.833 -19 61.5s-29.667 30.167 -51 37.5c4.66699 0.666992 11.334 1.16699 20.001 1.5s14.667 0.5 18 0.5c61.333 0 109 -9.66699 143 -29
c40.667 -23.333 61 -59.666 61 -108.999c0 -50.667 -26.667 -87 -80 -109c-21.333 -9.33301 -47 -14.5 -77 -15.5s-55.333 -1.5 -76 -1.5h-222c16 14.667 26.333 31.334 31 50.001c2.66699 11.333 4 31.333 4 60v240v17c0 27.333 -2.66699 46.666 -8 57.999
s-14.333 22.333 -27 33l245 2c-16 -13.333 -26.167 -28.666 -30.5 -45.999s-6.5 -39 -6.5 -65zM719.998 109.999l-0.000976562 -45.999c2.66699 -23.333 14.334 -43.666 35.001 -60.999l-243 -3c17.333 15.333 28 32 32 50c2 8.66699 3 28.667 3 60v240v17
c0 27.333 -2.83301 46.666 -8.5 57.999s-14.5 22 -26.5 32l243 3c-15.333 -14 -25 -27.333 -29 -40s-6 -30.334 -6 -53.001v-17v-240z" />
    <glyph glyph-name="ucircumflex" unicode="&#x44b;" horiz-adv-x="780" 
d="M233 349l-0.00195312 -273.001c26.667 0 45.834 7.66699 57.501 23s17.5 36.666 17.5 63.999c0 23.333 -6.33301 43.833 -19 61.5s-29.667 30.167 -51 37.5c4.66699 0.666992 11.334 1.16699 20.001 1.5s14.667 0.5 18 0.5c61.333 0 109 -9.66699 143 -29
c40.667 -23.333 61 -59.666 61 -108.999c0 -50.667 -26.667 -87 -80 -109c-21.333 -9.33301 -47 -14.5 -77 -15.5s-55.333 -1.5 -76 -1.5h-222c16 14.667 26.333 31.334 31 50.001c2.66699 11.333 4 31.333 4 60v240v17c0 27.333 -2.66699 46.666 -8 57.999
s-14.333 22.333 -27 33l245 2c-16 -13.333 -26.167 -28.666 -30.5 -45.999s-6.5 -39 -6.5 -65zM719.998 109.999l-0.000976562 -45.999c2.66699 -23.333 14.334 -43.666 35.001 -60.999l-243 -3c17.333 15.333 28 32 32 50c2 8.66699 3 28.667 3 60v240v17
c0 27.333 -2.83301 46.666 -8.5 57.999s-14.5 22 -26.5 32l243 3c-15.333 -14 -25 -27.333 -29 -40s-6 -30.334 -6 -53.001v-17v-240z" />
    <glyph glyph-name="udieresis" unicode="&#xfc;" horiz-adv-x="480" 
d="M233 349l-0.00195312 -273.001c26.667 0 45.834 7.66699 57.501 23s17.5 36.666 17.5 63.999c0 23.333 -6.33301 43.833 -19 61.5s-29.667 30.167 -51 37.5c4.66699 0.666992 11.334 1.16699 20.001 1.5s14.667 0.5 18 0.5c61.333 0 109 -9.66699 143 -29
c40.667 -23.333 61 -59.666 61 -108.999c0 -50.667 -26.667 -87 -80 -109c-21.333 -9.33301 -47 -14.5 -77 -15.5s-55.333 -1.5 -76 -1.5h-222c16 14.667 26.333 31.334 31 50.001c2.66699 11.333 4 31.333 4 60v240v17c0 27.333 -2.66699 46.666 -8 57.999
s-14.333 22.333 -27 33l245 2c-16 -13.333 -26.167 -28.666 -30.5 -45.999s-6.5 -39 -6.5 -65z" />
    <glyph glyph-name="udieresis" unicode="&#x44c;" horiz-adv-x="480" 
d="M233 349l-0.00195312 -273.001c26.667 0 45.834 7.66699 57.501 23s17.5 36.666 17.5 63.999c0 23.333 -6.33301 43.833 -19 61.5s-29.667 30.167 -51 37.5c4.66699 0.666992 11.334 1.16699 20.001 1.5s14.667 0.5 18 0.5c61.333 0 109 -9.66699 143 -29
c40.667 -23.333 61 -59.666 61 -108.999c0 -50.667 -26.667 -87 -80 -109c-21.333 -9.33301 -47 -14.5 -77 -15.5s-55.333 -1.5 -76 -1.5h-222c16 14.667 26.333 31.334 31 50.001c2.66699 11.333 4 31.333 4 60v240v17c0 27.333 -2.66699 46.666 -8 57.999
s-14.333 22.333 -27 33l245 2c-16 -13.333 -26.167 -28.666 -30.5 -45.999s-6.5 -39 -6.5 -65z" />
    <glyph glyph-name="yacute" unicode="&#xfd;" horiz-adv-x="500" 
d="M276 289c-3.33301 28 -14.3301 50.3311 -32.9971 66.998s-41 25 -67 25c-18.667 0 -36.167 -2.66699 -52.5 -8s-32.833 -13.666 -49.5 -24.999l-3 115c12.667 0 27.334 1 44.001 3c39.333 4.66699 64 7 74 7c81.333 0 147.666 -21 198.999 -63
c55.333 -45.333 83 -107.666 83 -186.999c0 -70.667 -24.833 -127.667 -74.5 -171s-110.5 -65 -182.5 -65c-30.667 0 -60.334 3 -89.001 9s-56.334 15.667 -83.001 29l-32 109c19.333 -14 40.833 -25.333 64.5 -34s47.167 -13 70.5 -13c37.333 0 66.666 10 87.999 30
s35 47.667 41 83h-153v89h155z" />
    <glyph glyph-name="yacute" unicode="&#x44d;" horiz-adv-x="500" 
d="M276 289c-3.33301 28 -14.3301 50.3311 -32.9971 66.998s-41 25 -67 25c-18.667 0 -36.167 -2.66699 -52.5 -8s-32.833 -13.666 -49.5 -24.999l-3 115c12.667 0 27.334 1 44.001 3c39.333 4.66699 64 7 74 7c81.333 0 147.666 -21 198.999 -63
c55.333 -45.333 83 -107.666 83 -186.999c0 -70.667 -24.833 -127.667 -74.5 -171s-110.5 -65 -182.5 -65c-30.667 0 -60.334 3 -89.001 9s-56.334 15.667 -83.001 29l-32 109c19.333 -14 40.833 -25.333 64.5 -34s47.167 -13 70.5 -13c37.333 0 66.666 10 87.999 30
s35 47.667 41 83h-153v89h155z" />
    <glyph glyph-name="thorn" unicode="&#xfe;" horiz-adv-x="820" 
d="M294 205h-61.001v-95v-46c2.66699 -23.333 14.334 -43.666 35.001 -60.999l-243 -3c17.333 15.333 28 32 32 50c2 8.66699 3 28.667 3 60v240v17c0 27.333 -2.83301 46.666 -8.5 57.999s-14.5 22 -26.5 32l243 3c-15.333 -14 -25 -27.5 -29 -40.5s-6 -30.5 -6 -52.5v-17
v-66h63c11.333 59.333 39 105.666 83 138.999s98.667 50 164 50c73.333 0 133 -21.167 179 -63.5s69 -100.166 69 -173.499c0 -78 -23.333 -139 -70 -183s-108.667 -66 -186 -66c-69.333 0 -126.333 19.333 -171 58c-46.667 40.667 -70 94 -70 160zM622.999 215
c0 42 -5.00098 76.666 -15.001 103.999c-14 38.667 -37 58 -69 58c-28 0 -48.667 -13.333 -62 -40c-10.667 -21.333 -16 -49.666 -16 -84.999c0 -48 4.33301 -85 13 -111c14 -40.667 38.333 -61 73 -61c22.667 0 40.334 9 53.001 27c15.333 22 23 58 23 108z" />
    <glyph glyph-name="thorn" unicode="&#x44e;" horiz-adv-x="820" 
d="M294 205h-61.001v-95v-46c2.66699 -23.333 14.334 -43.666 35.001 -60.999l-243 -3c17.333 15.333 28 32 32 50c2 8.66699 3 28.667 3 60v240v17c0 27.333 -2.83301 46.666 -8.5 57.999s-14.5 22 -26.5 32l243 3c-15.333 -14 -25 -27.5 -29 -40.5s-6 -30.5 -6 -52.5v-17
v-66h63c11.333 59.333 39 105.666 83 138.999s98.667 50 164 50c73.333 0 133 -21.167 179 -63.5s69 -100.166 69 -173.499c0 -78 -23.333 -139 -70 -183s-108.667 -66 -186 -66c-69.333 0 -126.333 19.333 -171 58c-46.667 40.667 -70 94 -70 160zM622.999 215
c0 42 -5.00098 76.666 -15.001 103.999c-14 38.667 -37 58 -69 58c-28 0 -48.667 -13.333 -62 -40c-10.667 -21.333 -16 -49.666 -16 -84.999c0 -48 4.33301 -85 13 -111c14 -40.667 38.333 -61 73 -61c22.667 0 40.334 9 53.001 27c15.333 22 23 58 23 108z" />
    <glyph glyph-name="ydieresis" unicode="&#xff;" horiz-adv-x="540" 
d="M515 460c-15.333 -14 -25.001 -27.3311 -29.001 -39.998s-6 -30.334 -6 -53.001v-17v-240v-46c2.66699 -23.333 14.334 -43.666 35.001 -60.999l-243 -3c17.333 15.333 28 32 32 50c2 8.66699 3 28.667 3 60v87l-77 -152c-11.333 -21.333 -27 -35 -47 -41
c-13.333 -4 -37.333 -6 -72 -6l-146 6c17.333 12 34.166 25.167 50.499 39.5s29.833 29.166 40.5 44.499l89 129c-28 10 -51.5 26.167 -70.5 48.5s-28.5 46.5 -28.5 72.5c0 49.333 24.667 84.666 74 105.999c16.667 7.33301 33.334 11.833 50.001 13.5s37.667 2.5 63 2.5
h282zM306.999 371.002h-8c-11.333 0 -20.333 -0.333008 -27 -1s-14 -3 -22 -7c-22 -10.667 -33 -28 -33 -52c0 -21.333 8 -38.5 24 -51.5s38 -21.5 66 -25.5v137z" />
    <glyph glyph-name="ydieresis" unicode="&#x44f;" horiz-adv-x="540" 
d="M515 460c-15.333 -14 -25.001 -27.3311 -29.001 -39.998s-6 -30.334 -6 -53.001v-17v-240v-46c2.66699 -23.333 14.334 -43.666 35.001 -60.999l-243 -3c17.333 15.333 28 32 32 50c2 8.66699 3 28.667 3 60v87l-77 -152c-11.333 -21.333 -27 -35 -47 -41
c-13.333 -4 -37.333 -6 -72 -6l-146 6c17.333 12 34.166 25.167 50.499 39.5s29.833 29.166 40.5 44.499l89 129c-28 10 -51.5 26.167 -70.5 48.5s-28.5 46.5 -28.5 72.5c0 49.333 24.667 84.666 74 105.999c16.667 7.33301 33.334 11.833 50.001 13.5s37.667 2.5 63 2.5
h282zM306.999 371.002h-8c-11.333 0 -20.333 -0.333008 -27 -1s-14 -3 -22 -7c-22 -10.667 -33 -28 -33 -52c0 -21.333 8 -38.5 24 -51.5s38 -21.5 66 -25.5v137z" />
    <glyph glyph-name="OE" unicode="&#x152;" horiz-adv-x="900" 
d="M418 300l-179 0.00390625v-157v-33c0 -33.333 3.5 -57.166 10.5 -71.499s17.5 -26.166 31.5 -35.499l-269 -3c17.333 12 28.666 27 33.999 45s8 39.667 8 65v33v372v33c0 33.333 -3.5 57.166 -10.5 71.499s-17.5 26.166 -31.5 35.499l269 3
c-17.333 -12 -28.666 -26.167 -33.999 -42.5s-8 -36.833 -8 -61.5v-39v-114h179v114v33c0 33.333 -3.5 57.166 -10.5 71.499s-17.5 26.166 -31.5 35.499l267 3c-19.333 -19.333 -31.5 -39.5 -36.5 -60.5s-7.5 -49.167 -7.5 -84.5v-414c36.667 0 63.667 12.667 81 38
c14.667 22 22 52.667 22 92c0 70 -32.333 118.667 -97 146c6 1.33301 12.5 2 19.5 2h16.5c69.333 0 125.666 -15 168.999 -45c50.667 -34.667 76 -85.334 76 -152.001c0 -34.667 -8.16699 -65.5 -24.5 -92.5s-39.833 -48.167 -70.5 -63.5
c-21.333 -10.667 -46.666 -17.334 -75.999 -20.001s-63.666 -4 -102.999 -4h-236c17.333 12 28.666 27 33.999 45s8 39.667 8 65v33v157z" />
    <glyph glyph-name="OE" unicode="&#x40a;" horiz-adv-x="900" 
d="M418 300l-179 0.00390625v-157v-33c0 -33.333 3.5 -57.166 10.5 -71.499s17.5 -26.166 31.5 -35.499l-269 -3c17.333 12 28.666 27 33.999 45s8 39.667 8 65v33v372v33c0 33.333 -3.5 57.166 -10.5 71.499s-17.5 26.166 -31.5 35.499l269 3
c-17.333 -12 -28.666 -26.167 -33.999 -42.5s-8 -36.833 -8 -61.5v-39v-114h179v114v33c0 33.333 -3.5 57.166 -10.5 71.499s-17.5 26.166 -31.5 35.499l267 3c-19.333 -19.333 -31.5 -39.5 -36.5 -60.5s-7.5 -49.167 -7.5 -84.5v-414c36.667 0 63.667 12.667 81 38
c14.667 22 22 52.667 22 92c0 70 -32.333 118.667 -97 146c6 1.33301 12.5 2 19.5 2h16.5c69.333 0 125.666 -15 168.999 -45c50.667 -34.667 76 -85.334 76 -152.001c0 -34.667 -8.16699 -65.5 -24.5 -92.5s-39.833 -48.167 -70.5 -63.5
c-21.333 -10.667 -46.666 -17.334 -75.999 -20.001s-63.666 -4 -102.999 -4h-236c17.333 12 28.666 27 33.999 45s8 39.667 8 65v33v157z" />
    <glyph glyph-name="oe" unicode="&#x153;" horiz-adv-x="780" 
d="M347 201l-114.003 -0.000976562v-91v-46c2.66699 -23.333 14.334 -43.666 35.001 -60.999l-243 -3c17.333 15.333 28 32 32 50c2 8.66699 3 28.667 3 60v240v17c0 27.333 -2.83301 46.666 -8.5 57.999s-14.5 22 -26.5 32l243 3c-15.333 -14 -25 -27.5 -29 -40.5
s-6 -30.5 -6 -52.5v-17v-62h114v62v17c0 27.333 -2.66699 46.666 -8 57.999s-14.333 22.333 -27 33l245 2c-16 -13.333 -26.167 -28.666 -30.5 -45.999s-6.5 -39 -6.5 -65v-273c26.667 0 45.834 7.66699 57.501 23s17.5 36.666 17.5 63.999
c0 23.333 -6.33301 43.833 -19 61.5s-29.667 30.167 -51 37.5c4.66699 0.666992 11.334 1.16699 20.001 1.5s14.667 0.5 18 0.5c61.333 0 109 -9.66699 143 -29c40.667 -23.333 61 -59.666 61 -108.999c0 -50.667 -26.667 -87 -80 -109
c-21.333 -9.33301 -47 -14.5 -77 -15.5s-55.333 -1.5 -76 -1.5h-222c16 14.667 26.333 31.334 31 50.001c2.66699 11.333 4 31.333 4 60v91z" />
    <glyph glyph-name="oe" unicode="&#x45a;" horiz-adv-x="780" 
d="M347 201l-114.003 -0.000976562v-91v-46c2.66699 -23.333 14.334 -43.666 35.001 -60.999l-243 -3c17.333 15.333 28 32 32 50c2 8.66699 3 28.667 3 60v240v17c0 27.333 -2.83301 46.666 -8.5 57.999s-14.5 22 -26.5 32l243 3c-15.333 -14 -25 -27.5 -29 -40.5
s-6 -30.5 -6 -52.5v-17v-62h114v62v17c0 27.333 -2.66699 46.666 -8 57.999s-14.333 22.333 -27 33l245 2c-16 -13.333 -26.167 -28.666 -30.5 -45.999s-6.5 -39 -6.5 -65v-273c26.667 0 45.834 7.66699 57.501 23s17.5 36.666 17.5 63.999
c0 23.333 -6.33301 43.833 -19 61.5s-29.667 30.167 -51 37.5c4.66699 0.666992 11.334 1.16699 20.001 1.5s14.667 0.5 18 0.5c61.333 0 109 -9.66699 143 -29c40.667 -23.333 61 -59.666 61 -108.999c0 -50.667 -26.667 -87 -80 -109
c-21.333 -9.33301 -47 -14.5 -77 -15.5s-55.333 -1.5 -76 -1.5h-222c16 14.667 26.333 31.334 31 50.001c2.66699 11.333 4 31.333 4 60v91z" />
    <glyph glyph-name="Scaron" unicode="&#x160;" horiz-adv-x="840" 
d="M360 557l-37 0.00195312l-130 -401c-15.333 -46 -37 -84.667 -65 -116c-32.667 -36.667 -68.334 -55 -107.001 -55l-57 101c32 0 57.667 5.33301 77 16c22.667 12.667 39.334 34 50.001 64l122 351c4 10 8.66699 23.833 14 41.5s8 30.5 8 38.5
c0 12.667 -3.33301 23.5 -10 32.5s-16 17.5 -28 25.5l388 3c-19.333 -19.333 -31.5 -39.5 -36.5 -60.5s-7.5 -49.167 -7.5 -84.5v-414c36.667 0 63.667 12.667 81 38c14.667 22 22 52.667 22 92c0 70 -32.333 118.667 -97 146c6 1.33301 12.5 2 19.5 2h16.5
c69.333 0 125.666 -15 168.999 -45c50.667 -34.667 76 -85.334 76 -152.001c0 -34.667 -8.16699 -65.5 -24.5 -92.5s-39.833 -48.167 -70.5 -63.5c-21.333 -10.667 -46.666 -17.334 -75.999 -20.001s-63.666 -4 -102.999 -4h-236c17.333 12 28.666 27 33.999 45
s8 39.667 8 65v33v414z" />
    <glyph glyph-name="Scaron" unicode="&#x409;" horiz-adv-x="840" 
d="M360 557l-37 0.00195312l-130 -401c-15.333 -46 -37 -84.667 -65 -116c-32.667 -36.667 -68.334 -55 -107.001 -55l-57 101c32 0 57.667 5.33301 77 16c22.667 12.667 39.334 34 50.001 64l122 351c4 10 8.66699 23.833 14 41.5s8 30.5 8 38.5
c0 12.667 -3.33301 23.5 -10 32.5s-16 17.5 -28 25.5l388 3c-19.333 -19.333 -31.5 -39.5 -36.5 -60.5s-7.5 -49.167 -7.5 -84.5v-414c36.667 0 63.667 12.667 81 38c14.667 22 22 52.667 22 92c0 70 -32.333 118.667 -97 146c6 1.33301 12.5 2 19.5 2h16.5
c69.333 0 125.666 -15 168.999 -45c50.667 -34.667 76 -85.334 76 -152.001c0 -34.667 -8.16699 -65.5 -24.5 -92.5s-39.833 -48.167 -70.5 -63.5c-21.333 -10.667 -46.666 -17.334 -75.999 -20.001s-63.666 -4 -102.999 -4h-236c17.333 12 28.666 27 33.999 45
s8 39.667 8 65v33v414z" />
    <glyph glyph-name="scaron" unicode="&#x161;" horiz-adv-x="700" 
d="M263 373l-16.0029 -0.00292969l-88 -264c-13.333 -39.333 -33.166 -69 -59.499 -89s-56.833 -30 -91.5 -30h-4l-25 85c25.333 0 45 3.33301 59 10s24.667 20.334 32 41.001l83 235c4.66699 12 8 21.333 10 28c4.66699 13.333 7 22.666 7 27.999
c0 8.66699 -2.83301 16.334 -8.5 23.001s-13.5 12.667 -23.5 18l335 2c-16 -13.333 -26.167 -28.666 -30.5 -45.999s-6.5 -39 -6.5 -65v-273c26.667 0 45.834 7.66699 57.501 23s17.5 36.666 17.5 63.999c0 23.333 -6.33301 43.833 -19 61.5s-29.667 30.167 -51 37.5
c4.66699 0.666992 11.334 1.16699 20.001 1.5s14.667 0.5 18 0.5c61.333 0 109 -9.66699 143 -29c40.667 -23.333 61 -59.666 61 -108.999c0 -50.667 -26.667 -87 -80 -109c-21.333 -9.33301 -47 -14.5 -77 -15.5s-55.333 -1.5 -76 -1.5h-222
c16 14.667 26.333 31.334 31 50.001c2.66699 11.333 4 31.333 4 60v263z" />
    <glyph glyph-name="scaron" unicode="&#x459;" horiz-adv-x="700" 
d="M263 373l-16.0029 -0.00292969l-88 -264c-13.333 -39.333 -33.166 -69 -59.499 -89s-56.833 -30 -91.5 -30h-4l-25 85c25.333 0 45 3.33301 59 10s24.667 20.334 32 41.001l83 235c4.66699 12 8 21.333 10 28c4.66699 13.333 7 22.666 7 27.999
c0 8.66699 -2.83301 16.334 -8.5 23.001s-13.5 12.667 -23.5 18l335 2c-16 -13.333 -26.167 -28.666 -30.5 -45.999s-6.5 -39 -6.5 -65v-273c26.667 0 45.834 7.66699 57.501 23s17.5 36.666 17.5 63.999c0 23.333 -6.33301 43.833 -19 61.5s-29.667 30.167 -51 37.5
c4.66699 0.666992 11.334 1.16699 20.001 1.5s14.667 0.5 18 0.5c61.333 0 109 -9.66699 143 -29c40.667 -23.333 61 -59.666 61 -108.999c0 -50.667 -26.667 -87 -80 -109c-21.333 -9.33301 -47 -14.5 -77 -15.5s-55.333 -1.5 -76 -1.5h-222
c16 14.667 26.333 31.334 31 50.001c2.66699 11.333 4 31.333 4 60v263z" />
    <glyph glyph-name="Ydieresis" unicode="&#x178;" 
d="M178 0l-153 0.00195312c17.333 15.333 28 32 32 50c2 8.66699 3 28.667 3 60v240v17c0 27.333 -2.83301 46.666 -8.5 57.999s-14.5 22 -26.5 32l243 3c-15.333 -14 -25 -27.5 -29 -40.5s-6 -30.5 -6 -52.5v-17v-261c5.33301 -1.33301 11.333 -2.33301 18 -3s14 -1 22 -1
h34c10.667 0 19.167 0.333008 25.5 1s11.166 1.66699 14.499 3v261v17c0 27.333 -2.83301 46.666 -8.5 57.999s-14.5 22 -26.5 32l243 3c-15.333 -14 -25 -27.333 -29 -40s-6 -30.334 -6 -53.001v-17v-240v-46c2.66699 -23.333 14.334 -43.666 35.001 -60.999l-153 -3
c-27.333 0 -50.833 -6 -70.5 -18s-33.5 -27.333 -41.5 -46c-8 18.667 -21.833 34 -41.5 46s-43.167 18 -70.5 18z" />
    <glyph glyph-name="Ydieresis" unicode="&#x45f;" 
d="M178 0l-153 0.00195312c17.333 15.333 28 32 32 50c2 8.66699 3 28.667 3 60v240v17c0 27.333 -2.83301 46.666 -8.5 57.999s-14.5 22 -26.5 32l243 3c-15.333 -14 -25 -27.5 -29 -40.5s-6 -30.5 -6 -52.5v-17v-261c5.33301 -1.33301 11.333 -2.33301 18 -3s14 -1 22 -1
h34c10.667 0 19.167 0.333008 25.5 1s11.166 1.66699 14.499 3v261v17c0 27.333 -2.83301 46.666 -8.5 57.999s-14.5 22 -26.5 32l243 3c-15.333 -14 -25 -27.333 -29 -40s-6 -30.334 -6 -53.001v-17v-240v-46c2.66699 -23.333 14.334 -43.666 35.001 -60.999l-153 -3
c-27.333 0 -50.833 -6 -70.5 -18s-33.5 -27.333 -41.5 -46c-8 18.667 -21.833 34 -41.5 46s-43.167 18 -70.5 18z" />
    <glyph glyph-name="florin" unicode="&#x192;" horiz-adv-x="400" 
d="M233 110v-46c2.66699 -23.333 14.334 -43.666 35.001 -60.999l-243 -3c17.333 15.333 28 32 32 50c2 8.66699 3 28.667 3 60v240v17c0 27.333 -2.83301 46.666 -8.5 57.999s-14.5 22 -26.5 32l355 3v-131c-7.33301 16 -17.833 27.333 -31.5 34s-30.5 10 -50.5 10
c-18.667 0 -33.334 -0.666992 -44.001 -2s-17.667 -2 -21 -2v-259zM358 594l-234 -87l-58 35l242 138z" />
    <glyph glyph-name="florin" unicode="&#x453;" horiz-adv-x="400" 
d="M233 110v-46c2.66699 -23.333 14.334 -43.666 35.001 -60.999l-243 -3c17.333 15.333 28 32 32 50c2 8.66699 3 28.667 3 60v240v17c0 27.333 -2.83301 46.666 -8.5 57.999s-14.5 22 -26.5 32l355 3v-131c-7.33301 16 -17.833 27.333 -31.5 34s-30.5 10 -50.5 10
c-18.667 0 -33.334 -0.666992 -44.001 -2s-17.667 -2 -21 -2v-259zM358 594l-234 -87l-58 35l242 138z" />
    <glyph glyph-name="endash" unicode="&#x2013;" horiz-adv-x="500" 
d="M70 301h-14c-10 0 -17 -1.33301 -21 -4s-9.83301 -9.5 -17.5 -20.5l-16.5 -23.5l-51 -73c36.667 10 77 15 121 15h359h14c10 0 17 1.33301 21 4s9.83301 9.5 17.5 20.5l16.5 23.5l51 73c-36.667 -10 -77 -15 -121 -15h-359z" />
    <glyph glyph-name="emdash" unicode="&#x2014;" horiz-adv-x="1000" 
d="M70 301h-14c-10 0 -17 -1.33301 -21 -4s-9.83301 -9.5 -17.5 -20.5l-16.5 -23.5l-51 -73c36.667 10 77 15 121 15h859h14c10 0 17 1.33301 21 4s9.83301 9.5 17.5 20.5l16.5 23.5l51 73c-36.667 -10 -77 -15 -121 -15h-859z" />
    <glyph glyph-name="quoteleft" unicode="&#x2018;" horiz-adv-x="280" 
d="M211 631c-20.667 -16.667 -35.998 -30.001 -45.998 -40.001s-18 -20 -24 -30c22 0 40.833 -7.16699 56.5 -21.5s23.5 -32.166 23.5 -53.499c0 -20.667 -8 -38.667 -24 -54s-34 -23 -54 -23c-24.667 0 -44.834 8.5 -60.501 25.5s-23.5 38.167 -23.5 63.5
c0 21.333 5.66699 42 17 62c9.33301 16.667 22.666 34 39.999 52c14 15.333 23.667 25 29 29c14 11.333 26.667 17 38 17c18.667 0 35 -3.33301 49 -10z" />
    <glyph glyph-name="quoteright" unicode="&#x2019;" horiz-adv-x="280" 
d="M68 436c20.667 16.667 35.998 30 45.998 40s18 20 24 30c-22 0 -40.833 7.16699 -56.5 21.5s-23.5 32.166 -23.5 53.499c0 20.667 8 38.667 24 54s34 23 54 23c24.667 0 44.834 -8.5 60.501 -25.5s23.5 -38.167 23.5 -63.5c0 -21.333 -5.16699 -41.166 -15.5 -59.499
s-24.166 -36.5 -41.499 -54.5c-14 -15.333 -23.667 -25 -29 -29c-14 -11.333 -26.667 -17 -38 -17c-18.667 0 -35 3.33301 -49 10z" />
    <glyph glyph-name="quotesinglbase" unicode="&#x201a;" horiz-adv-x="280" 
d="M69 -74c20.667 16.667 35.998 30 45.998 40s18 20 24 30c-22 0 -40.833 7.16699 -56.5 21.5s-23.5 32.166 -23.5 53.499c0 20.667 8 38.667 24 54s34 23 54 23c24.667 0 44.834 -8.5 60.501 -25.5s23.5 -38.167 23.5 -63.5c0 -21.333 -5.16699 -41.166 -15.5 -59.499
s-24.166 -36.5 -41.499 -54.5c-14 -15.333 -23.667 -25 -29 -29c-14 -11.333 -26.667 -17 -38 -17c-18.667 0 -35 3.33301 -49 10z" />
    <glyph glyph-name="quotedblleft" unicode="&#x201c;" horiz-adv-x="500" 
d="M424 631c-20.667 -16.667 -35.998 -30.001 -45.998 -40.001s-18 -20 -24 -30c22 0 40.833 -7.16699 56.5 -21.5s23.5 -32.166 23.5 -53.499c0 -20.667 -8 -38.667 -24 -54s-34 -23 -54 -23c-24.667 0 -44.834 8.5 -60.501 25.5s-23.5 38.167 -23.5 63.5
c0 21.333 5.66699 42 17 62c9.33301 16.667 22.666 34 39.999 52c14 15.333 23.667 25 29 29c14 11.333 26.667 17 38 17c18.667 0 35 -3.33301 49 -10zM212.002 630.999c-20.667 -16.667 -35.998 -30.001 -45.998 -40.001s-18 -20 -24 -30c22 0 40.833 -7.16699 56.5 -21.5
s23.5 -32.166 23.5 -53.499c0 -20.667 -8 -38.667 -24 -54s-34 -23 -54 -23c-24.667 0 -44.834 8.5 -60.501 25.5s-23.5 38.167 -23.5 63.5c0 21.333 5.66699 42 17 62c9.33301 16.667 22.666 34 39.999 52c14 15.333 23.667 25 29 29c14 11.333 26.667 17 38 17
c18.667 0 35 -3.33301 49 -10z" />
    <glyph glyph-name="quotedblright" unicode="&#x201d;" horiz-adv-x="500" 
d="M281 436c20.667 16.667 35.998 30 45.998 40s18 20 24 30c-22 0 -40.833 7.16699 -56.5 21.5s-23.5 32.166 -23.5 53.499c0 20.667 8 38.667 24 54s34 23 54 23c24.667 0 44.834 -8.5 60.501 -25.5s23.5 -38.167 23.5 -63.5c0 -21.333 -5.16699 -41.166 -15.5 -59.499
s-24.166 -36.5 -41.499 -54.5c-14 -15.333 -23.667 -25 -29 -29c-14 -11.333 -26.667 -17 -38 -17c-18.667 0 -35 3.33301 -49 10zM68.998 436c20.667 16.667 35.998 30 45.998 40s18 20 24 30c-22 0 -40.833 7.16699 -56.5 21.5s-23.5 32.166 -23.5 53.499
c0 20.667 8 38.667 24 54s34 23 54 23c24.667 0 44.834 -8.5 60.501 -25.5s23.5 -38.167 23.5 -63.5c0 -21.333 -5.16699 -41.166 -15.5 -59.499s-24.166 -36.5 -41.499 -54.5c-14 -15.333 -23.667 -25 -29 -29c-14 -11.333 -26.667 -17 -38 -17
c-18.667 0 -35 3.33301 -49 10z" />
    <glyph glyph-name="quotedblbase" unicode="&#x201e;" horiz-adv-x="500" 
d="M281 -74c20.667 16.667 35.998 30 45.998 40s18 20 24 30c-22 0 -40.833 7.16699 -56.5 21.5s-23.5 32.166 -23.5 53.499c0 20.667 8 38.667 24 54s34 23 54 23c24.667 0 44.834 -8.5 60.501 -25.5s23.5 -38.167 23.5 -63.5c0 -21.333 -5.16699 -41.166 -15.5 -59.499
s-24.166 -36.5 -41.499 -54.5c-14 -15.333 -23.667 -25 -29 -29c-14 -11.333 -26.667 -17 -38 -17c-18.667 0 -35 3.33301 -49 10zM68.998 -74c20.667 16.667 35.998 30 45.998 40s18 20 24 30c-22 0 -40.833 7.16699 -56.5 21.5s-23.5 32.166 -23.5 53.499
c0 20.667 8 38.667 24 54s34 23 54 23c24.667 0 44.834 -8.5 60.501 -25.5s23.5 -38.167 23.5 -63.5c0 -21.333 -5.16699 -41.166 -15.5 -59.499s-24.166 -36.5 -41.499 -54.5c-14 -15.333 -23.667 -25 -29 -29c-14 -11.333 -26.667 -17 -38 -17
c-18.667 0 -35 3.33301 -49 10z" />
    <glyph glyph-name="dagger" unicode="&#x2020;" 
d="M350 -5l-0.00195312 -34c0 -23.333 1.33301 -42 4 -56s9.33398 -27.333 20.001 -40l-163 -3c8 10 14.333 23.5 19 40.5s7 40.167 7 69.5v23v363h-70c-29.333 0 -52.166 -1.33301 -68.499 -4s-33.166 -10 -50.499 -22l-3 155c16.667 -9.33301 34.334 -15.333 53.001 -18
s42 -4 70 -4h69v77c0 28 -1.33301 50.333 -4 67s-10 32 -22 46l163 3c-10.667 -16.667 -17.334 -33.167 -20.001 -49.5s-4 -38.5 -4 -66.5v-77h70c24 0 44.667 1.5 62 4.5s35.666 8.83301 54.999 17.5l3 -155c-16.667 10 -35 16.833 -55 20.5s-41.667 5.5 -65 5.5h-70v-363z
" />
    </font>
</defs>
</svg>
